ArgentumSans-Italic[wght].glyphspackage
{
glyphname = exclam;
layers = (
{
layerId = "288DB91C-ADA9-4EAE-B002-103CECDA4F2F";
shapes = (
{
closed = 1;
nodes = (
(247,1400,l),
(175,1032,l),
(153,516,l),
(421,516,l),
(603,1032,l),
(675,1400,l)
);
},
{
closed = 1;
nodes = (
(123,394,o),
(25,306,o),
(25,168,cs),
(25,58,o),
(99,-16,o),
(211,-16,cs),
(341,-16,o),
(435,80,o),
(435,210,cs),
(435,320,o),
(361,394,o),
(247,394,cs)
);
}
);
width = 588;
},
{
layerId = "DF367E9D-3B3B-43F4-BC7A-7EE40495C523";
shapes = (
{
closed = 1;
nodes = (
(296,1400,l),
(225,1038,l),
(141,440,l),
(287,440,l),
(443,1038,l),
(514,1400,l)
);
},
{
closed = 1;
nodes = (
(89,236,o),
(29,176,o),
(29,98,cs),
(29,30,o),
(75,-18,o),
(143,-18,cs),
(221,-18,o),
(281,44,o),
(281,122,cs),
(281,190,o),
(235,236,o),
(167,236,cs)
);
}
);
width = 420;
},
{
layerId = "FADC2794-F71C-487D-BA21-AA7BC8CC963C";
shapes = (
{
closed = 1;
nodes = (
(344,1400,l),
(273,1040,l),
(141,376,l),
(181,376,l),
(313,1040,l),
(384,1400,l)
);
},
{
closed = 1;
nodes = (
(71,90,o),
(45,64,o),
(45,34,cs),
(45,6,o),
(65,-14,o),
(93,-14,cs),
(123,-14,o),
(149,12,o),
(149,42,cs),
(149,70,o),
(129,90,o),
(101,90,cs)
);
}
);
width = 384;
}
);
leftKerningGroup = exclam;
rightKerningGroup = exclam;
unicode = 33;
}
{
glyphname = numbersign;
layers = (
{
layerId = "A09E50E2-67FC-4045-B7D7-901372DB4BBE";
shapes = (
{
closed = 1;
nodes = (
(1050,0,l),
(1348,1400,l),
(1028,1400,l),
(732,0,l)
);
},
{
closed = 1;
nodes = (
(1434,582,l),
(66,582,l),
(0,276,l),
(1368,276,l)
);
},
{
closed = 1;
nodes = (
(522,0,l),
(818,1400,l),
(500,1400,l),
(202,0,l)
);
},
{
closed = 1;
nodes = (
(1546,1106,l),
(178,1106,l),
(114,800,l),
(1482,800,l)
);
}
);
width = 1488;
},
{
layerId = "6D930887-645F-4E17-BAB2-3A566A02CAA9";
shapes = (
{
closed = 1;
nodes = (
(957,0,l),
(1251,1400,l),
(1083,1400,l),
(787,0,l)
);
},
{
closed = 1;
nodes = (
(1343,514,l),
(87,514,l),
(55,352,l),
(1313,352,l)
);
},
{
closed = 1;
nodes = (
(431,0,l),
(727,1400,l),
(557,1400,l),
(263,0,l)
);
},
{
closed = 1;
nodes = (
(1455,1036,l),
(197,1036,l),
(167,874,l),
(1425,874,l)
);
}
);
width = 1450;
},
{
layerId = "9B3D3104-3922-4F2D-8412-46D902A9971C";
shapes = (
{
closed = 1;
nodes = (
(877,0,l),
(1173,1400,l),
(1133,1400,l),
(837,0,l)
);
},
{
closed = 1;
nodes = (
(1269,456,l),
(107,456,l),
(107,416,l),
(1269,416,l)
);
},
{
closed = 1;
nodes = (
(355,0,l),
(651,1400,l),
(611,1400,l),
(315,0,l)
);
},
{
closed = 1;
nodes = (
(1379,978,l),
(217,978,l),
(215,938,l),
(1377,938,l)
);
}
);
width = 1416;
}
);
leftKerningGroup = numbersign;
rightKerningGroup = numbersign;
unicode = 35;
}
{
glyphname = dollar;
layers = (
{
anchors = (
{
name = bottom;
position = "{616, 0}";
},
{
name = top;
position = "{802, 1402}";
}
);
layerId = "FCBE0D3F-305A-4B26-ABA3-05651CFDD837";
shapes = (
{
closed = 1;
nodes = (
(448,236,l),
(336,-330,l),
(668,-330,l),
(780,236,l)
);
},
{
closed = 1;
nodes = (
(744,1728,l),
(630,1158,l),
(962,1158,l),
(1076,1728,l)
);
},
{
closed = 1;
nodes = (
(400,1420,o),
(138,1228,o),
(138,926,cs),
(138,484,o),
(800,584,o),
(800,416,cs),
(800,362,o),
(752,338,o),
(680,338,cs),
(538,338,o),
(300,436,o),
(168,556,c),
(-38,208,l),
(134,66,o),
(398,-16,o),
(642,-16,cs),
(976,-16,o),
(1278,134,o),
(1278,474,cs),
(1278,932,o),
(618,840,o),
(618,1004,cs),
(618,1048,o),
(656,1066,o),
(710,1066,cs),
(832,1066,o),
(1042,980,o),
(1176,902,c),
(1380,1254,l),
(1232,1354,o),
(1008,1420,o),
(786,1420,cs)
);
}
);
width = 1328;
},
{
anchors = (
{
name = bottom;
position = "{554, 0}";
},
{
name = top;
position = "{720, 1400}";
}
);
layerId = "5BDD1EDE-DE70-4338-9338-A02B2C6AE01A";
shapes = (
{
closed = 1;
nodes = (
(424,110,l),
(346,-280,l),
(520,-280,l),
(598,110,l)
);
},
{
closed = 1;
nodes = (
(730,1662,l),
(658,1288,l),
(832,1288,l),
(906,1662,l)
);
},
{
closed = 1;
nodes = (
(412,1410,o),
(192,1260,o),
(168,1024,cs),
(118,526,o),
(882,704,o),
(850,382,cs),
(840,270,o),
(736,204,o),
(572,204,cs),
(422,204,o),
(248,276,o),
(118,408,c),
(-4,214,l),
(128,84,o),
(326,-8,o),
(546,-8,cs),
(854,-8,o),
(1090,148,o),
(1114,394,cs),
(1166,896,o),
(404,730,o),
(434,1044,cs),
(444,1142,o),
(540,1196,o),
(678,1196,cs),
(784,1196,o),
(932,1162,o),
(1074,1068,c),
(1192,1266,l),
(1070,1352,o),
(898,1410,o),
(716,1410,cs)
);
}
);
width = 1244;
},
{
anchors = (
{
name = bottom;
position = "{516, 0}";
},
{
name = top;
position = "{674, 1398}";
}
);
layerId = "A3D6E1CA-B1BA-4595-96B0-7801BFB529A2";
shapes = (
{
closed = 1;
nodes = (
(428,14,l),
(380,-238,l),
(420,-238,l),
(468,14,l)
);
},
{
closed = 1;
nodes = (
(744,1608,l),
(700,1384,l),
(740,1384,l),
(784,1608,l)
);
},
{
closed = 1;
nodes = (
(428,1404,o),
(238,1282,o),
(220,1092,cs),
(170,578,o),
(1006,822,o),
(954,336,cs),
(936,152,o),
(752,34,o),
(486,34,cs),
(316,34,o),
(146,106,o),
(50,220,c),
(18,190,l),
(124,72,o),
(304,-6,o),
(482,-6,cs),
(772,-6,o),
(974,128,o),
(994,336,cs),
(1052,862,o),
(214,620,o),
(262,1092,cs),
(278,1258,o),
(450,1364,o),
(698,1364,cs),
(822,1364,o),
(960,1328,o),
(1044,1270,c),
(1068,1302,l),
(976,1364,o),
(832,1404,o),
(702,1404,cs)
);
}
);
width = 1186;
}
);
leftKerningGroup = S;
rightKerningGroup = S;
unicode = 36;
}
{
glyphname = percent;
layers = (
{
layerId = "D4E38000-BFB5-44FC-A51C-4288F8544A0D";
shapes = (
{
closed = 1;
nodes = (
(297,1420,o),
(107,1222,o),
(107,950,cs),
(107,762,o),
(213,640,o),
(391,640,cs),
(637,640,o),
(825,840,o),
(825,1114,cs),
(825,1298,o),
(721,1420,o),
(541,1420,cs)
);
},
{
closed = 1;
nodes = (
(533,1190,o),
(551,1144,o),
(551,1084,cs),
(551,968,o),
(493,872,o),
(437,872,cs),
(401,872,o),
(383,914,o),
(383,978,cs),
(383,1092,o),
(439,1190,o),
(497,1190,cs)
);
},
{
closed = 1;
nodes = (
(1583,1402,l),
(1267,1402,l),
(293,0,l),
(609,0,l)
);
},
{
closed = 1;
nodes = (
(1247,770,o),
(1057,572,o),
(1057,300,cs),
(1057,112,o),
(1163,-10,o),
(1341,-10,cs),
(1587,-10,o),
(1775,190,o),
(1775,464,cs),
(1775,648,o),
(1671,770,o),
(1491,770,cs)
);
},
{
closed = 1;
nodes = (
(1483,540,o),
(1501,494,o),
(1501,434,cs),
(1501,318,o),
(1443,222,o),
(1387,222,cs),
(1351,222,o),
(1333,264,o),
(1333,328,cs),
(1333,442,o),
(1389,540,o),
(1447,540,cs)
);
}
);
width = 1816;
},
{
layerId = "196BCA4D-4EBA-41D5-BBFD-A0C7C55F9EA0";
shapes = (
{
closed = 1;
nodes = (
(352,1410,o),
(192,1214,o),
(192,940,cs),
(192,764,o),
(278,656,o),
(434,656,cs),
(666,656,o),
(824,850,o),
(824,1126,cs),
(824,1302,o),
(738,1410,o),
(580,1410,cs)
);
},
{
closed = 1;
nodes = (
(632,1284,o),
(672,1218,o),
(672,1112,cs),
(672,926,o),
(588,782,o),
(460,782,cs),
(384,782,o),
(346,844,o),
(346,954,cs),
(346,1138,o),
(430,1284,o),
(556,1284,cs)
);
},
{
closed = 1;
nodes = (
(1504,1400,l),
(1340,1400,l),
(310,0,l),
(476,0,l)
);
},
{
closed = 1;
nodes = (
(1144,750,o),
(984,554,o),
(984,280,cs),
(984,104,o),
(1070,-4,o),
(1226,-4,cs),
(1458,-4,o),
(1616,190,o),
(1616,466,cs),
(1616,642,o),
(1530,750,o),
(1372,750,cs)
);
},
{
closed = 1;
nodes = (
(1424,624,o),
(1464,558,o),
(1464,452,cs),
(1464,266,o),
(1380,122,o),
(1252,122,cs),
(1176,122,o),
(1138,184,o),
(1138,294,cs),
(1138,478,o),
(1222,624,o),
(1348,624,cs)
);
}
);
width = 1736;
},
{
layerId = "FAA95C36-2A9A-4A6A-AE16-672F8292957B";
shapes = (
{
closed = 1;
nodes = (
(412,1406,o),
(278,1202,o),
(278,922,cs),
(278,752,o),
(350,658,o),
(486,658,cs),
(706,658,o),
(842,858,o),
(842,1140,cs),
(842,1308,o),
(768,1406,o),
(630,1406,cs)
);
},
{
closed = 1;
nodes = (
(740,1372,o),
(800,1288,o),
(800,1138,cs),
(800,884,o),
(690,694,o),
(492,694,cs),
(378,694,o),
(318,776,o),
(318,926,cs),
(318,1178,o),
(426,1372,o),
(624,1372,cs)
);
},
{
closed = 1;
nodes = (
(1456,1398,l),
(1412,1398,l),
(336,0,l),
(380,0,l)
);
},
{
closed = 1;
nodes = (
(1084,740,o),
(950,536,o),
(950,256,cs),
(950,86,o),
(1022,-8,o),
(1158,-8,cs),
(1378,-8,o),
(1514,192,o),
(1514,474,cs),
(1514,642,o),
(1440,740,o),
(1302,740,cs)
);
},
{
closed = 1;
nodes = (
(1412,706,o),
(1472,622,o),
(1472,472,cs),
(1472,218,o),
(1362,28,o),
(1164,28,cs),
(1050,28,o),
(990,110,o),
(990,260,cs),
(990,512,o),
(1098,706,o),
(1296,706,cs)
);
}
);
width = 1716;
}
);
leftKerningGroup = percent;
rightKerningGroup = percent;
unicode = 37;
}
{
glyphname = ampersand;
layers = (
{
anchors = (
{
name = _bottomleft;
position = "{14, 0}";
},
{
name = bottomleft;
position = "{14, 0}";
},
{
name = bottomright;
position = "{962, 0}";
},
{
name = top;
position = "{806, 1400}";
}
);
background = {
shapes = (
{
closed = 1;
nodes = (
(992,-32,o),
(1344,262,o),
(1520,676,c),
(1178,784,l),
(1064,482,o),
(834,304,o),
(640,304,cs),
(522,304,o),
(470,358,o),
(470,420,cs),
(470,522,o),
(592,584,o),
(734,632,cs),
(1030,734,o),
(1268,864,o),
(1268,1106,cs),
(1268,1314,o),
(1084,1424,o),
(838,1424,cs),
(558,1424,o),
(310,1266,o),
(310,990,cs),
(310,884,o),
(350,788,o),
(434,702,cs),
(1136,-26,l),
(1434,248,l),
(822,874,ls),
(740,958,o),
(714,994,o),
(714,1034,cs),
(714,1094,o),
(760,1132,o),
(820,1132,cs),
(862,1132,o),
(896,1108,o),
(896,1070,cs),
(896,1014,o),
(854,958,o),
(596,872,cs),
(286,768,o),
(26,618,o),
(26,344,cs),
(26,108,o),
(260,-32,o),
(560,-32,cs)
);
}
);
};
layerId = "A09E50E2-67FC-4045-B7D7-901372DB4BBE";
shapes = (
{
closed = 1;
nodes = (
(1136,-26,l),
(1434,248,l),
(706,1136,l),
(584,1034,l),
(1288,1034,l),
(1360,1400,l),
(300,1400,l),
(238,1094,l)
);
},
{
closed = 1;
nodes = (
(656,892,l),
(596,872,ls),
(282,768,o),
(18,618,o),
(18,344,cs),
(18,108,o),
(256,-32,o),
(560,-32,cs),
(992,-32,o),
(1344,262,o),
(1520,676,c),
(1178,784,l),
(1064,482,o),
(834,304,o),
(640,304,cs),
(522,304,o),
(470,358,o),
(470,420,cs),
(470,522,o),
(594,582,o),
(734,632,cs),
(806,658,l)
);
}
);
width = 1554;
},
{
anchors = (
{
name = _bottomleft;
position = "{102, 0}";
},
{
name = bottomleft;
position = "{102, 0}";
},
{
name = bottomright;
position = "{878, 0}";
},
{
name = top;
position = "{832, 1400}";
}
);
layerId = "6D930887-645F-4E17-BAB2-3A566A02CAA9";
shapes = (
{
closed = 1;
nodes = (
(1126,-22,l),
(1274,122,l),
(506,1258,l),
(440,1202,l),
(1206,1202,l),
(1248,1400,l),
(314,1400,l),
(282,1240,l)
);
},
{
closed = 1;
nodes = (
(612,848,l),
(568,832,ls),
(218,704,o),
(48,540,o),
(48,318,cs),
(48,112,o),
(232,-18,o),
(516,-18,cs),
(862,-18,o),
(1160,200,o),
(1320,622,c),
(1150,680,l),
(1018,338,o),
(784,166,o),
(532,166,cs),
(360,166,o),
(268,244,o),
(268,356,cs),
(268,490,o),
(398,576,o),
(660,696,cs),
(704,716,l)
);
}
);
width = 1392;
},
{
anchors = (
{
name = _bottomleft;
position = "{170, 0}";
},
{
name = bottomleft;
position = "{170, 0}";
},
{
name = bottomright;
position = "{810, 0}";
},
{
name = top;
position = "{852, 1400}";
}
);
layerId = "9B3D3104-3922-4F2D-8412-46D902A9971C";
shapes = (
{
closed = 1;
nodes = (
(1120,-20,l),
(1150,2,l),
(382,1380,l),
(360,1362,l),
(1170,1362,l),
(1178,1400,l),
(346,1400,l),
(342,1376,l)
);
},
{
closed = 1;
nodes = (
(652,840,l),
(548,786,ls),
(186,598,o),
(70,468,o),
(70,294,cs),
(70,114,o),
(214,-6,o),
(446,-6,cs),
(762,-6,o),
(1010,176,o),
(1164,572,c),
(1128,580,l),
(982,204,o),
(746,28,o),
(448,28,cs),
(236,28,o),
(110,136,o),
(110,294,cs),
(110,458,o),
(212,570,o),
(568,754,cs),
(680,812,l)
);
}
);
width = 1268;
}
);
leftKerningGroup = ampersand;
rightKerningGroup = ampersand;
unicode = 38;
}
{
glyphname = quotesingle;
layers = (
{
layerId = "6A7A32D0-3BFD-43C1-930A-C854163D3177";
shapes = (
{
closed = 1;
nodes = (
(290,1400,l),
(170,796,l),
(506,796,l),
(626,1400,l)
);
}
);
width = 576;
},
{
layerId = "A3BFC84F-57DC-4376-84A1-AB8B7A21073A";
shapes = (
{
closed = 1;
nodes = (
(293,1400,l),
(197,916,l),
(373,916,l),
(469,1400,l)
);
}
);
width = 416;
},
{
layerId = "CC7E1963-6536-4D59-9993-97487CDAFD05";
shapes = (
{
closed = 1;
nodes = (
(296,1400,l),
(220,1020,l),
(260,1020,l),
(336,1400,l)
);
}
);
width = 280;
}
);
leftKerningGroup = quotesingle;
rightKerningGroup = quotesingle;
unicode = 39;
}
{
glyphname = parenleft;
layers = (
{
layerId = "288DB91C-ADA9-4EAE-B002-103CECDA4F2F";
shapes = (
{
closed = 1;
nodes = (
(542,1484,l),
(322,1258,o),
(176,956,o),
(114,654,cs),
(48,316,o),
(88,6,o),
(212,-250,c),
(594,-250,l),
(496,-24,o),
(462,280,o),
(522,582,cs),
(590,920,o),
(758,1228,o),
(952,1484,c)
);
}
);
width = 740;
},
{
layerId = "DF367E9D-3B3B-43F4-BC7A-7EE40495C523";
shapes = (
{
closed = 1;
nodes = (
(579,1484,l),
(375,1264,o),
(231,960,o),
(167,636,cs),
(99,296,o),
(129,-12,o),
(241,-248,c),
(435,-248,l),
(335,-28,o),
(313,276,o),
(377,600,cs),
(445,940,o),
(599,1248,o),
(789,1484,c)
);
}
);
width = 624;
},
{
layerId = "FADC2794-F71C-487D-BA21-AA7BC8CC963C";
shapes = (
{
closed = 1;
nodes = (
(625,1484,l),
(437,1268,o),
(295,962,o),
(227,622,cs),
(159,278,o),
(177,-28,o),
(279,-248,c),
(319,-248,l),
(217,-32,o),
(197,274,o),
(265,614,cs),
(335,958,o),
(475,1264,o),
(665,1484,c)
);
}
);
width = 552;
}
);
leftKerningGroup = parenleft;
rightKerningGroup = parenleft;
unicode = 40;
}
{
glyphname = parenright;
layers = (
{
layerId = "FCBE0D3F-305A-4B26-ABA3-05651CFDD837";
shapes = (
{
closed = 1;
nodes = (
(242,-250,l),
(462,-24,o),
(608,278,o),
(670,580,cs),
(736,918,o),
(696,1228,o),
(572,1484,c),
(190,1484,l),
(288,1258,o),
(322,954,o),
(262,652,cs),
(194,314,o),
(26,6,o),
(-168,-250,c)
);
}
);
width = 740;
},
{
layerId = "5BDD1EDE-DE70-4338-9338-A02B2C6AE01A";
shapes = (
{
closed = 1;
nodes = (
(89,-250,l),
(293,-30,o),
(437,274,o),
(501,598,cs),
(569,938,o),
(539,1246,o),
(427,1482,c),
(233,1482,l),
(333,1262,o),
(355,958,o),
(291,634,cs),
(223,294,o),
(69,-14,o),
(-121,-250,c)
);
}
);
width = 624;
},
{
layerId = "A3D6E1CA-B1BA-4595-96B0-7801BFB529A2";
shapes = (
{
closed = 1;
nodes = (
(-29,-248,l),
(159,-32,o),
(301,274,o),
(369,614,cs),
(437,958,o),
(419,1264,o),
(317,1484,c),
(277,1484,l),
(379,1268,o),
(399,962,o),
(331,622,cs),
(261,278,o),
(121,-28,o),
(-69,-248,c)
);
}
);
width = 552;
}
);
leftKerningGroup = parenright;
rightKerningGroup = parenright;
unicode = 41;
}
{
glyphname = asterisk;
layers = (
{
layerId = "FCBE0D3F-305A-4B26-ABA3-05651CFDD837";
shapes = (
{
closed = 1;
nodes = (
(877,992,l),
(719,1078,l),
(877,1160,l),
(767,1350,l),
(617,1260,l),
(621,1436,l),
(401,1436,l),
(405,1260,l),
(255,1354,l),
(145,1160,l),
(301,1078,l),
(145,992,l),
(255,804,l),
(407,896,l),
(401,718,l),
(621,718,l),
(615,894,l),
(767,800,l)
);
}
);
width = 812;
},
{
layerId = "5BDD1EDE-DE70-4338-9338-A02B2C6AE01A";
shapes = (
{
closed = 1;
nodes = (
(765,1030,l),
(583,1132,l),
(765,1234,l),
(705,1340,l),
(527,1234,l),
(529,1442,l),
(407,1442,l),
(409,1234,l),
(231,1342,l),
(171,1234,l),
(351,1132,l),
(171,1030,l),
(231,926,l),
(411,1032,l),
(407,824,l),
(529,824,l),
(527,1030,l),
(705,924,l)
);
}
);
width = 696;
},
{
layerId = "A3D6E1CA-B1BA-4595-96B0-7801BFB529A2";
shapes = (
{
closed = 1;
nodes = (
(669,1064,l),
(467,1180,l),
(669,1296,l),
(651,1330,l),
(449,1212,l),
(449,1446,l),
(413,1446,l),
(413,1212,l),
(211,1330,l),
(193,1296,l),
(393,1180,l),
(193,1064,l),
(211,1030,l),
(413,1148,l),
(413,914,l),
(449,914,l),
(449,1148,l),
(651,1030,l)
);
}
);
width = 596;
}
);
leftKerningGroup = asterisk;
rightKerningGroup = asterisk;
unicode = 42;
}
{
glyphname = plus;
layers = (
{
layerId = "288DB91C-ADA9-4EAE-B002-103CECDA4F2F";
shapes = (
{
closed = 1;
nodes = (
(110,798,l),
(54,518,l),
(974,518,l),
(1030,798,l)
);
},
{
closed = 1;
nodes = (
(494,1118,l),
(310,198,l),
(590,198,l),
(774,1118,l)
);
}
);
width = 1040;
},
{
layerId = "DF367E9D-3B3B-43F4-BC7A-7EE40495C523";
shapes = (
{
closed = 1;
nodes = (
(108,724,l),
(78,572,l),
(934,572,l),
(964,724,l)
);
},
{
closed = 1;
nodes = (
(532,1076,l),
(360,220,l),
(512,220,l),
(682,1076,l)
);
}
);
width = 996;
},
{
layerId = "FADC2794-F71C-487D-BA21-AA7BC8CC963C";
shapes = (
{
closed = 1;
nodes = (
(108,660,l),
(100,620,l),
(900,620,l),
(908,660,l)
);
},
{
closed = 1;
nodes = (
(564,1040,l),
(404,240,l),
(444,240,l),
(604,1040,l)
);
}
);
width = 960;
}
);
leftKerningGroup = hyphen;
rightKerningGroup = hyphen;
unicode = 43;
}
{
glyphname = comma;
layers = (
{
layerId = "FCBE0D3F-305A-4B26-ABA3-05651CFDD837";
shapes = (
{
closed = 1;
nodes = (
(116,192,l),
(-110,-260,l),
(98,-260,l),
(316,32,ls),
(350,78,o),
(380,130,o),
(384,192,cs),
(392,324,o),
(306,394,o),
(198,394,cs),
(78,394,o),
(-14,310,o),
(-26,190,cs),
(-38,76,o),
(38,-20,o),
(228,-12,c)
);
}
);
width = 540;
},
{
layerId = "5BDD1EDE-DE70-4338-9338-A02B2C6AE01A";
shapes = (
{
closed = 1;
nodes = (
(128,92,l),
(-12,-220,l),
(106,-220,l),
(240,8,l),
(260,40,o),
(280,70,o),
(284,108,cs),
(292,186,o),
(236,230,o),
(172,230,cs),
(100,230,o),
(44,180,o),
(38,108,cs),
(32,42,o),
(72,-14,o),
(172,-14,c)
);
}
);
width = 540;
},
{
layerId = "A3D6E1CA-B1BA-4595-96B0-7801BFB529A2";
shapes = (
{
closed = 1;
nodes = (
(160,8,l),
(56,-220,l),
(96,-220,l),
(200,-14,ls),
(210,6,o),
(218,20,o),
(220,38,cs),
(224,66,o),
(200,90,o),
(172,90,cs),
(144,90,o),
(118,66,o),
(116,38,cs),
(114,10,o),
(134,-14,o),
(162,-14,c)
);
}
);
width = 540;
}
);
leftKerningGroup = period;
rightKerningGroup = period;
unicode = 44;
}
{
glyphname = hyphen;
layers = (
{
layerId = "288DB91C-ADA9-4EAE-B002-103CECDA4F2F";
shapes = (
{
closed = 1;
nodes = (
(142,758,l),
(86,478,l),
(646,478,l),
(702,758,l)
);
}
);
width = 760;
},
{
layerId = "DF367E9D-3B3B-43F4-BC7A-7EE40495C523";
shapes = (
{
closed = 1;
nodes = (
(153,684,l),
(121,532,l),
(613,532,l),
(645,684,l)
);
}
);
width = 736;
},
{
layerId = "FADC2794-F71C-487D-BA21-AA7BC8CC963C";
shapes = (
{
closed = 1;
nodes = (
(160,620,l),
(152,580,l),
(586,580,l),
(594,620,l)
);
}
);
width = 714;
}
);
leftKerningGroup = hyphen;
rightKerningGroup = hyphen;
unicode = 45;
}
{
glyphname = period;
layers = (
{
layerId = "A09E50E2-67FC-4045-B7D7-901372DB4BBE";
shapes = (
{
closed = 1;
nodes = (
(86,394,o),
(-4,298,o),
(-4,168,cs),
(-4,58,o),
(72,-16,o),
(182,-16,cs),
(312,-16,o),
(406,80,o),
(406,210,cs),
(406,322,o),
(328,394,o),
(218,394,cs)
);
}
);
width = 540;
},
{
layerId = "6D930887-645F-4E17-BAB2-3A566A02CAA9";
shapes = (
{
closed = 1;
nodes = (
(118,236,o),
(58,176,o),
(58,98,cs),
(58,30,o),
(104,-18,o),
(172,-18,cs),
(250,-18,o),
(310,44,o),
(310,122,cs),
(310,190,o),
(264,236,o),
(196,236,cs)
);
}
);
width = 540;
},
{
layerId = "9B3D3104-3922-4F2D-8412-46D902A9971C";
shapes = (
{
closed = 1;
nodes = (
(148,90,o),
(122,64,o),
(122,34,cs),
(122,6,o),
(142,-14,o),
(170,-14,cs),
(200,-14,o),
(226,12,o),
(226,42,cs),
(226,70,o),
(206,90,o),
(178,90,cs)
);
}
);
width = 540;
}
);
leftKerningGroup = period;
rightKerningGroup = period;
unicode = 46;
}
{
glyphname = slash;
layers = (
{
layerId = "6A7A32D0-3BFD-43C1-930A-C854163D3177";
shapes = (
{
closed = 1;
nodes = (
(625,1612,l),
(-193,-208,l),
(183,-208,l),
(1001,1612,l)
);
}
);
width = 746;
},
{
layerId = "A3BFC84F-57DC-4376-84A1-AB8B7A21073A";
shapes = (
{
closed = 1;
nodes = (
(633,1634,l),
(-101,-236,l),
(95,-236,l),
(829,1634,l)
);
}
);
width = 662;
},
{
layerId = "CC7E1963-6536-4D59-9993-97487CDAFD05";
shapes = (
{
closed = 1;
nodes = (
(714,1652,l),
(-98,-260,l),
(-56,-260,l),
(756,1652,l)
);
}
);
width = 588;
}
);
leftKerningGroup = slash;
rightKerningGroup = slash;
unicode = 47;
}
{
glyphname = zero;
layers = (
{
layerId = "9043404F-E9C5-4B3E-B15A-843443318E3E";
shapes = (
{
closed = 1;
nodes = (
(438,1420,o),
(178,1222,o),
(86,758,cs),
(-6,296,o),
(148,-20,o),
(530,-20,cs),
(908,-20,o),
(1168,180,o),
(1260,644,cs),
(1352,1106,o),
(1196,1420,o),
(818,1420,cs)
);
},
{
closed = 1;
nodes = (
(836,1078,o),
(838,976,o),
(780,690,cs),
(724,404,o),
(684,312,o),
(596,322,cs),
(508,330,o),
(508,426,o),
(566,712,cs),
(624,998,o),
(662,1078,o),
(748,1078,cs)
);
}
);
width = 1268;
},
{
layerId = "E14B12F3-6DA5-4EC4-9B8C-3BC58519F69C";
shapes = (
{
closed = 1;
nodes = (
(456,1410,o),
(216,1210,o),
(124,754,cs),
(32,298,o),
(174,-10,o),
(530,-10,cs),
(880,-10,o),
(1124,190,o),
(1216,646,cs),
(1306,1102,o),
(1164,1410,o),
(812,1410,cs)
);
},
{
closed = 1;
nodes = (
(976,1232,o),
(1040,1030,o),
(968,670,cs),
(898,312,o),
(766,168,o),
(564,168,cs),
(366,168,o),
(300,372,o),
(372,730,cs),
(444,1090,o),
(576,1232,o),
(778,1232,cs)
);
}
);
width = 1268;
},
{
layerId = "3412EF41-8D40-4AD8-A3E8-23555CC779E5";
shapes = (
{
closed = 1;
nodes = (
(469,1404,o),
(231,1204,o),
(141,752,cs),
(51,300,o),
(189,-4,o),
(531,-4,cs),
(875,-4,o),
(1113,194,o),
(1205,648,cs),
(1295,1098,o),
(1155,1404,o),
(811,1404,cs)
);
},
{
closed = 1;
nodes = (
(1119,1362,o),
(1251,1078,o),
(1165,652,cs),
(1079,224,o),
(855,36,o),
(539,36,cs),
(219,36,o),
(95,322,o),
(181,748,cs),
(267,1176,o),
(487,1362,o),
(803,1362,cs)
);
}
);
width = 1268;
}
);
leftKerningGroup = zero;
rightKerningGroup = zero;
unicode = 48;
}
{
glyphname = one;
layers = (
{
layerId = "9043404F-E9C5-4B3E-B15A-843443318E3E";
shapes = (
{
closed = 1;
nodes = (
(328,0,l),
(766,0,l),
(1046,1400,l),
(651,1400,l),
(124,1067,l),
(301,787,l),
(512,920,l)
);
},
{
closed = 1;
nodes = (
(96,413,l),
(13,0,l),
(1037,0,l),
(1120,413,l)
);
}
);
width = 1268;
},
{
layerId = "E14B12F3-6DA5-4EC4-9B8C-3BC58519F69C";
shapes = (
{
closed = 1;
nodes = (
(445,0,l),
(660,0,l),
(940,1400,l),
(746,1400,l),
(284,1105,l),
(369,949,l),
(674,1144,l)
);
},
{
closed = 1;
nodes = (
(116,198,l),
(76,0,l),
(980,0,l),
(1020,198,l)
);
}
);
width = 1268;
},
{
layerId = "3412EF41-8D40-4AD8-A3E8-23555CC779E5";
shapes = (
{
closed = 1;
nodes = (
(527,0,l),
(566,0,l),
(846,1400,l),
(808,1400,l),
(332,1138,l),
(343,1102,l),
(797,1352,l)
);
},
{
closed = 1;
nodes = (
(118,38,l),
(110,0,l),
(948,0,l),
(956,38,l)
);
}
);
width = 1268;
}
);
leftKerningGroup = one;
rightKerningGroup = one;
unicode = 49;
}
{
glyphname = two;
layers = (
{
layerId = "9043404F-E9C5-4B3E-B15A-843443318E3E";
shapes = (
{
closed = 1;
nodes = (
(20,292,l),
(-36,0,l),
(1062,0,l),
(1132,356,l),
(420,356,l),
(452,214,l),
(878,570,ls),
(1088,746,o),
(1252,914,o),
(1252,1098,cs),
(1252,1294,o),
(1072,1424,o),
(810,1424,cs),
(590,1424,o),
(368,1342,o),
(142,1206,c),
(250,872,l),
(406,982,o),
(560,1052,o),
(666,1052,cs),
(720,1052,o),
(748,1030,o),
(748,992,cs),
(748,940,o),
(682,864,o),
(608,800,cs)
);
}
);
width = 1268;
},
{
layerId = "E14B12F3-6DA5-4EC4-9B8C-3BC58519F69C";
shapes = (
{
closed = 1;
nodes = (
(6,166,l),
(-26,0,l),
(1038,0,l),
(1074,186,l),
(198,186,l),
(214,112,l),
(808,602,ls),
(1020,778,o),
(1178,952,o),
(1178,1114,cs),
(1178,1296,o),
(1016,1414,o),
(762,1414,cs),
(572,1414,o),
(368,1338,o),
(186,1214,c),
(248,1046,l),
(394,1154,o),
(562,1220,o),
(694,1220,cs),
(838,1220,o),
(922,1160,o),
(922,1062,cs),
(922,966,o),
(814,844,o),
(670,722,cs)
);
}
);
width = 1268;
},
{
layerId = "3412EF41-8D40-4AD8-A3E8-23555CC779E5";
shapes = (
{
closed = 1;
nodes = (
(-4,58,l),
(-16,0,l),
(1018,0,l),
(1026,40,l),
(12,40,l),
(12,26,l),
(750,628,ls),
(966,804,o),
(1114,984,o),
(1114,1130,cs),
(1114,1300,o),
(972,1404,o),
(724,1404,cs),
(558,1404,o),
(370,1336,o),
(226,1222,c),
(248,1194,l),
(386,1300,o),
(564,1364,o),
(718,1364,cs),
(942,1364,o),
(1072,1272,o),
(1072,1122,cs),
(1072,992,o),
(932,822,o),
(728,656,cs)
);
}
);
width = 1268;
}
);
leftKerningGroup = two;
rightKerningGroup = two;
unicode = 50;
}
{
glyphname = three;
layers = (
{
layerId = "288DB91C-ADA9-4EAE-B002-103CECDA4F2F";
shapes = (
{
closed = 1;
nodes = (
(622,896,l),
(634,720,l),
(1196,1142,l),
(1246,1404,l),
(220,1404,l),
(156,1070,l),
(836,1070,l),
(806,1206,l),
(316,812,l),
(270,572,l),
(532,572,ls),
(630,572,o),
(678,534,o),
(678,470,cs),
(678,374,o),
(614,322,o),
(482,322,cs),
(352,322,o),
(232,374,o),
(128,478,c),
(-96,166,l),
(24,54,o),
(236,-20,o),
(454,-20,cs),
(854,-20,o),
(1138,210,o),
(1138,514,cs),
(1138,684,o),
(1032,802,o),
(872,838,cs)
);
}
);
width = 1268;
},
{
layerId = "DF367E9D-3B3B-43F4-BC7A-7EE40495C523";
shapes = (
{
closed = 1;
nodes = (
(532,824,l),
(546,744,l),
(1170,1260,l),
(1198,1400,l),
(278,1400,l),
(242,1200,l),
(970,1200,l),
(952,1280,l),
(378,806,l),
(352,666,l),
(556,666,ls),
(746,666,o),
(854,598,o),
(854,468,cs),
(854,298,o),
(702,178,o),
(464,178,cs),
(322,178,o),
(190,230,o),
(98,320,c),
(-34,140,l),
(76,50,o),
(258,-10,o),
(444,-10,cs),
(824,-10,o),
(1088,208,o),
(1088,494,cs),
(1088,678,o),
(944,792,o),
(716,810,cs)
);
}
);
width = 1268;
},
{
layerId = "FADC2794-F71C-487D-BA21-AA7BC8CC963C";
shapes = (
{
closed = 1;
nodes = (
(446,788,l),
(448,776,l),
(1126,1362,l),
(1134,1398,l),
(304,1398,l),
(296,1358,l),
(1090,1358,l),
(1086,1370,l),
(404,784,l),
(398,748,l),
(554,748,ls),
(826,748,o),
(982,650,o),
(982,466,cs),
(982,224,o),
(760,36,o),
(420,36,cs),
(268,36,o),
(120,80,o),
(22,146,c),
(-8,114,l),
(96,44,o),
(252,-4,o),
(412,-4,cs),
(776,-4,o),
(1024,204,o),
(1024,476,cs),
(1024,672,o),
(846,788,o),
(560,788,cs)
);
}
);
width = 1268;
}
);
leftKerningGroup = three;
rightKerningGroup = three;
unicode = 51;
}
{
glyphname = four;
layers = (
{
layerId = "6A7A32D0-3BFD-43C1-930A-C854163D3177";
shapes = (
{
closed = 1;
nodes = (
(1144,270,l),
(1210,602,l),
(290,602,l),
(376,416,l),
(960,1402,l),
(524,1402,l),
(24,572,l),
(-36,270,l)
);
},
{
closed = 1;
nodes = (
(510,0,l),
(932,0,l),
(1102,870,l),
(680,870,l)
);
}
);
width = 1268;
},
{
layerId = "A3BFC84F-57DC-4376-84A1-AB8B7A21073A";
shapes = (
{
closed = 1;
nodes = (
(1122,348,l),
(1160,548,l),
(200,548,l),
(238,462,l),
(920,1400,l),
(692,1400,l),
(44,516,l),
(12,348,l)
);
},
{
closed = 1;
nodes = (
(626,0,l),
(846,0,l),
(1018,888,l),
(798,888,l)
);
}
);
width = 1268;
},
{
layerId = "CC7E1963-6536-4D59-9993-97487CDAFD05";
shapes = (
{
closed = 1;
nodes = (
(1084,416,l),
(1092,456,l),
(100,456,l),
(106,440,l),
(890,1398,l),
(844,1398,l),
(80,466,l),
(70,416,l)
);
},
{
closed = 1;
nodes = (
(722,0,l),
(762,0,l),
(938,904,l),
(898,904,l)
);
}
);
width = 1268;
}
);
leftKerningGroup = four;
rightKerningGroup = four;
unicode = 52;
}
{
glyphname = five;
layers = (
{
layerId = "6A7A32D0-3BFD-43C1-930A-C854163D3177";
shapes = (
{
closed = 1;
nodes = (
(672,1248,l),
(418,1046,l),
(1174,1046,l),
(1242,1402,l),
(290,1402,l),
(66,560,l),
(176,569,o),
(434,586,o),
(496,586,cs),
(586,586,o),
(626,528,o),
(626,466,cs),
(626,376,o),
(566,320,o),
(448,320,cs),
(320,320,o),
(210,390,o),
(118,482,c),
(-110,164,l),
(24,54,o),
(236,-20,o),
(436,-20,cs),
(846,-20,o),
(1136,218,o),
(1136,540,cs),
(1136,758,o),
(958,924,o),
(654,924,cs),
(630,924,o),
(510,915,o),
(348,898,c),
(528,696,l)
);
}
);
width = 1268;
},
{
layerId = "A3BFC84F-57DC-4376-84A1-AB8B7A21073A";
shapes = (
{
closed = 1;
nodes = (
(531,1304,l),
(402,1200,l),
(1170,1200,l),
(1208,1400,l),
(333,1400,l),
(165,666,l),
(280,683,o),
(488,696,o),
(552,696,cs),
(744,696,o),
(836,610,o),
(836,486,cs),
(836,308,o),
(686,186,o),
(470,186,cs),
(332,186,o),
(198,238,o),
(98,330,c),
(-32,150,l),
(92,54,o),
(282,-10,o),
(454,-10,cs),
(828,-10,o),
(1094,218,o),
(1094,524,cs),
(1094,734,o),
(930,896,o),
(648,896,cs),
(576,896,o),
(434,891,o),
(383,882,c),
(411,780,l)
);
}
);
width = 1268;
},
{
layerId = "CC7E1963-6536-4D59-9993-97487CDAFD05";
shapes = (
{
closed = 1;
nodes = (
(383,1376,l),
(360,1358,l),
(1134,1358,l),
(1142,1398,l),
(348,1398,l),
(192,722,l),
(330,766,o),
(482,794,o),
(592,794,cs),
(832,794,o),
(978,678,o),
(978,500,cs),
(978,234,o),
(756,36,o),
(440,36,cs),
(302,36,o),
(136,86,o),
(22,164,c),
(-4,132,l),
(114,50,o),
(284,-4,o),
(434,-4,cs),
(776,-4,o),
(1018,214,o),
(1018,508,cs),
(1018,704,o),
(862,834,o),
(600,834,cs),
(500,834,o),
(360,810,o),
(232,774,c),
(242,760,l)
);
}
);
width = 1268;
}
);
leftKerningGroup = five;
rightKerningGroup = five;
unicode = 53;
}
{
glyphname = six;
layers = (
{
layerId = "6A7A32D0-3BFD-43C1-930A-C854163D3177";
shapes = (
{
closed = 1;
nodes = (
(882,-20,o),
(1158,218,o),
(1158,564,cs),
(1158,786,o),
(1022,934,o),
(794,934,cs),
(660,934,o),
(558,886,o),
(486,820,c),
(518,992,o),
(628,1084,o),
(804,1084,cs),
(912,1084,o),
(998,1052,o),
(1060,992,c),
(1288,1300,l),
(1186,1376,o),
(1012,1422,o),
(844,1422,cs),
(374,1422,o),
(18,1046,o),
(18,522,cs),
(18,192,o),
(196,-20,o),
(518,-20,cs)
);
},
{
closed = 1;
nodes = (
(492,332,o),
(454,372,o),
(454,440,cs),
(454,544,o),
(514,614,o),
(628,614,cs),
(702,614,o),
(740,576,o),
(740,508,cs),
(740,398,o),
(682,332,o),
(570,332,cs)
);
}
);
width = 1268;
},
{
layerId = "A3BFC84F-57DC-4376-84A1-AB8B7A21073A";
shapes = (
{
closed = 1;
nodes = (
(806,-10,o),
(1058,214,o),
(1058,548,cs),
(1058,764,o),
(922,904,o),
(682,904,cs),
(506,904,o),
(360,834,o),
(260,698,c),
(310,1012,o),
(480,1224,o),
(752,1224,cs),
(858,1224,o),
(970,1192,o),
(1044,1136,c),
(1170,1304,l),
(1068,1368,o),
(910,1410,o),
(772,1410,cs),
(328,1410,o),
(4,1020,o),
(4,504,cs),
(4,182,o),
(168,-10,o),
(462,-10,cs)
);
},
{
closed = 1;
nodes = (
(286,182,o),
(224,326,o),
(250,450,c),
(276,598,o),
(414,728,o),
(604,728,cs),
(750,728,o),
(834,644,o),
(834,512,cs),
(834,312,o),
(684,182,o),
(488,182,cs)
);
}
);
width = 1268;
},
{
layerId = "CC7E1963-6536-4D59-9993-97487CDAFD05";
shapes = (
{
closed = 1;
nodes = (
(812,-4,o),
(1020,208,o),
(1020,512,cs),
(1020,736,o),
(866,874,o),
(606,874,cs),
(366,874,o),
(178,740,o),
(98,518,c),
(144,1044,o),
(376,1362,o),
(718,1362,cs),
(836,1362,o),
(972,1322,o),
(1074,1258,c),
(1100,1294,l),
(982,1362,o),
(836,1402,o),
(714,1402,cs),
(348,1402,o),
(60,1000,o),
(60,490,cs),
(60,172,o),
(222,-4,o),
(518,-4,cs)
);
},
{
closed = 1;
nodes = (
(280,38,o),
(116,186,o),
(116,392,cs),
(116,632,o),
(342,834,o),
(610,834,cs),
(838,834,o),
(978,706,o),
(978,508,cs),
(978,234,o),
(784,38,o),
(510,38,cs)
);
}
);
width = 1268;
}
);
leftKerningGroup = zero;
rightKerningGroup = six;
unicode = 54;
}
{
glyphname = seven;
layers = (
{
layerId = "6A7A32D0-3BFD-43C1-930A-C854163D3177";
shapes = (
{
closed = 1;
nodes = (
(115,1046,l),
(523,1046,l),
(562,1250,l),
(322,1046,l),
(966,1046,l),
(882,1234,l),
(98,0,l),
(588,0,l),
(1282,1094,l),
(1342,1402,l),
(184,1402,l)
);
}
);
width = 1268;
},
{
layerId = "A3BFC84F-57DC-4376-84A1-AB8B7A21073A";
shapes = (
{
closed = 1;
nodes = (
(198,1200,l),
(408,1200,l),
(430,1302,l),
(304,1200,l),
(1104,1200,l),
(1062,1292,l),
(188,0,l),
(438,0,l),
(1268,1230,l),
(1300,1400,l),
(234,1400,l)
);
}
);
width = 1268;
},
{
layerId = "CC7E1963-6536-4D59-9993-97487CDAFD05";
shapes = (
{
closed = 1;
nodes = (
(260,1358,l),
(300,1358,l),
(306,1376,l),
(284,1358,l),
(1230,1358,l),
(1224,1374,l),
(256,0,l),
(300,0,l),
(1246,1348,l),
(1256,1398,l),
(270,1398,l)
);
}
);
width = 1268;
}
);
leftKerningGroup = seven;
rightKerningGroup = seven;
unicode = 55;
}
{
glyphname = eight;
layers = (
{
layerId = "FCBE0D3F-305A-4B26-ABA3-05651CFDD837";
shapes = (
{
closed = 1;
nodes = (
(414,1422,o),
(170,1246,o),
(170,1000,cs),
(170,908,o),
(210,810,o),
(280,750,c),
(100,670,o),
(-34,504,o),
(-34,330,cs),
(-34,120,o),
(160,-20,o),
(480,-20,cs),
(876,-20,o),
(1156,174,o),
(1156,456,cs),
(1156,576,o),
(1100,692,o),
(1004,750,c),
(1120,826,o),
(1206,956,o),
(1206,1090,cs),
(1206,1292,o),
(1038,1422,o),
(758,1422,cs)
);
},
{
closed = 1;
nodes = (
(682,568,o),
(728,530,o),
(728,464,cs),
(728,366,o),
(664,310,o),
(544,310,cs),
(458,310,o),
(414,346,o),
(414,410,cs),
(414,508,o),
(476,568,o),
(596,568,cs)
);
},
{
closed = 1;
nodes = (
(776,1122,o),
(812,1090,o),
(812,1032,cs),
(812,946,o),
(760,898,o),
(658,898,cs),
(586,898,o),
(548,926,o),
(548,984,cs),
(548,1068,o),
(602,1122,o),
(702,1122,cs)
);
}
);
width = 1268;
},
{
layerId = "5BDD1EDE-DE70-4338-9338-A02B2C6AE01A";
shapes = (
{
closed = 1;
nodes = (
(434,1410,o),
(214,1246,o),
(214,1004,cs),
(214,892,o),
(274,798,o),
(378,748,c),
(162,680,o),
(16,528,o),
(16,326,cs),
(16,118,o),
(188,-10,o),
(480,-10,cs),
(848,-10,o),
(1100,174,o),
(1100,452,cs),
(1100,590,o),
(1020,698,o),
(888,748,c),
(1048,814,o),
(1158,942,o),
(1158,1108,cs),
(1158,1294,o),
(1010,1410,o),
(754,1410,cs)
);
},
{
closed = 1;
nodes = (
(782,650,o),
(878,574,o),
(878,450,cs),
(878,276,o),
(738,166,o),
(514,166,cs),
(340,166,o),
(244,240,o),
(244,368,cs),
(244,542,o),
(384,650,o),
(606,650,cs)
);
},
{
closed = 1;
nodes = (
(872,1248,o),
(952,1184,o),
(952,1074,cs),
(952,922,o),
(836,824,o),
(642,824,cs),
(494,824,o),
(412,888,o),
(412,998,cs),
(412,1152,o),
(532,1248,o),
(724,1248,cs)
);
}
);
width = 1268;
},
{
layerId = "A3D6E1CA-B1BA-4595-96B0-7801BFB529A2";
shapes = (
{
closed = 1;
nodes = (
(446,1402,o),
(248,1252,o),
(248,1012,cs),
(248,884,o),
(324,794,o),
(456,752,c),
(208,696,o),
(50,548,o),
(50,320,cs),
(50,116,o),
(204,-4,o),
(472,-4,cs),
(816,-4,o),
(1044,174,o),
(1044,452,cs),
(1044,604,o),
(946,710,o),
(778,752,c),
(986,812,o),
(1110,936,o),
(1110,1128,cs),
(1110,1300,o),
(976,1402,o),
(744,1402,cs)
);
},
{
closed = 1;
nodes = (
(860,726,o),
(1002,616,o),
(1002,444,cs),
(1002,198,o),
(792,36,o),
(478,36,cs),
(232,36,o),
(90,148,o),
(90,332,cs),
(90,572,o),
(302,726,o),
(612,726,cs)
);
},
{
closed = 1;
nodes = (
(948,1362,o),
(1068,1268,o),
(1068,1116,cs),
(1068,904,o),
(892,766,o),
(620,766,cs),
(410,766,o),
(290,862,o),
(290,1016,cs),
(290,1226,o),
(468,1362,o),
(736,1362,cs)
);
}
);
width = 1268;
}
);
leftKerningGroup = eight;
rightKerningGroup = eight;
unicode = 56;
}
{
glyphname = nine;
layers = (
{
layerId = "6A7A32D0-3BFD-43C1-930A-C854163D3177";
shapes = (
{
closed = 1;
nodes = (
(-78,104,l),
(28,28,o),
(200,-20,o),
(364,-20,cs),
(840,-20,o),
(1192,358,o),
(1192,880,cs),
(1192,1212,o),
(1014,1422,o),
(694,1422,cs),
(328,1422,o),
(56,1186,o),
(56,840,cs),
(56,618,o),
(190,468,o),
(416,468,cs),
(550,468,o),
(652,518,o),
(726,584,c),
(692,412,o),
(584,320,o),
(404,320,cs),
(298,320,o),
(212,350,o),
(150,412,c)
);
},
{
closed = 1;
nodes = (
(720,1072,o),
(758,1032,o),
(758,964,cs),
(758,860,o),
(698,790,o),
(584,790,cs),
(508,790,o),
(472,828,o),
(472,896,cs),
(472,1004,o),
(528,1072,o),
(640,1072,cs)
);
}
);
width = 1268;
},
{
layerId = "A3BFC84F-57DC-4376-84A1-AB8B7A21073A";
shapes = (
{
closed = 1;
nodes = (
(-24,96,l),
(78,32,o),
(234,-10,o),
(372,-10,cs),
(814,-10,o),
(1138,380,o),
(1138,896,cs),
(1138,1218,o),
(974,1410,o),
(682,1410,cs),
(340,1410,o),
(90,1184,o),
(90,852,cs),
(90,636,o),
(224,496,o),
(462,496,cs),
(638,496,o),
(782,566,o),
(882,702,c),
(830,388,o),
(662,176,o),
(392,176,cs),
(286,176,o),
(176,208,o),
(102,264,c)
);
},
{
closed = 1;
nodes = (
(858,1218,o),
(918,1074,o),
(892,950,c),
(866,802,o),
(730,672,o),
(540,672,cs),
(396,672,o),
(314,756,o),
(314,886,cs),
(314,1086,o),
(462,1218,o),
(656,1218,cs)
);
}
);
width = 1268;
},
{
layerId = "CC7E1963-6536-4D59-9993-97487CDAFD05";
shapes = (
{
closed = 1;
nodes = (
(70,104,l),
(188,36,o),
(334,-4,o),
(456,-4,cs),
(822,-4,o),
(1110,398,o),
(1110,908,cs),
(1110,1226,o),
(948,1402,o),
(652,1402,cs),
(358,1402,o),
(150,1190,o),
(150,886,cs),
(150,662,o),
(304,524,o),
(564,524,cs),
(804,524,o),
(992,658,o),
(1072,880,c),
(1026,354,o),
(794,36,o),
(452,36,cs),
(334,36,o),
(198,76,o),
(96,140,c)
);
},
{
closed = 1;
nodes = (
(890,1360,o),
(1054,1212,o),
(1054,1006,cs),
(1054,766,o),
(828,564,o),
(560,564,cs),
(332,564,o),
(192,692,o),
(192,890,cs),
(192,1164,o),
(386,1360,o),
(660,1360,cs)
);
}
);
width = 1268;
}
);
leftKerningGroup = nine;
rightKerningGroup = zero;
unicode = 57;
}
{
glyphname = less;
layers = (
{
layerId = "A09E50E2-67FC-4045-B7D7-901372DB4BBE";
shapes = (
{
closed = 1;
nodes = (
(113,824,l),
(47,468,l),
(893,98,l),
(947,388,l),
(365,634,l),
(1045,860,l),
(1107,1194,l)
);
}
);
width = 1040;
},
{
layerId = "6D930887-645F-4E17-BAB2-3A566A02CAA9";
shapes = (
{
closed = 1;
nodes = (
(114,748,l),
(78,556,l),
(858,184,l),
(890,344,l),
(248,644,l),
(1010,942,l),
(1042,1118,l)
);
}
);
width = 996;
},
{
layerId = "9B3D3104-3922-4F2D-8412-46D902A9971C";
shapes = (
{
closed = 1;
nodes = (
(112,682,l),
(102,630,l),
(828,258,l),
(836,300,l),
(146,654,l),
(978,1008,l),
(986,1054,l)
);
}
);
width = 960;
}
);
leftKerningGroup = less;
rightKerningGroup = less;
unicode = 60;
}
{
glyphname = equal;
layers = (
{
layerId = "9043404F-E9C5-4B3E-B15A-843443318E3E";
shapes = (
{
closed = 1;
nodes = (
(154,1018,l),
(98,738,l),
(1018,738,l),
(1074,1018,l)
);
},
{
closed = 1;
nodes = (
(66,578,l),
(10,298,l),
(930,298,l),
(986,578,l)
);
}
);
width = 1040;
},
{
layerId = "E14B12F3-6DA5-4EC4-9B8C-3BC58519F69C";
shapes = (
{
closed = 1;
nodes = (
(151,932,l),
(121,782,l),
(977,782,l),
(1007,932,l)
);
},
{
closed = 1;
nodes = (
(67,514,l),
(37,364,l),
(893,364,l),
(923,514,l)
);
}
);
width = 996;
},
{
layerId = "3412EF41-8D40-4AD8-A3E8-23555CC779E5";
shapes = (
{
closed = 1;
nodes = (
(148,860,l),
(140,820,l),
(940,820,l),
(948,860,l)
);
},
{
closed = 1;
nodes = (
(68,460,l),
(60,420,l),
(860,420,l),
(868,460,l)
);
}
);
width = 960;
}
);
leftKerningGroup = equal;
rightKerningGroup = equal;
unicode = 61;
}
{
glyphname = greater;
layers = (
{
layerId = "FCBE0D3F-305A-4B26-ABA3-05651CFDD837";
shapes = (
{
closed = 1;
nodes = (
(927,468,l),
(993,824,l),
(147,1194,l),
(93,904,l),
(675,658,l),
(-5,432,l),
(-67,98,l)
);
}
);
width = 1040;
},
{
layerId = "5BDD1EDE-DE70-4338-9338-A02B2C6AE01A";
shapes = (
{
closed = 1;
nodes = (
(882,554,l),
(918,746,l),
(138,1118,l),
(106,958,l),
(748,658,l),
(-14,360,l),
(-46,184,l)
);
}
);
width = 996;
},
{
layerId = "A3D6E1CA-B1BA-4595-96B0-7801BFB529A2";
shapes = (
{
closed = 1;
nodes = (
(848,630,l),
(858,682,l),
(132,1054,l),
(124,1012,l),
(814,658,l),
(-18,304,l),
(-26,258,l)
);
}
);
width = 960;
}
);
leftKerningGroup = greater;
rightKerningGroup = greater;
unicode = 62;
}
{
glyphname = question;
layers = (
{
layerId = "288DB91C-ADA9-4EAE-B002-103CECDA4F2F";
shapes = (
{
closed = 1;
nodes = (
(792,542,l),
(791,549,o),
(790,559,o),
(790,564,cs),
(790,696,o),
(1220,676,o),
(1220,1063,cs),
(1220,1351,o),
(859,1432,o),
(632,1432,cs),
(402,1432,o),
(193,1350,o),
(50,1165,c),
(371,954,l),
(421,1021,o),
(501,1070,o),
(587,1070,cs),
(641,1070,o),
(725,1047,o),
(725,979,cs),
(725,811,o),
(376,837,o),
(376,576,cs),
(376,559,o),
(378,542,o),
(380,526,c)
);
},
{
closed = 1;
nodes = (
(700,-20,o),
(839,86,o),
(839,240,cs),
(839,384,o),
(711,456,o),
(580,456,cs),
(435,456,o),
(300,354,o),
(300,200,cs),
(300,60,o),
(424,-20,o),
(554,-20,cs)
);
}
);
width = 1212;
},
{
layerId = "DF367E9D-3B3B-43F4-BC7A-7EE40495C523";
shapes = (
{
closed = 1;
nodes = (
(567,442,l),
(564,461,o),
(560,481,o),
(560,501,cs),
(560,727,o),
(1108,664,o),
(1108,1079,cs),
(1108,1346,o),
(804,1424,o),
(590,1424,cs),
(407,1424,o),
(233,1366,o),
(99,1239,c),
(246,1103,l),
(335,1188,o),
(446,1229,o),
(568,1229,cs),
(690,1229,o),
(864,1186,o),
(864,1033,cs),
(864,784,o),
(335,852,o),
(335,521,cs),
(335,486,o),
(342,450,o),
(351,416,c)
);
},
{
closed = 1;
nodes = (
(532,-12,o),
(605,58,o),
(605,146,cs),
(605,223,o),
(543,272,o),
(470,272,cs),
(383,272,o),
(310,201,o),
(310,115,cs),
(310,38,o),
(371,-12,o),
(445,-12,cs)
);
}
);
width = 1154;
},
{
layerId = "FADC2794-F71C-487D-BA21-AA7BC8CC963C";
shapes = (
{
closed = 1;
nodes = (
(425,388,l),
(420,406,o),
(417,425,o),
(417,443,cs),
(417,723,o),
(1065,635,o),
(1065,1091,cs),
(1065,1333,o),
(802,1406,o),
(604,1406,cs),
(454,1406,o),
(311,1364,o),
(195,1268,c),
(217,1237,l),
(327,1328,o),
(455,1368,o),
(598,1368,cs),
(775,1368,o),
(1023,1310,o),
(1023,1088,cs),
(1023,659,o),
(378,761,o),
(378,447,cs),
(378,423,o),
(382,400,o),
(388,377,c)
);
},
{
closed = 1;
nodes = (
(422,10,o),
(449,36,o),
(449,67,cs),
(449,92,o),
(425,112,o),
(401,112,cs),
(370,112,o),
(343,86,o),
(343,55,cs),
(343,29,o),
(366,10,o),
(391,10,cs)
);
}
);
width = 1108;
}
);
leftKerningGroup = question;
rightKerningGroup = question;
unicode = 63;
}
{
glyphname = at;
layers = (
{
layerId = "A09E50E2-67FC-4045-B7D7-901372DB4BBE";
shapes = (
{
closed = 1;
nodes = (
(486,1396,o),
(20,964,o),
(20,432,cs),
(20,16,o),
(312,-290,o),
(736,-290,cs),
(892,-290,o),
(1100,-232,o),
(1228,-138,c),
(1150,34,l),
(1026,-54,o),
(876,-92,o),
(764,-92,cs),
(452,-92,o),
(238,142,o),
(238,456,cs),
(238,858,o),
(590,1198,o),
(970,1198,cs),
(1316,1198,o),
(1496,956,o),
(1496,644,cs),
(1496,402,o),
(1382,244,o),
(1300,244,cs),
(1264,244,o),
(1242,264,o),
(1252,332,cs),
(1344,982,l),
(1074,982,l),
(1062,900,l),
(1062,900,o),
(992,1006,o),
(848,1006,cs),
(584,1006,o),
(392,752,o),
(392,482,cs),
(392,242,o),
(558,86,o),
(748,86,cs),
(840,86,o),
(944,124,o),
(1032,228,c),
(1034,214,ls),
(1048,110,o),
(1130,66,o),
(1250,66,cs),
(1500,66,o),
(1710,300,o),
(1710,662,cs),
(1710,1086,o),
(1422,1396,o),
(998,1396,cs)
);
},
{
closed = 1;
nodes = (
(954,758,o),
(998,682,o),
(998,588,cs),
(998,456,o),
(926,328,o),
(810,328,cs),
(732,328,o),
(692,412,o),
(692,510,cs),
(692,640,o),
(768,758,o),
(868,758,cs)
);
}
);
width = 1730;
},
{
layerId = "6D930887-645F-4E17-BAB2-3A566A02CAA9";
shapes = (
{
closed = 1;
nodes = (
(548,1404,o),
(60,974,o),
(60,434,cs),
(60,6,o),
(378,-308,o),
(842,-308,cs),
(994,-308,o),
(1200,-254,o),
(1330,-170,c),
(1268,-26,l),
(1144,-106,o),
(984,-144,o),
(866,-144,cs),
(492,-144,o),
(234,106,o),
(234,452,cs),
(234,890,o),
(636,1246,o),
(1086,1246,cs),
(1488,1246,o),
(1718,982,o),
(1718,632,cs),
(1718,370,o),
(1586,186,o),
(1472,186,cs),
(1418,186,o),
(1384,218,o),
(1396,296,cs),
(1494,996,l),
(1278,996,l),
(1260,864,l),
(1246,908,o),
(1140,1016,o),
(964,1016,cs),
(670,1016,o),
(452,766,o),
(452,478,cs),
(452,234,o),
(630,68,o),
(854,68,cs),
(992,68,o),
(1124,128,o),
(1222,250,c),
(1220,208,l),
(1228,96,o),
(1308,44,o),
(1430,44,cs),
(1686,44,o),
(1892,286,o),
(1892,652,cs),
(1892,1090,o),
(1576,1404,o),
(1108,1404,cs)
);
},
{
closed = 1;
nodes = (
(1120,820,o),
(1204,716,o),
(1204,584,cs),
(1204,412,o),
(1080,262,o),
(904,262,cs),
(768,262,o),
(690,372,o),
(690,508,cs),
(690,678,o),
(816,820,o),
(978,820,cs)
);
}
);
width = 1948;
},
{
layerId = "9B3D3104-3922-4F2D-8412-46D902A9971C";
shapes = (
{
closed = 1;
nodes = (
(562,1442,o),
(92,972,o),
(92,388,cs),
(92,-54,o),
(406,-356,o),
(868,-356,cs),
(990,-356,o),
(1152,-318,o),
(1252,-264,c),
(1240,-228,l),
(1140,-278,o),
(982,-316,o),
(870,-316,cs),
(430,-316,o),
(132,-30,o),
(132,390,cs),
(132,946,o),
(586,1402,o),
(1142,1402,cs),
(1586,1402,o),
(1884,1104,o),
(1884,664,cs),
(1884,318,o),
(1722,8,o),
(1542,8,cs),
(1450,8,o),
(1404,78,o),
(1420,190,cs),
(1540,1050,l),
(1500,1050,l),
(1456,744,l),
(1406,936,o),
(1244,1054,o),
(1032,1054,cs),
(708,1054,o),
(450,784,o),
(450,448,cs),
(450,190,o),
(628,12,o),
(890,12,cs),
(1102,12,o),
(1294,128,o),
(1396,318,c),
(1380,186,ls),
(1364,54,o),
(1426,-32,o),
(1536,-32,cs),
(1748,-32,o),
(1922,284,o),
(1922,668,cs),
(1922,1128,o),
(1606,1442,o),
(1142,1442,cs)
);
},
{
closed = 1;
nodes = (
(1270,1014,o),
(1434,852,o),
(1434,612,cs),
(1434,304,o),
(1190,52,o),
(892,52,cs),
(650,52,o),
(488,214,o),
(488,452,cs),
(488,760,o),
(734,1014,o),
(1030,1014,cs)
);
}
);
width = 2012;
}
);
leftKerningGroup = O;
rightKerningGroup = O;
unicode = 64;
}
{
glyphname = A;
layers = (
{
anchors = (
{
name = bottom;
position = "{662, 0}";
},
{
name = ogonek;
position = "{1338, 0}";
},
{
name = top;
position = "{904, 1400}";
}
);
layerId = "9043404F-E9C5-4B3E-B15A-843443318E3E";
shapes = (
{
closed = 1;
nodes = (
(692,1400,l),
(-130,0,l),
(342,0,l),
(936,1116,l),
(804,1138,l),
(1008,0,l),
(1506,0,l),
(1168,1400,l)
);
},
{
closed = 1;
nodes = (
(350,530,l),
(296,198,l),
(1110,198,l),
(1164,530,l)
);
}
);
width = 1596;
},
{
anchors = (
{
name = bottom;
position = "{664, 0}";
},
{
name = ogonek;
position = "{1368, 0}";
},
{
name = top;
position = "{862, 1400}";
}
);
layerId = "E14B12F3-6DA5-4EC4-9B8C-3BC58519F69C";
shapes = (
{
closed = 1;
nodes = (
(744,1400,l),
(-104,0,l),
(140,0,l),
(870,1252,l),
(792,1262,l),
(1116,0,l),
(1368,0,l),
(986,1400,l)
);
},
{
closed = 1;
nodes = (
(292,524,l),
(258,324,l),
(1094,324,l),
(1130,524,l)
);
}
);
width = 1476;
},
{
anchors = (
{
name = bottom;
position = "{584, 0}";
},
{
name = ogonek;
position = "{1250, 0}";
},
{
name = top;
position = "{816, 1400}";
}
);
layerId = "3412EF41-8D40-4AD8-A3E8-23555CC779E5";
shapes = (
{
closed = 1;
nodes = (
(790,1400,l),
(-84,0,l),
(-36,0,l),
(814,1370,l),
(798,1372,l),
(1204,0,l),
(1250,0,l),
(834,1400,l)
);
},
{
closed = 1;
nodes = (
(224,466,l),
(218,426,l),
(1088,426,l),
(1094,466,l)
);
}
);
width = 1374;
}
);
leftKerningGroup = A;
rightKerningGroup = A;
unicode = 65;
}
{
glyphname = B;
layers = (
{
anchors = (
{
name = top;
position = "{843, 1400}";
}
);
layerId = "9043404F-E9C5-4B3E-B15A-843443318E3E";
shapes = (
{
closed = 1;
nodes = (
(269,1400,l),
(-11,0,l),
(731,0,ls),
(1111,0,o),
(1381,182,o),
(1381,458,cs),
(1381,600,o),
(1303,714,o),
(1167,746,c),
(1343,796,o),
(1469,936,o),
(1469,1094,cs),
(1469,1278,o),
(1283,1400,o),
(977,1400,cs)
);
},
{
closed = 1;
nodes = (
(701,1258,l),
(461,1060,l),
(883,1060,ls),
(939,1060,o),
(971,1030,o),
(971,980,cs),
(971,910,o),
(917,860,o),
(843,860,cs),
(591,860,l),
(529,554,l),
(781,554,ls),
(859,554,o),
(905,520,o),
(905,468,cs),
(905,394,o),
(835,340,o),
(739,340,cs),
(317,340,l),
(481,142,l)
);
}
);
width = 1446;
},
{
anchors = (
{
name = top;
position = "{796, 1400}";
}
);
layerId = "E14B12F3-6DA5-4EC4-9B8C-3BC58519F69C";
shapes = (
{
closed = 1;
nodes = (
(356,1400,l),
(76,0,l),
(698,0,ls),
(1056,0,o),
(1294,174,o),
(1294,452,cs),
(1294,602,o),
(1208,710,o),
(1054,738,c),
(1244,780,o),
(1370,926,o),
(1370,1108,cs),
(1370,1290,o),
(1222,1400,o),
(964,1400,cs)
);
},
{
closed = 1;
nodes = (
(570,1300,l),
(446,1198,l),
(912,1198,ls),
(1044,1198,o),
(1118,1144,o),
(1118,1046,cs),
(1118,906,o),
(1008,818,o),
(836,818,cs),
(442,818,l),
(402,616,l),
(796,616,ls),
(960,616,o),
(1052,552,o),
(1052,444,cs),
(1052,292,o),
(922,202,o),
(712,202,cs),
(248,202,l),
(332,100,l)
);
}
);
width = 1412;
},
{
anchors = (
{
name = top;
position = "{856, 1400}";
}
);
layerId = "3412EF41-8D40-4AD8-A3E8-23555CC779E5";
shapes = (
{
closed = 1;
nodes = (
(430,1400,l),
(150,0,l),
(714,0,ls),
(1078,0,o),
(1298,168,o),
(1298,440,cs),
(1298,598,o),
(1196,708,o),
(1010,730,c),
(1226,766,o),
(1358,916,o),
(1358,1120,cs),
(1358,1296,o),
(1228,1400,o),
(994,1400,cs)
);
},
{
closed = 1;
nodes = (
(466,1378,l),
(444,1360,l),
(986,1360,ls),
(1200,1360,o),
(1318,1268,o),
(1318,1110,cs),
(1318,886,o),
(1146,746,o),
(862,746,cs),
(328,746,l),
(322,708,l),
(856,708,ls),
(1116,708,o),
(1258,606,o),
(1258,432,cs),
(1258,190,o),
(1058,40,o),
(722,40,cs),
(180,40,l),
(194,22,l)
);
}
);
width = 1464;
}
);
leftKerningGroup = H;
rightKerningGroup = B;
unicode = 66;
}
{
glyphname = C;
layers = (
{
anchors = (
{
name = bottom;
position = "{676, 0}";
},
{
name = top;
position = "{874, 1400}";
}
);
layerId = "6A7A32D0-3BFD-43C1-930A-C854163D3177";
shapes = (
{
closed = 1;
nodes = (
(408,1430,o),
(40,1092,o),
(40,634,cs),
(40,248,o),
(310,-32,o),
(710,-32,cs),
(926,-32,o),
(1176,80,o),
(1348,252,c),
(1110,538,l),
(1008,438,o),
(874,374,o),
(774,374,cs),
(622,374,o),
(518,502,o),
(518,674,cs),
(518,886,o),
(662,1044,o),
(842,1044,cs),
(950,1044,o),
(1068,968,o),
(1140,852,c),
(1442,1170,l),
(1312,1328,o),
(1090,1430,o),
(876,1430,cs)
);
}
);
width = 1374;
},
{
anchors = (
{
name = bottom;
position = "{709, 0}";
},
{
name = top;
position = "{829, 1400}";
}
);
layerId = "A3BFC84F-57DC-4376-84A1-AB8B7A21073A";
shapes = (
{
closed = 1;
nodes = (
(451,1414,o),
(79,1072,o),
(79,642,cs),
(79,270,o),
(355,-16,o),
(739,-16,cs),
(937,-16,o),
(1147,74,o),
(1305,214,c),
(1179,360,l),
(1063,256,o),
(913,192,o),
(773,192,cs),
(511,192,o),
(321,398,o),
(321,660,cs),
(321,968,o),
(575,1216,o),
(875,1216,cs),
(1017,1216,o),
(1153,1148,o),
(1245,1036,c),
(1401,1198,l),
(1279,1332,o),
(1089,1414,o),
(891,1414,cs)
);
}
);
width = 1394;
},
{
anchors = (
{
name = bottom;
position = "{707, 0}";
},
{
name = top;
position = "{891, 1400}";
}
);
layerId = "CC7E1963-6536-4D59-9993-97487CDAFD05";
shapes = (
{
closed = 1;
nodes = (
(507,1408,o),
(153,1092,o),
(115,706,cs),
(77,314,o),
(367,-6,o),
(765,-6,cs),
(947,-6,o),
(1123,64,o),
(1263,178,c),
(1237,204,l),
(1107,96,o),
(941,32,o),
(765,32,cs),
(391,32,o),
(117,332,o),
(153,702,cs),
(189,1072,o),
(523,1370,o),
(901,1370,cs),
(1073,1370,o),
(1227,1308,o),
(1337,1200,c),
(1365,1226,l),
(1249,1340,o),
(1087,1408,o),
(901,1408,cs)
);
}
);
width = 1412;
}
);
leftKerningGroup = O;
rightKerningGroup = C;
unicode = 67;
}
{
glyphname = D;
layers = (
{
anchors = (
{
name = bottom;
position = "{590, 0}";
},
{
name = top;
position = "{848, 1400}";
}
);
layerId = "D4E38000-BFB5-44FC-A51C-4288F8544A0D";
shapes = (
{
closed = 1;
nodes = (
(268,1400,l),
(-10,0,l),
(630,0,ls),
(1136,0,o),
(1500,306,o),
(1524,770,cs),
(1544,1154,o),
(1290,1400,o),
(860,1400,cs)
);
},
{
closed = 1;
nodes = (
(794,1040,ls),
(960,1040,o),
(1056,920,o),
(1046,738,cs),
(1034,512,o),
(898,360,o),
(714,360,cs),
(324,360,l),
(486,162,l),
(698,1238,l),
(458,1040,l)
);
}
);
width = 1516;
},
{
anchors = (
{
name = bottom;
position = "{630, 0}";
},
{
name = top;
position = "{870, 1400}";
}
);
layerId = "196BCA4D-4EBA-41D5-BBFD-A0C7C55F9EA0";
shapes = (
{
closed = 1;
nodes = (
(356,1400,l),
(78,0,l),
(678,0,ls),
(1130,0,o),
(1500,328,o),
(1522,764,cs),
(1542,1132,o),
(1290,1400,o),
(898,1400,cs)
);
},
{
closed = 1;
nodes = (
(864,1198,ls),
(1120,1198,o),
(1296,1010,o),
(1282,744,cs),
(1266,430,o),
(1012,202,o),
(722,202,cs),
(250,202,l),
(334,100,l),
(572,1300,l),
(448,1198,l)
);
}
);
width = 1550;
},
{
anchors = (
{
name = bottom;
position = "{689, 0}";
},
{
name = top;
position = "{949, 1400}";
}
);
layerId = "FAA95C36-2A9A-4A6A-AE16-672F8292957B";
shapes = (
{
closed = 1;
nodes = (
(431,1400,l),
(153,0,l),
(739,0,ls),
(1133,0,o),
(1501,314,o),
(1559,698,cs),
(1619,1086,o),
(1343,1400,o),
(949,1400,cs)
);
},
{
closed = 1;
nodes = (
(943,1360,ls),
(1315,1360,o),
(1575,1064,o),
(1521,702,cs),
(1465,336,o),
(1117,40,o),
(745,40,cs),
(183,40,l),
(197,22,l),
(467,1378,l),
(445,1360,l)
);
}
);
width = 1624;
}
);
leftKerningGroup = H;
rightKerningGroup = O;
unicode = 68;
}
{
glyphname = E;
layers = (
{
anchors = (
{
name = bottom;
position = "{620, 0}";
},
{
name = ogonek;
position = "{1057, 0}";
},
{
name = top;
position = "{862, 1400}";
},
{
name = topleft;
position = "{210, 1400}";
}
);
layerId = "A09E50E2-67FC-4045-B7D7-901372DB4BBE";
shapes = (
{
closed = 1;
nodes = (
(528,526,l),
(1214,526,l),
(1284,876,l),
(598,876,l)
);
},
{
closed = 1;
nodes = (
(702,1246,l),
(462,1048,l),
(1384,1048,l),
(1454,1400,l),
(270,1400,l),
(-10,0,l),
(1192,0,l),
(1262,352,l),
(322,352,l),
(482,154,l)
);
}
);
width = 1378;
},
{
anchors = (
{
name = bottom;
position = "{630, 0}";
},
{
name = ogonek;
position = "{1102, 0}";
},
{
name = top;
position = "{810, 1400}";
},
{
name = topleft;
position = "{214, 1400}";
}
);
layerId = "6D930887-645F-4E17-BAB2-3A566A02CAA9";
shapes = (
{
closed = 1;
nodes = (
(402,604,l),
(1118,604,l),
(1160,804,l),
(442,804,l)
);
},
{
closed = 1;
nodes = (
(572,1300,l),
(448,1198,l),
(1316,1198,l),
(1356,1400,l),
(358,1400,l),
(78,0,l),
(1102,0,l),
(1142,202,l),
(250,202,l),
(334,100,l)
);
}
);
width = 1312;
},
{
anchors = (
{
name = bottom;
position = "{662, 0}";
},
{
name = ogonek;
position = "{1056, 0}";
},
{
name = top;
position = "{882, 1400}";
},
{
name = topleft;
position = "{216, 1400}";
}
);
layerId = "9B3D3104-3922-4F2D-8412-46D902A9971C";
shapes = (
{
closed = 1;
nodes = (
(322,702,l),
(1076,702,l),
(1084,742,l),
(330,742,l)
);
},
{
closed = 1;
nodes = (
(468,1378,l),
(446,1360,l),
(1300,1360,l),
(1308,1400,l),
(432,1400,l),
(152,0,l),
(1056,0,l),
(1064,40,l),
(182,40,l),
(196,22,l)
);
}
);
width = 1290;
}
);
leftKerningGroup = H;
rightKerningGroup = E;
unicode = 69;
}
{
glyphname = F;
layers = (
{
layerId = "D4E38000-BFB5-44FC-A51C-4288F8544A0D";
shapes = (
{
closed = 1;
nodes = (
(514,456,l),
(1166,456,l),
(1236,806,l),
(584,806,l)
);
},
{
closed = 1;
nodes = (
(702,1246,l),
(462,1048,l),
(1326,1048,l),
(1396,1400,l),
(270,1400,l),
(-10,0,l),
(454,0,l)
);
}
);
width = 1260;
},
{
layerId = "196BCA4D-4EBA-41D5-BBFD-A0C7C55F9EA0";
shapes = (
{
closed = 1;
nodes = (
(399,582,l),
(1067,582,l),
(1107,782,l),
(439,782,l)
);
},
{
closed = 1;
nodes = (
(573,1300,l),
(449,1198,l),
(1255,1198,l),
(1297,1400,l),
(359,1400,l),
(79,0,l),
(315,0,l)
);
}
);
width = 1150;
},
{
layerId = "FAA95C36-2A9A-4A6A-AE16-672F8292957B";
shapes = (
{
closed = 1;
nodes = (
(312,648,l),
(1006,648,l),
(1014,688,l),
(320,688,l)
);
},
{
closed = 1;
nodes = (
(468,1378,l),
(446,1360,l),
(1240,1360,l),
(1248,1400,l),
(432,1400,l),
(152,0,l),
(192,0,l)
);
}
);
width = 1092;
}
);
leftKerningGroup = H;
rightKerningGroup = F;
unicode = 70;
}
{
glyphname = G;
layers = (
{
anchors = (
{
name = bottom;
position = "{794, 0}";
},
{
name = top;
position = "{900, 1402}";
}
);
layerId = "9043404F-E9C5-4B3E-B15A-843443318E3E";
shapes = (
{
closed = 1;
nodes = (
(946,152,l),
(1354,152,l),
(1488,832,l),
(808,832,l),
(746,512,l),
(1018,512,l)
);
},
{
closed = 1;
nodes = (
(440,1432,o),
(60,1092,o),
(60,634,cs),
(60,248,o),
(338,-32,o),
(750,-32,cs),
(950,-32,o),
(1188,46,o),
(1354,152,c),
(1158,478,l),
(1050,406,o),
(902,354,o),
(820,354,cs),
(654,354,o),
(538,486,o),
(538,668,cs),
(538,882,o),
(694,1046,o),
(886,1046,cs),
(1002,1046,o),
(1132,986,o),
(1218,894,c),
(1512,1212,l),
(1374,1346,o),
(1146,1432,o),
(928,1432,cs)
);
}
);
width = 1476;
},
{
anchors = (
{
name = bottom;
position = "{771, 0}";
},
{
name = top;
position = "{893, 1400}";
}
);
layerId = "E14B12F3-6DA5-4EC4-9B8C-3BC58519F69C";
shapes = (
{
closed = 1;
nodes = (
(1073,168,l),
(1299,168,l),
(1405,800,l),
(751,800,l),
(715,600,l),
(1145,600,l)
);
},
{
closed = 1;
nodes = (
(469,1414,o),
(93,1072,o),
(93,642,cs),
(93,270,o),
(373,-16,o),
(761,-16,cs),
(953,-16,o),
(1143,58,o),
(1299,168,c),
(1195,332,l),
(1073,240,o),
(929,184,o),
(799,184,cs),
(529,184,o),
(333,390,o),
(333,656,cs),
(333,966,o),
(593,1216,o),
(899,1216,cs),
(1045,1216,o),
(1189,1156,o),
(1285,1054,c),
(1437,1216,l),
(1311,1338,o),
(1119,1414,o),
(919,1414,cs)
);
}
);
width = 1498;
},
{
anchors = (
{
name = bottom;
position = "{755, 0}";
},
{
name = top;
position = "{895, 1398}";
}
);
layerId = "3412EF41-8D40-4AD8-A3E8-23555CC779E5";
shapes = (
{
closed = 1;
nodes = (
(1209,178,l),
(1249,178,l),
(1333,720,l),
(691,720,l),
(683,680,l),
(1287,680,l)
);
},
{
closed = 1;
nodes = (
(519,1406,o),
(165,1090,o),
(127,704,cs),
(89,314,o),
(379,-6,o),
(775,-6,cs),
(957,-6,o),
(1109,64,o),
(1249,178,c),
(1225,204,l),
(1095,96,o),
(951,32,o),
(775,32,cs),
(403,32,o),
(129,332,o),
(165,700,cs),
(201,1070,o),
(535,1368,o),
(911,1368,cs),
(1083,1368,o),
(1237,1306,o),
(1347,1198,c),
(1375,1224,l),
(1259,1338,o),
(1097,1406,o),
(911,1406,cs)
);
}
);
width = 1520;
}
);
leftKerningGroup = O;
rightKerningGroup = G;
unicode = 71;
}
{
glyphname = H;
layers = (
{
anchors = (
{
name = bottom;
position = "{754, 0}";
},
{
name = top;
position = "{874, 1400}";
},
{
name = topleft;
position = "{294, 1400}";
}
);
layerId = "FCBE0D3F-305A-4B26-ABA3-05651CFDD837";
shapes = (
{
closed = 1;
nodes = (
(738,1400,l),
(276,1400,l),
(-4,0,l),
(460,0,l)
);
},
{
closed = 1;
nodes = (
(892,0,l),
(1356,0,l),
(1636,1400,l),
(1172,1400,l)
);
},
{
closed = 1;
nodes = (
(530,506,l),
(1026,506,l),
(1096,856,l),
(598,856,l)
);
}
);
width = 1560;
},
{
anchors = (
{
name = bottom;
position = "{726, 0}";
},
{
name = top;
position = "{1006, 1400}";
},
{
name = topleft;
position = "{254, 1400}";
}
);
layerId = "5BDD1EDE-DE70-4338-9338-A02B2C6AE01A";
shapes = (
{
closed = 1;
nodes = (
(596,1400,l),
(360,1400,l),
(80,0,l),
(316,0,l)
);
},
{
closed = 1;
nodes = (
(1058,0,l),
(1294,0,l),
(1574,1400,l),
(1338,1400,l)
);
},
{
closed = 1;
nodes = (
(400,586,l),
(1206,586,l),
(1246,786,l),
(440,786,l)
);
}
);
width = 1582;
},
{
anchors = (
{
name = bottom;
position = "{818, 0}";
},
{
name = top;
position = "{968, 1400}";
},
{
name = topleft;
position = "{336, 1400}";
}
);
layerId = "A3D6E1CA-B1BA-4595-96B0-7801BFB529A2";
shapes = (
{
closed = 1;
nodes = (
(474,1400,l),
(434,1400,l),
(154,0,l),
(194,0,l)
);
},
{
closed = 1;
nodes = (
(1202,0,l),
(1242,0,l),
(1522,1400,l),
(1482,1400,l)
);
},
{
closed = 1;
nodes = (
(322,688,l),
(1350,688,l),
(1358,728,l),
(330,728,l)
);
}
);
width = 1600;
}
);
leftKerningGroup = H;
rightKerningGroup = H;
unicode = 72;
}
{
glyphname = I;
layers = (
{
anchors = (
{
name = bottom;
position = "{221, 0}";
},
{
name = ogonek;
position = "{325, 0}";
},
{
name = top;
position = "{493, 1400}";
}
);
layerId = "A09E50E2-67FC-4045-B7D7-901372DB4BBE";
shapes = (
{
closed = 1;
nodes = (
(271,1400,l),
(-9,0,l),
(455,0,l),
(733,1400,l)
);
}
);
width = 664;
},
{
anchors = (
{
name = bottom;
position = "{196, 0}";
},
{
name = ogonek;
position = "{314, 0}";
},
{
name = top;
position = "{476, 1400}";
}
);
layerId = "6D930887-645F-4E17-BAB2-3A566A02CAA9";
shapes = (
{
closed = 1;
nodes = (
(358,1400,l),
(78,0,l),
(314,0,l),
(594,1400,l)
);
}
);
width = 604;
},
{
anchors = (
{
name = bottom;
position = "{172, 0}";
},
{
name = ogonek;
position = "{190, 0}";
},
{
name = top;
position = "{452, 1400}";
}
);
layerId = "9B3D3104-3922-4F2D-8412-46D902A9971C";
shapes = (
{
closed = 1;
nodes = (
(430,1400,l),
(150,0,l),
(190,0,l),
(470,1400,l)
);
}
);
width = 552;
}
);
leftKerningGroup = H;
rightKerningGroup = H;
unicode = 73;
}
{
glyphname = J;
layers = (
{
anchors = (
{
name = top;
position = "{751, 1400}";
}
);
layerId = "A09E50E2-67FC-4045-B7D7-901372DB4BBE";
shapes = (
{
closed = 1;
nodes = (
(761,1400,l),
(579,484,ls),
(563,404,o),
(513,366,o),
(449,366,cs),
(379,366,o),
(277,414,o),
(189,524,c),
(-81,224,l),
(29,68,o),
(191,-20,o),
(417,-20,cs),
(737,-20,o),
(979,160,o),
(1041,474,cs),
(1227,1400,l)
);
}
);
width = 1136;
},
{
anchors = (
{
name = top;
position = "{898, 1400}";
}
);
layerId = "6D930887-645F-4E17-BAB2-3A566A02CAA9";
shapes = (
{
closed = 1;
nodes = (
(780,1400,l),
(588,436,ls),
(558,288,o),
(468,208,o),
(342,208,cs),
(246,208,o),
(146,262,o),
(74,362,c),
(-72,190,l),
(6,64,o),
(132,-10,o),
(300,-10,cs),
(570,-10,o),
(768,150,o),
(824,430,cs),
(1018,1400,l)
);
}
);
width = 998;
},
{
anchors = (
{
name = top;
position = "{858, 1400}";
}
);
layerId = "9B3D3104-3922-4F2D-8412-46D902A9971C";
shapes = (
{
closed = 1;
nodes = (
(836,1400,l),
(636,394,ls),
(588,164,o),
(454,40,o),
(258,40,cs),
(132,40,o),
(34,104,o),
(-24,224,c),
(-58,196,l),
(4,70,o),
(114,0,o),
(250,0,cs),
(472,0,o),
(622,140,o),
(676,394,cs),
(876,1400,l)
);
}
);
width = 920;
}
);
leftKerningGroup = J;
rightKerningGroup = U;
unicode = 74;
}
{
glyphname = K;
layers = (
{
anchors = (
{
name = bottom;
position = "{638, 0}";
},
{
name = top;
position = "{918, 1400}";
}
);
layerId = "A09E50E2-67FC-4045-B7D7-901372DB4BBE";
shapes = (
{
closed = 1;
nodes = (
(736,1400,l),
(274,1400,l),
(-6,0,l),
(458,0,l)
);
},
{
closed = 1;
nodes = (
(678,524,l),
(892,0,l),
(1430,0,l),
(1046,886,l)
);
},
{
closed = 1;
nodes = (
(494,274,l),
(1696,1400,l),
(1144,1400,l),
(618,872,l)
);
}
);
width = 1544;
},
{
anchors = (
{
name = bottom;
position = "{600, 0}";
},
{
name = top;
position = "{878, 1400}";
}
);
layerId = "6D930887-645F-4E17-BAB2-3A566A02CAA9";
shapes = (
{
closed = 1;
nodes = (
(594,1400,l),
(358,1400,l),
(78,0,l),
(314,0,l)
);
},
{
closed = 1;
nodes = (
(672,646,l),
(1018,0,l),
(1296,0,l),
(860,834,l)
);
},
{
closed = 1;
nodes = (
(352,300,l),
(1550,1400,l),
(1252,1400,l),
(422,638,l)
);
}
);
width = 1436;
},
{
anchors = (
{
name = bottom;
position = "{566, 0}";
},
{
name = top;
position = "{848, 1400}";
}
);
layerId = "9B3D3104-3922-4F2D-8412-46D902A9971C";
shapes = (
{
closed = 1;
nodes = (
(472,1400,l),
(432,1400,l),
(152,0,l),
(192,0,l)
);
},
{
closed = 1;
nodes = (
(670,754,l),
(1130,0,l),
(1178,0,l),
(696,790,l)
);
},
{
closed = 1;
nodes = (
(252,364,l),
(1414,1400,l),
(1354,1400,l),
(268,432,l)
);
}
);
width = 1342;
}
);
leftKerningGroup = H;
rightKerningGroup = K;
unicode = 75;
}
{
glyphname = L;
layers = (
{
anchors = (
{
name = bottom;
position = "{514, 0}";
},
{
name = center;
position = "{952, 798}";
},
{
name = top;
position = "{468, 1400}";
},
{
name = topright;
position = "{928, 1396}";
}
);
layerId = "6A7A32D0-3BFD-43C1-930A-C854163D3177";
shapes = (
{
closed = 1;
nodes = (
(270,1400,l),
(-10,0,l),
(1036,0,l),
(1114,386,l),
(330,386,l),
(492,188,l),
(732,1400,l)
);
}
);
width = 1166;
},
{
anchors = (
{
name = bottom;
position = "{514, 0}";
},
{
name = center;
position = "{836, 780}";
},
{
name = top;
position = "{600, 1400}";
},
{
name = topright;
position = "{810, 1398}";
}
);
layerId = "A3BFC84F-57DC-4376-84A1-AB8B7A21073A";
shapes = (
{
closed = 1;
nodes = (
(358,1400,l),
(78,0,l),
(920,0,l),
(960,202,l),
(250,202,l),
(334,100,l),
(594,1400,l)
);
}
);
width = 1068;
},
{
anchors = (
{
name = bottom;
position = "{492, 0}";
},
{
name = center;
position = "{766, 782}";
},
{
name = top;
position = "{652, 1400}";
},
{
name = topright;
position = "{832, 1400}";
}
);
layerId = "CC7E1963-6536-4D59-9993-97487CDAFD05";
shapes = (
{
closed = 1;
nodes = (
(432,1400,l),
(152,0,l),
(820,0,l),
(828,40,l),
(182,40,l),
(196,22,l),
(472,1400,l)
);
}
);
width = 984;
}
);
leftKerningGroup = H;
rightKerningGroup = L;
unicode = 76;
}
{
glyphname = M;
layers = (
{
anchors = (
{
name = bottom;
position = "{843, 0}";
},
{
name = top;
position = "{1111, 1400}";
}
);
layerId = "288DB91C-ADA9-4EAE-B002-103CECDA4F2F";
shapes = (
{
closed = 1;
nodes = (
(-5,0,l),
(401,0,l),
(589,964,l),
(501,962,l),
(707,136,l),
(1009,136,l),
(1525,936,l),
(1453,964,l),
(1265,0,l),
(1671,0,l),
(1941,1400,l),
(1451,1400,l),
(851,502,l),
(1017,476,l),
(757,1400,l),
(267,1400,l)
);
}
);
width = 1876;
},
{
anchors = (
{
name = bottom;
position = "{864, 0}";
},
{
name = top;
position = "{1134, 1400}";
}
);
layerId = "DF367E9D-3B3B-43F4-BC7A-7EE40495C523";
shapes = (
{
closed = 1;
nodes = (
(86,0,l),
(296,0,l),
(526,1188,l),
(476,1184,l),
(796,146,l),
(938,146,l),
(1652,1170,l),
(1612,1188,l),
(1382,0,l),
(1590,0,l),
(1862,1400,l),
(1598,1400,l),
(864,354,l),
(956,340,l),
(622,1400,l),
(358,1400,l)
);
}
);
width = 1880;
},
{
anchors = (
{
name = bottom;
position = "{843, 0}";
},
{
name = top;
position = "{1113, 1400}";
}
);
layerId = "FADC2794-F71C-487D-BA21-AA7BC8CC963C";
shapes = (
{
closed = 1;
nodes = (
(153,0,l),
(193,0,l),
(461,1380,l),
(451,1380,l),
(861,154,l),
(865,154,l),
(1743,1376,l),
(1737,1380,l),
(1471,0,l),
(1511,0,l),
(1783,1400,l),
(1713,1400,l),
(871,226,l),
(887,222,l),
(495,1400,l),
(425,1400,l)
);
}
);
width = 1870;
}
);
leftKerningGroup = H;
rightKerningGroup = H;
unicode = 77;
}
{
glyphname = N;
layers = (
{
anchors = (
{
name = bottom;
position = "{670, 0}";
},
{
name = top;
position = "{900, 1400}";
}
);
layerId = "9043404F-E9C5-4B3E-B15A-843443318E3E";
shapes = (
{
closed = 1;
nodes = (
(1210,1400,l),
(1026,484,l),
(1166,506,l),
(656,1400,l),
(270,1400,l),
(-10,0,l),
(412,0,l),
(596,912,l),
(456,890,l),
(962,0,l),
(1350,0,l),
(1630,1400,l)
);
}
);
width = 1560;
},
{
anchors = (
{
name = bottom;
position = "{686, 0}";
},
{
name = top;
position = "{966, 1400}";
}
);
layerId = "E14B12F3-6DA5-4EC4-9B8C-3BC58519F69C";
shapes = (
{
closed = 1;
nodes = (
(1340,1400,l),
(1114,272,l),
(1182,282,l),
(590,1400,l),
(358,1400,l),
(78,0,l),
(314,0,l),
(538,1126,l),
(470,1116,l),
(1060,0,l),
(1292,0,l),
(1572,1400,l)
);
}
);
width = 1584;
},
{
anchors = (
{
name = bottom;
position = "{698, 0}";
},
{
name = top;
position = "{978, 1400}";
}
);
layerId = "3412EF41-8D40-4AD8-A3E8-23555CC779E5";
shapes = (
{
closed = 1;
nodes = (
(1480,1400,l),
(1204,22,l),
(1216,24,l),
(492,1400,l),
(432,1400,l),
(152,0,l),
(192,0,l),
(468,1378,l),
(456,1376,l),
(1180,0,l),
(1240,0,l),
(1520,1400,l)
);
}
);
width = 1600;
}
);
leftKerningGroup = H;
rightKerningGroup = H;
unicode = 78;
}
{
glyphname = P;
layers = (
{
layerId = "D4E38000-BFB5-44FC-A51C-4288F8544A0D";
shapes = (
{
closed = 1;
nodes = (
(689,1246,l),
(449,1048,l),
(819,1048,ls),
(903,1048,o),
(949,1002,o),
(949,922,cs),
(949,798,o),
(873,714,o),
(753,714,cs),
(553,714,l),
(481,364,l),
(705,364,ls),
(1135,364,o),
(1399,618,o),
(1399,998,cs),
(1399,1254,o),
(1227,1400,o),
(913,1400,cs),
(257,1400,l),
(-23,0,l),
(441,0,l)
);
}
);
width = 1370;
},
{
layerId = "196BCA4D-4EBA-41D5-BBFD-A0C7C55F9EA0";
shapes = (
{
closed = 1;
nodes = (
(559,1300,l),
(435,1198,l),
(853,1198,ls),
(1039,1198,o),
(1143,1124,o),
(1143,976,cs),
(1143,750,o),
(993,628,o),
(739,628,cs),
(393,628,l),
(353,426,l),
(709,426,ls),
(1121,426,o),
(1373,662,o),
(1373,1018,cs),
(1373,1260,o),
(1207,1400,o),
(903,1400,cs),
(345,1400,l),
(65,0,l),
(301,0,l)
);
}
);
width = 1346;
},
{
layerId = "FAA95C36-2A9A-4A6A-AE16-672F8292957B";
shapes = (
{
closed = 1;
nodes = (
(455,1378,l),
(433,1360,l),
(887,1360,ls),
(1159,1360,o),
(1309,1238,o),
(1309,1026,cs),
(1309,718,o),
(1085,520,o),
(719,520,cs),
(273,520,l),
(265,480,l),
(711,480,ls),
(1109,480,o),
(1349,700,o),
(1349,1036,cs),
(1349,1266,o),
(1189,1400,o),
(895,1400,cs),
(419,1400,l),
(139,0,l),
(179,0,l)
);
}
);
width = 1326;
}
);
leftKerningGroup = H;
rightKerningGroup = P;
unicode = 80;
}
{
glyphname = Q;
layers = (
{
layerId = "9043404F-E9C5-4B3E-B15A-843443318E3E";
shapes = (
{
closed = 1;
nodes = (
(441,1432,o),
(69,1096,o),
(69,636,cs),
(69,248,o),
(351,-32,o),
(769,-32,cs),
(1245,-32,o),
(1617,312,o),
(1617,770,cs),
(1617,1156,o),
(1333,1432,o),
(917,1432,cs)
);
},
{
closed = 1;
nodes = (
(1031,1046,o),
(1139,916,o),
(1139,738,cs),
(1139,520,o),
(987,354,o),
(813,354,cs),
(667,354,o),
(547,488,o),
(547,668,cs),
(547,884,o),
(711,1046,o),
(883,1046,cs)
);
},
{
closed = 1;
nodes = (
(1273,-120,l),
(1545,106,l),
(1003,774,l),
(733,548,l)
);
}
);
width = 1598;
},
{
layerId = "E14B12F3-6DA5-4EC4-9B8C-3BC58519F69C";
shapes = (
{
closed = 1;
nodes = (
(496,1414,o),
(122,1074,o),
(122,642,cs),
(122,270,o),
(404,-16,o),
(796,-16,cs),
(1240,-16,o),
(1614,330,o),
(1614,760,cs),
(1614,1132,o),
(1332,1414,o),
(940,1414,cs)
);
},
{
closed = 1;
nodes = (
(1176,1214,o),
(1370,1010,o),
(1370,744,cs),
(1370,436,o),
(1110,184,o),
(820,184,cs),
(562,184,o),
(362,392,o),
(362,658,cs),
(362,966,o),
(626,1214,o),
(922,1214,cs)
);
},
{
closed = 1;
nodes = (
(1363,-80,l),
(1510,56,l),
(993,639,l),
(848,503,l)
);
}
);
width = 1620;
},
{
layerId = "3412EF41-8D40-4AD8-A3E8-23555CC779E5";
shapes = (
{
closed = 1;
nodes = (
(534,1406,o),
(180,1090,o),
(142,704,cs),
(104,314,o),
(394,-6,o),
(790,-6,cs),
(1182,-6,o),
(1540,314,o),
(1578,698,cs),
(1616,1088,o),
(1322,1406,o),
(926,1406,cs)
);
},
{
closed = 1;
nodes = (
(1296,1366,o),
(1574,1066,o),
(1538,702,cs),
(1502,334,o),
(1164,34,o),
(790,34,cs),
(420,34,o),
(146,334,o),
(182,700,cs),
(218,1068,o),
(552,1366,o),
(926,1366,cs)
);
},
{
closed = 1;
nodes = (
(1420,-20,l),
(1447,8,l),
(951,570,l),
(924,542,l)
);
}
);
width = 1602;
}
);
leftKerningGroup = O;
rightKerningGroup = O;
unicode = 81;
}
{
glyphname = R;
layers = (
{
anchors = (
{
name = bottom;
position = "{622, 0}";
},
{
name = top;
position = "{886, 1400}";
}
);
layerId = "6A7A32D0-3BFD-43C1-930A-C854163D3177";
shapes = (
{
closed = 1;
nodes = (
(668,530,l),
(808,0,l),
(1332,0,l),
(1116,530,l)
);
},
{
closed = 1;
nodes = (
(716,1246,l),
(476,1048,l),
(890,1048,ls),
(974,1048,o),
(1020,1002,o),
(1020,922,cs),
(1020,798,o),
(944,714,o),
(824,714,cs),
(580,714,l),
(508,364,l),
(752,364,ls),
(1198,364,o),
(1470,616,o),
(1470,996,cs),
(1470,1252,o),
(1290,1400,o),
(960,1400,cs),
(284,1400,l),
(4,0,l),
(468,0,l)
);
}
);
width = 1476;
},
{
anchors = (
{
name = bottom;
position = "{614, 0}";
},
{
name = top;
position = "{864, 1400}";
}
);
layerId = "A3BFC84F-57DC-4376-84A1-AB8B7A21073A";
shapes = (
{
closed = 1;
nodes = (
(756,518,l),
(966,0,l),
(1234,0,l),
(990,518,l)
);
},
{
closed = 1;
nodes = (
(572,1300,l),
(448,1198,l),
(886,1198,ls),
(1072,1198,o),
(1176,1124,o),
(1176,976,cs),
(1176,750,o),
(1028,628,o),
(772,628,cs),
(406,628,l),
(366,426,l),
(732,426,ls),
(1152,426,o),
(1406,660,o),
(1406,1016,cs),
(1406,1260,o),
(1236,1400,o),
(926,1400,cs),
(358,1400,l),
(78,0,l),
(314,0,l)
);
}
);
width = 1446;
},
{
anchors = (
{
name = bottom;
position = "{615, 0}";
},
{
name = top;
position = "{857, 1400}";
}
);
layerId = "CC7E1963-6536-4D59-9993-97487CDAFD05";
shapes = (
{
closed = 1;
nodes = (
(841,508,l),
(1109,0,l),
(1159,0,l),
(891,508,l)
);
},
{
closed = 1;
nodes = (
(465,1378,l),
(443,1360,l),
(897,1360,ls),
(1169,1360,o),
(1319,1238,o),
(1319,1026,cs),
(1319,718,o),
(1095,520,o),
(729,520,cs),
(283,520,l),
(275,480,l),
(721,480,ls),
(1119,480,o),
(1359,700,o),
(1359,1036,cs),
(1359,1266,o),
(1199,1400,o),
(905,1400,cs),
(429,1400,l),
(149,0,l),
(189,0,l)
);
}
);
width = 1446;
}
);
leftKerningGroup = H;
rightKerningGroup = R;
unicode = 82;
}
{
glyphname = S;
layers = (
{
anchors = (
{
name = bottom;
position = "{573, 8}";
},
{
name = top;
position = "{868, 1384}";
}
);
layerId = "D4E38000-BFB5-44FC-A51C-4288F8544A0D";
shapes = (
{
closed = 1;
nodes = (
(1430,1198,l),
(1249,1346,o),
(980,1430,o),
(749,1430,cs),
(452,1430,o),
(151,1272,o),
(151,940,cs),
(151,545,o),
(776,565,o),
(776,404,cs),
(776,345,o),
(723,324,o),
(673,324,cs),
(509,324,o),
(262,477,o),
(156,597,c),
(-86,268,l),
(101,77,o),
(408,-32,o),
(671,-32,cs),
(972,-32,o),
(1263,124,o),
(1263,459,cs),
(1263,864,o),
(642,851,o),
(642,1009,cs),
(642,1057,o),
(680,1076,o),
(722,1076,cs),
(852,1076,o),
(1088,942,o),
(1191,863,c)
);
}
);
width = 1326;
},
{
anchors = (
{
name = bottom;
position = "{514, 10}";
},
{
name = top;
position = "{796, 1388}";
}
);
layerId = "196BCA4D-4EBA-41D5-BBFD-A0C7C55F9EA0";
shapes = (
{
closed = 1;
nodes = (
(1272,1218,l),
(1122,1346,o),
(916,1414,o),
(722,1414,cs),
(466,1414,o),
(210,1278,o),
(210,992,cs),
(210,602,o),
(854,654,o),
(854,390,cs),
(854,250,o),
(722,196,o),
(602,196,cs),
(414,196,o),
(230,304,o),
(116,450,c),
(-26,268,l),
(124,86,o),
(354,-16,o),
(588,-16,cs),
(856,-16,o),
(1124,126,o),
(1124,424,cs),
(1124,814,o),
(484,774,o),
(484,1030,cs),
(484,1156,o),
(592,1200,o),
(700,1200,cs),
(854,1200,o),
(1016,1126,o),
(1134,1030,c)
);
}
);
width = 1244;
},
{
anchors = (
{
name = bottom;
position = "{495, 10}";
},
{
name = top;
position = "{751, 1390}";
}
);
layerId = "FAA95C36-2A9A-4A6A-AE16-672F8292957B";
shapes = (
{
closed = 1;
nodes = (
(1141,1264,l),
(1025,1360,o),
(859,1408,o),
(709,1408,cs),
(485,1408,o),
(265,1312,o),
(265,1058,cs),
(265,662,o),
(973,748,o),
(973,368,cs),
(973,124,o),
(757,34,o),
(545,34,cs),
(357,34,o),
(159,110,o),
(51,270,c),
(17,242,l),
(133,78,o),
(341,-6,o),
(539,-6,cs),
(779,-6,o),
(1013,102,o),
(1013,374,cs),
(1013,780,o),
(305,694,o),
(305,1064,cs),
(305,1292,o),
(513,1368,o),
(709,1368,cs),
(843,1368,o),
(1009,1326,o),
(1113,1234,c)
);
}
);
width = 1188;
}
);
leftKerningGroup = S;
rightKerningGroup = S;
unicode = 83;
}
{
glyphname = T;
layers = (
{
anchors = (
{
name = bottom;
position = "{529, 0}";
},
{
name = top;
position = "{843, 1400}";
}
);
layerId = "A09E50E2-67FC-4045-B7D7-901372DB4BBE";
shapes = (
{
closed = 1;
nodes = (
(511,1066,l),
(297,0,l),
(759,0,l),
(973,1066,l)
);
},
{
closed = 1;
nodes = (
(1367,1034,l),
(1441,1400,l),
(181,1400,l),
(107,1034,l)
);
}
);
width = 1280;
},
{
anchors = (
{
name = bottom;
position = "{472, 0}";
},
{
name = top;
position = "{768, 1400}";
}
);
layerId = "6D930887-645F-4E17-BAB2-3A566A02CAA9";
shapes = (
{
closed = 1;
nodes = (
(600,1230,l),
(354,0,l),
(590,0,l),
(836,1230,l)
);
},
{
closed = 1;
nodes = (
(1274,1198,l),
(1314,1400,l),
(192,1400,l),
(152,1198,l)
);
}
);
width = 1158;
},
{
anchors = (
{
name = bottom;
position = "{420, 0}";
},
{
name = top;
position = "{714, 1400}";
}
);
layerId = "9B3D3104-3922-4F2D-8412-46D902A9971C";
shapes = (
{
closed = 1;
nodes = (
(678,1370,l),
(402,0,l),
(442,0,l),
(718,1370,l)
);
},
{
closed = 1;
nodes = (
(1196,1360,l),
(1204,1400,l),
(202,1400,l),
(194,1360,l)
);
}
);
width = 1054;
}
);
leftKerningGroup = T;
rightKerningGroup = T;
unicode = 84;
}
{
glyphname = U;
layers = (
{
anchors = (
{
name = bottom;
position = "{629, 0}";
},
{
name = ogonek;
position = "{1117, 0}";
},
{
name = top;
position = "{909, 1400}";
},
{
name = topright;
position = "{1443, 1400}";
}
);
layerId = "FCBE0D3F-305A-4B26-ABA3-05651CFDD837";
shapes = (
{
closed = 1;
nodes = (
(1119,1400,l),
(957,594,ls),
(929,454,o),
(823,366,o),
(709,366,cs),
(595,366,o),
(513,456,o),
(541,594,cs),
(701,1400,l),
(239,1400,l),
(77,594,ls),
(3,222,o),
(245,-20,o),
(651,-20,cs),
(1057,-20,o),
(1347,222,o),
(1421,594,cs),
(1583,1400,l)
);
}
);
width = 1480;
},
{
anchors = (
{
name = bottom;
position = "{653, 0}";
},
{
name = ogonek;
position = "{1055, 0}";
},
{
name = top;
position = "{933, 1400}";
},
{
name = topright;
position = "{1483, 1400}";
}
);
layerId = "5BDD1EDE-DE70-4338-9338-A02B2C6AE01A";
shapes = (
{
closed = 1;
nodes = (
(1307,1400,l),
(1143,580,ls),
(1093,334,o),
(923,190,o),
(695,190,cs),
(465,190,o),
(347,336,o),
(397,580,cs),
(559,1400,l),
(325,1400,l),
(161,580,ls),
(87,214,o),
(295,-10,o),
(673,-10,cs),
(1051,-10,o),
(1305,214,o),
(1379,580,cs),
(1543,1400,l)
);
}
);
width = 1518;
},
{
anchors = (
{
name = bottom;
position = "{672, 0}";
},
{
name = ogonek;
position = "{1034, 0}";
},
{
name = top;
position = "{952, 1400}";
},
{
name = topright;
position = "{1486, 1400}";
}
);
layerId = "A3D6E1CA-B1BA-4595-96B0-7801BFB529A2";
shapes = (
{
closed = 1;
nodes = (
(1466,1400,l),
(1300,568,ls),
(1232,232,o),
(1026,40,o),
(700,40,cs),
(372,40,o),
(202,232,o),
(270,568,cs),
(436,1400,l),
(396,1400,l),
(230,568,ls),
(158,206,o),
(338,0,o),
(692,0,cs),
(1044,0,o),
(1268,206,o),
(1340,568,cs),
(1506,1400,l)
);
}
);
width = 1550;
}
);
leftKerningGroup = U;
rightKerningGroup = U;
unicode = 85;
}
{
glyphname = V;
layers = (
{
anchors = (
{
name = top;
position = "{862, 1400}";
}
);
layerId = "D4E38000-BFB5-44FC-A51C-4288F8544A0D";
shapes = (
{
closed = 1;
nodes = (
(1232,1400,l),
(704,300,l),
(822,282,l),
(654,1400,l),
(160,1400,l),
(460,0,l),
(938,0,l),
(1706,1400,l)
);
}
);
width = 1526;
},
{
anchors = (
{
name = top;
position = "{811, 1400}";
}
);
layerId = "196BCA4D-4EBA-41D5-BBFD-A0C7C55F9EA0";
shapes = (
{
closed = 1;
nodes = (
(1302,1400,l),
(626,158,l),
(698,146,l),
(434,1400,l),
(180,1400,l),
(506,0,l),
(752,0,l),
(1548,1400,l)
);
}
);
width = 1380;
},
{
anchors = (
{
name = top;
position = "{764, 1400}";
}
);
layerId = "FAA95C36-2A9A-4A6A-AE16-672F8292957B";
shapes = (
{
closed = 1;
nodes = (
(1362,1400,l),
(568,30,l),
(582,28,l),
(242,1400,l),
(196,1400,l),
(548,0,l),
(592,0,l),
(1410,1400,l)
);
}
);
width = 1254;
}
);
leftKerningGroup = V;
rightKerningGroup = V;
unicode = 86;
}
{
glyphname = W;
layers = (
{
layerId = "D126CF71-1C57-4B8D-8F90-429A8457EFA9";
name = "Bold.Nov 24 16, 19:29";
width = 2242;
},
{
anchors = (
{
name = top;
position = "{1302, 1400}";
}
);
layerId = "D4E38000-BFB5-44FC-A51C-4288F8544A0D";
shapes = (
{
closed = 1;
nodes = (
(1974,1400,l),
(1542,294,l),
(1630,280,l),
(1556,1400,l),
(1104,1398,l),
(670,294,l),
(758,280,l),
(684,1400,l),
(190,1400,l),
(412,0,l),
(888,0,l),
(1304,1024,l),
(1214,1038,l),
(1282,0,l),
(1760,0,l),
(2448,1400,l)
);
}
);
width = 2298;
},
{
layerId = "E9E252E9-3791-47D6-B3A2-F3053F6C69D2";
name = "Regular.Nov 24 16, 19:29";
width = 2072;
},
{
anchors = (
{
name = top;
position = "{1247, 1400}";
}
);
layerId = "196BCA4D-4EBA-41D5-BBFD-A0C7C55F9EA0";
shapes = (
{
closed = 1;
nodes = (
(2049,1400,l),
(1477,154,l),
(1535,146,l),
(1371,1400,l),
(1139,1400,l),
(567,154,l),
(625,146,l),
(461,1400,l),
(207,1400,l),
(441,0,l),
(683,0,l),
(1247,1204,l),
(1189,1212,l),
(1351,0,l),
(1595,0,l),
(2293,1400,l)
);
}
);
width = 2126;
},
{
anchors = (
{
name = top;
position = "{1170, 1400}";
}
);
layerId = "FAA95C36-2A9A-4A6A-AE16-672F8292957B";
shapes = (
{
closed = 1;
nodes = (
(2087,1400,l),
(1405,30,l),
(1417,28,l),
(1185,1400,l),
(1141,1400,l),
(459,30,l),
(469,28,l),
(239,1400,l),
(195,1400,l),
(437,0,l),
(479,0,l),
(1163,1360,l),
(1151,1362,l),
(1383,0,l),
(1425,0,l),
(2133,1400,l)
);
}
);
width = 1976;
}
);
leftKerningGroup = V;
rightKerningGroup = V;
unicode = 87;
}
{
glyphname = X;
layers = (
{
anchors = (
{
name = top;
position = "{861, 1400}";
}
);
layerId = "D4E38000-BFB5-44FC-A51C-4288F8544A0D";
shapes = (
{
closed = 1;
nodes = (
(1097,1400,l),
(839,1070,l),
(689,1400,l),
(151,1400,l),
(499,710,l),
(-111,0,l),
(431,0,l),
(721,362,l),
(897,0,l),
(1453,0,l),
(1077,732,l),
(1643,1400,l)
);
}
);
width = 1544;
},
{
layerId = "905F557B-8042-416B-95F9-70C0557D714A";
name = "LightItalic.Light Mar 13 12, 18:48";
shapes = (
{
closed = 1;
nodes = (
(118,0,l),
(1126,1398,l),
(1078,1398,l),
(70,0,l)
);
},
{
closed = 1;
nodes = (
(1164,0,l),
(156,1398,l),
(108,1398,l),
(1116,0,l)
);
}
);
width = 1234;
},
{
anchors = (
{
name = top;
position = "{772, 1400}";
}
);
layerId = "196BCA4D-4EBA-41D5-BBFD-A0C7C55F9EA0";
shapes = (
{
closed = 1;
nodes = (
(1156,1400,l),
(730,902,l),
(472,1400,l),
(196,1400,l),
(558,718,l),
(-68,0,l),
(208,0,l),
(672,540,l),
(960,0,l),
(1244,0,l),
(852,728,l),
(1434,1400,l)
);
}
);
width = 1384;
},
{
layerId = "B2F85F5B-64CD-4739-A37A-112D07CF7D74";
name = "Light.Light Mar 13 12, 18:48";
width = 1234;
},
{
anchors = (
{
name = top;
position = "{698, 1400}";
}
);
layerId = "FAA95C36-2A9A-4A6A-AE16-672F8292957B";
shapes = (
{
closed = 1;
nodes = (
(1209,1400,l),
(641,760,l),
(285,1400,l),
(237,1400,l),
(609,726,l),
(-33,0,l),
(15,0,l),
(629,694,l),
(1015,0,l),
(1063,0,l),
(659,726,l),
(1257,1400,l)
);
}
);
width = 1248;
}
);
leftKerningGroup = X;
rightKerningGroup = X;
unicode = 88;
}
{
glyphname = Y;
layers = (
{
anchors = (
{
name = bottom;
position = "{668, 0}";
},
{
name = top;
position = "{888, 1400}";
},
{
name = topleft;
position = "{210, 1400}";
}
);
layerId = "D4E38000-BFB5-44FC-A51C-4288F8544A0D";
shapes = (
{
closed = 1;
nodes = (
(534,632,l),
(430,0,l),
(892,0,l),
(996,632,l)
);
},
{
closed = 1;
nodes = (
(534,332,l),
(894,332,l),
(1626,1400,l),
(1164,1400,l),
(690,692,l),
(870,670,l),
(612,1400,l),
(150,1400,l)
);
}
);
width = 1436;
},
{
anchors = (
{
name = bottom;
position = "{592, 0}";
},
{
name = top;
position = "{812, 1400}";
},
{
name = topleft;
position = "{214, 1400}";
}
);
layerId = "196BCA4D-4EBA-41D5-BBFD-A0C7C55F9EA0";
shapes = (
{
closed = 1;
nodes = (
(564,590,l),
(468,0,l),
(704,0,l),
(800,590,l)
);
},
{
closed = 1;
nodes = (
(570,412,l),
(734,412,l),
(1446,1400,l),
(1206,1400,l),
(638,624,l),
(740,612,l),
(416,1400,l),
(176,1400,l)
);
}
);
width = 1274;
},
{
anchors = (
{
name = bottom;
position = "{554, 0}";
},
{
name = top;
position = "{784, 1400}";
},
{
name = topleft;
position = "{216, 1400}";
}
);
layerId = "FAA95C36-2A9A-4A6A-AE16-672F8292957B";
shapes = (
{
closed = 1;
nodes = (
(630,554,l),
(534,0,l),
(574,0,l),
(670,554,l)
);
},
{
closed = 1;
nodes = (
(636,516,l),
(648,516,l),
(1370,1400,l),
(1322,1400,l),
(640,564,l),
(660,562,l),
(244,1400,l),
(196,1400,l)
);
}
);
width = 1214;
}
);
leftKerningGroup = Y;
rightKerningGroup = Y;
unicode = 89;
}
{
glyphname = Z;
layers = (
{
anchors = (
{
name = bottom;
position = "{612, 0}";
},
{
name = top;
position = "{832, 1400}";
}
);
layerId = "D4E38000-BFB5-44FC-A51C-4288F8544A0D";
shapes = (
{
closed = 1;
nodes = (
(198,1400,l),
(140,1044,l),
(970,1044,l),
(914,1184,l),
(-10,290,l),
(-58,0,l),
(1226,0,l),
(1286,356,l),
(418,356,l),
(474,214,l),
(1396,1110,l),
(1444,1400,l)
);
}
);
width = 1364;
},
{
anchors = (
{
name = bottom;
position = "{620, 0}";
},
{
name = top;
position = "{820, 1400}";
}
);
layerId = "196BCA4D-4EBA-41D5-BBFD-A0C7C55F9EA0";
shapes = (
{
closed = 1;
nodes = (
(236,1400,l),
(204,1198,l),
(1136,1198,l),
(1104,1272,l),
(6,160,l),
(-20,0,l),
(1162,0,l),
(1194,202,l),
(228,202,l),
(260,128,l),
(1356,1240,l),
(1382,1400,l)
);
}
);
width = 1332;
},
{
anchors = (
{
name = bottom;
position = "{546, 0}";
},
{
name = top;
position = "{792, 1400}";
}
);
layerId = "FAA95C36-2A9A-4A6A-AE16-672F8292957B";
shapes = (
{
closed = 1;
nodes = (
(270,1400,l),
(262,1360,l),
(1300,1360,l),
(1294,1372,l),
(18,50,l),
(10,0,l),
(1104,0,l),
(1112,40,l),
(40,40,l),
(46,28,l),
(1322,1350,l),
(1330,1400,l)
);
}
);
width = 1302;
}
);
leftKerningGroup = Z;
rightKerningGroup = Z;
unicode = 90;
}
{
glyphname = bracketleft;
layers = (
{
layerId = "288DB91C-ADA9-4EAE-B002-103CECDA4F2F";
shapes = (
{
closed = 1;
nodes = (
(296,1484,l),
(-52,-248,l),
(582,-248,l),
(650,84,l),
(416,84,l),
(628,1152,l),
(862,1152,l),
(930,1484,l)
);
}
);
width = 762;
},
{
layerId = "0079A4F3-5640-4BB0-A86E-7C6F0E07191C";
name = "BoldItalic.Bold Italic Dec 28 15, 00:55";
shapes = (
{
closed = 1;
nodes = (
(614,1488,ls),
(324,1488,o),
(228,1412,o),
(228,1182,cs),
(228,856,ls),
(228,804,o),
(212,788,o),
(166,788,cs),
(76,788,l),
(76,448,l),
(166,448,l),
(328,602,l),
(554,622,o),
(628,692,o),
(628,886,cs),
(628,1040,ls),
(628,1128,o),
(656,1158,o),
(790,1158,c),
(790,1488,l)
);
},
{
closed = 1;
nodes = (
(76,788,l),
(76,448,l),
(166,448,ls),
(212,448,o),
(228,432,o),
(228,380,cs),
(228,54,ls),
(228,-176,o),
(324,-252,o),
(614,-252,cs),
(790,-252,l),
(790,78,l),
(656,78,o),
(628,108,o),
(628,196,cs),
(628,350,ls),
(628,544,o),
(554,614,o),
(328,634,c),
(166,788,l)
);
}
);
width = 970;
},
{
layerId = "1DE658DF-57D2-4446-9C3D-221B03E63859";
name = "LightItalic.Light Italic Dec 28 15, 00:55";
shapes = (
{
closed = 1;
nodes = (
(526,1484,ls),
(358,1484,o),
(280,1420,o),
(280,1280,cs),
(280,780,ls),
(280,682,o),
(244,636,o),
(170,636,cs),
(132,636,l),
(132,596,l),
(170,596,l),
(228,612,ls),
(294,630,o),
(320,680,o),
(320,780,cs),
(320,1280,ls),
(320,1392,o),
(388,1444,o),
(536,1444,c),
(536,1484,l)
);
},
{
closed = 1;
nodes = (
(132,636,l),
(132,596,l),
(170,596,ls),
(244,596,o),
(280,550,o),
(280,452,cs),
(280,-48,ls),
(280,-188,o),
(358,-252,o),
(526,-252,cs),
(536,-252,l),
(536,-212,l),
(388,-212,o),
(320,-160,o),
(320,-48,cs),
(320,452,ls),
(320,552,o),
(294,602,o),
(228,620,cs),
(170,636,l)
);
}
);
width = 746;
},
{
layerId = "05A40777-C140-4114-812D-FEB63509D817";
associatedMasterId = "DF367E9D-3B3B-43F4-BC7A-7EE40495C523";
name = "Regular Italic Dec 28 15, 00:55";
shapes = (
{
closed = 1;
nodes = (
(566,1486,ls),
(342,1486,o),
(256,1416,o),
(256,1234,cs),
(256,816,ls),
(256,738,o),
(228,706,o),
(168,706,cs),
(106,706,l),
(106,528,l),
(168,528,l),
(274,608,l),
(414,626,o),
(462,686,o),
(462,828,cs),
(462,1170,ls),
(462,1270,o),
(510,1312,o),
(652,1312,c),
(652,1486,l)
);
},
{
closed = 1;
nodes = (
(106,706,l),
(106,528,l),
(168,528,ls),
(228,528,o),
(256,496,o),
(256,418,cs),
(256,0,ls),
(256,-182,o),
(342,-252,o),
(566,-252,cs),
(652,-252,l),
(652,-78,l),
(510,-78,o),
(462,-36,o),
(462,64,cs),
(462,404,ls),
(462,548,o),
(414,608,o),
(274,626,c),
(168,706,l)
);
}
);
width = 848;
},
{
layerId = "DF367E9D-3B3B-43F4-BC7A-7EE40495C523";
shapes = (
{
closed = 1;
nodes = (
(355,1484,l),
(7,-248,l),
(461,-248,l),
(497,-74,l),
(249,-74,l),
(525,1310,l),
(773,1310,l),
(809,1484,l)
);
}
);
width = 658;
},
{
layerId = "FADC2794-F71C-487D-BA21-AA7BC8CC963C";
shapes = (
{
closed = 1;
nodes = (
(408,1484,l),
(60,-248,l),
(358,-248,l),
(366,-208,l),
(108,-208,l),
(440,1444,l),
(698,1444,l),
(706,1484,l)
);
}
);
width = 568;
}
);
leftKerningGroup = bracketleft;
rightKerningGroup = braceleft;
unicode = 91;
}
{
glyphname = bracketright;
layers = (
{
layerId = "6A7A32D0-3BFD-43C1-930A-C854163D3177";
shapes = (
{
closed = 1;
nodes = (
(538,-248,l),
(886,1484,l),
(252,1484,l),
(184,1152,l),
(418,1152,l),
(206,84,l),
(-28,84,l),
(-96,-248,l)
);
}
);
width = 762;
},
{
layerId = "A3BFC84F-57DC-4376-84A1-AB8B7A21073A";
shapes = (
{
closed = 1;
nodes = (
(347,-248,l),
(695,1484,l),
(241,1484,l),
(205,1310,l),
(453,1310,l),
(177,-74,l),
(-71,-74,l),
(-107,-248,l)
);
}
);
width = 658;
},
{
layerId = "CC7E1963-6536-4D59-9993-97487CDAFD05";
shapes = (
{
closed = 1;
nodes = (
(204,-248,l),
(552,1484,l),
(254,1484,l),
(246,1444,l),
(504,1444,l),
(172,-208,l),
(-86,-208,l),
(-94,-248,l)
);
}
);
width = 568;
}
);
leftKerningGroup = braceright;
rightKerningGroup = bracketright;
unicode = 93;
}
{
glyphname = asciicircum;
leftMetricsKey = "=52";
widthMetricsKey = "=1074";
layers = (
{
layerId = "9043404F-E9C5-4B3E-B15A-843443318E3E";
widthMetricsKey = "=1216";
shapes = (
{
closed = 1;
nodes = (
(957,1400,l),
(601,1400,l),
(79,640,l),
(399,640,l),
(743,1162,l),
(871,640,l),
(1175,640,l)
);
}
);
width = 1216;
},
{
layerId = "E14B12F3-6DA5-4EC4-9B8C-3BC58519F69C";
leftMetricsKey = "=67";
shapes = (
{
closed = 1;
nodes = (
(806,1400,l),
(614,1400,l),
(86,614,l),
(258,614,l),
(688,1260,l),
(856,614,l),
(1020,614,l)
);
}
);
width = 1074;
},
{
layerId = "3412EF41-8D40-4AD8-A3E8-23555CC779E5";
leftMetricsKey = "=78";
widthMetricsKey = "=956";
shapes = (
{
closed = 1;
nodes = (
(681,1400,l),
(629,1400,l),
(97,600,l),
(141,600,l),
(649,1362,l),
(849,600,l),
(893,600,l)
);
}
);
width = 956;
}
);
leftKerningGroup = asciicircum;
rightKerningGroup = asciicircum;
unicode = 94;
}
{
glyphname = underscore;
layers = (
{
layerId = "A09E50E2-67FC-4045-B7D7-901372DB4BBE";
shapes = (
{
closed = 1;
nodes = (
(-142,-168,l),
(-190,-408,l),
(1008,-408,l),
(1056,-168,l)
);
}
);
width = 1198;
},
{
layerId = "6D930887-645F-4E17-BAB2-3A566A02CAA9";
shapes = (
{
closed = 1;
nodes = (
(-161,-276,l),
(-189,-408,l),
(943,-408,l),
(971,-276,l)
);
}
);
width = 1132;
},
{
layerId = "9B3D3104-3922-4F2D-8412-46D902A9971C";
shapes = (
{
closed = 1;
nodes = (
(-176,-368,l),
(-184,-408,l),
(890,-408,l),
(898,-368,l)
);
}
);
width = 1074;
}
);
leftKerningGroup = underscore;
rightKerningGroup = underscore;
unicode = 95;
}
{
glyphname = a;
layers = (
{
anchors = (
{
name = bottom;
position = "{540, 0}";
},
{
name = ogonek;
position = "{1004, 0}";
},
{
name = top;
position = "{669, 1094}";
}
);
layerId = "6A7A32D0-3BFD-43C1-930A-C854163D3177";
shapes = (
{
closed = 1;
nodes = (
(727,450,l),
(767,658,l),
(402,658,ls),
(170,658,o),
(-1,551,o),
(-1,315,cs),
(-1,80,o),
(168,-10,o),
(336,-10,cs),
(499,-10,o),
(643,74,o),
(696,199,c),
(670,344,l),
(635,297,o),
(575,266,o),
(520,266,cs),
(473,266,o),
(428,288,o),
(428,355,cs),
(428,412,o),
(461,450,o),
(519,450,cs)
);
},
{
closed = 1;
nodes = (
(1044,0,l),
(1175,655,ls),
(1181,686,o),
(1184,717,o),
(1184,747,cs),
(1184,1053,o),
(876,1124,o),
(667,1124,cs),
(499,1124,o),
(301,1078,o),
(171,1008,c),
(271,708,l),
(342,750,o),
(449,778,o),
(539,778,cs),
(613,778,o),
(732,778,o),
(732,672,cs),
(732,663,o),
(732,654,o),
(730,645,cs),
(598,0,l)
);
}
);
width = 1226;
},
{
anchors = (
{
name = bottom;
position = "{559, 0}";
},
{
name = ogonek;
position = "{919, 0}";
},
{
name = top;
position = "{595, 1064}";
},
{
name = left;
position = "{-59, 530}";
}
);
layerId = "A3BFC84F-57DC-4376-84A1-AB8B7A21073A";
shapes = (
{
closed = 1;
nodes = (
(810,474,l),
(842,638,l),
(429,638,ls),
(222,638,o),
(35,529,o),
(35,305,cs),
(35,76,o),
(230,-10,o),
(401,-10,cs),
(555,-10,o),
(703,60,o),
(771,164,c),
(763,362,l),
(710,244,o),
(589,165,o),
(460,165,cs),
(376,165,o),
(253,198,o),
(253,328,cs),
(253,436,o),
(338,474,o),
(439,474,cs)
);
},
{
closed = 1;
nodes = (
(922,0,l),
(1051,648,ls),
(1057,677,o),
(1059,707,o),
(1059,731,cs),
(1059,1001,o),
(814,1070,o),
(627,1070,cs),
(460,1070,o),
(289,1015,o),
(200,932,c),
(294,784,l),
(362,850,o),
(480,894,o),
(588,894,cs),
(698,894,o),
(828,848,o),
(828,700,cs),
(828,682,o),
(826,664,o),
(822,646,cs),
(693,0,l)
);
}
);
width = 1160;
},
{
anchors = (
{
name = bottom;
position = "{473, 6}";
},
{
name = ogonek;
position = "{850, 0}";
},
{
name = top;
position = "{622, 1028}";
}
);
layerId = "CC7E1963-6536-4D59-9993-97487CDAFD05";
shapes = (
{
closed = 1;
nodes = (
(913,522,l),
(921,562,l),
(441,562,ls),
(257,562,o),
(77,485,o),
(77,279,cs),
(77,78,o),
(250,0,o),
(421,0,cs),
(623,0,o),
(807,108,o),
(882,270,c),
(849,289,l),
(787,140,o),
(618,40,o),
(427,40,cs),
(281,40,o),
(117,99,o),
(117,284,cs),
(117,462,o),
(270,522,o),
(432,522,cs)
);
},
{
closed = 1;
nodes = (
(833,0,l),
(963,649,ls),
(969,677,o),
(972,706,o),
(972,734,cs),
(972,945,o),
(806,1034,o),
(632,1034,cs),
(488,1034,o),
(333,973,o),
(245,881,c),
(269,850,l),
(347,936,o),
(490,994,o),
(627,994,cs),
(779,994,o),
(932,923,o),
(932,733,cs),
(932,706,o),
(929,679,o),
(924,653,cs),
(793,0,l)
);
}
);
width = 1124;
}
);
leftKerningGroup = a;
rightKerningGroup = n;
unicode = 97;
}
{
glyphname = b;
rightMetricsKey = "=97";
layers = (
{
anchors = (
{
name = bottom;
position = "{580, 0}";
},
{
name = top;
position = "{800, 1094}";
}
);
layerId = "6A7A32D0-3BFD-43C1-930A-C854163D3177";
shapes = (
{
closed = 1;
nodes = (
(844,1110,o),
(740,1064,o),
(654,986,c),
(752,1484,l),
(302,1484,l),
(8,0,l),
(458,0,l),
(486,144,l),
(548,40,o),
(654,-16,o),
(794,-16,cs),
(1110,-16,o),
(1358,270,o),
(1358,636,cs),
(1358,916,o),
(1192,1110,o),
(954,1110,cs)
);
},
{
closed = 1;
nodes = (
(854,774,o),
(904,712,o),
(904,606,cs),
(904,466,o),
(816,352,o),
(708,352,cs),
(622,352,o),
(568,416,o),
(568,518,cs),
(568,658,o),
(660,774,o),
(770,774,cs)
);
}
);
width = 1380;
},
{
anchors = (
{
name = bottom;
position = "{574, 0}";
},
{
name = top;
position = "{786, 1062}";
}
);
layerId = "A3BFC84F-57DC-4376-84A1-AB8B7A21073A";
shapes = (
{
closed = 1;
nodes = (
(702,1068,o),
(572,1006,o),
(476,902,c),
(592,1484,l),
(364,1484,l),
(68,0,l),
(296,0,l),
(342,226,l),
(398,70,o),
(526,-14,o),
(714,-14,cs),
(1044,-14,o),
(1294,248,o),
(1294,590,cs),
(1294,876,o),
(1116,1068,o),
(852,1068,cs)
);
},
{
closed = 1;
nodes = (
(946,890,o),
(1062,766,o),
(1062,580,cs),
(1062,358,o),
(894,176,o),
(686,176,cs),
(514,176,o),
(402,300,o),
(402,486,cs),
(402,710,o),
(566,890,o),
(774,890,cs)
);
}
);
width = 1360;
},
{
anchors = (
{
name = bottom;
position = "{539, 0}";
},
{
name = top;
position = "{747, 1034}";
}
);
layerId = "CC7E1963-6536-4D59-9993-97487CDAFD05";
shapes = (
{
closed = 1;
nodes = (
(565,1038,o),
(393,942,o),
(289,778,c),
(431,1484,l),
(391,1484,l),
(95,0,l),
(135,0,l),
(205,354,l),
(245,138,o),
(423,-4,o),
(659,-4,cs),
(969,-4,o),
(1217,258,o),
(1217,586,cs),
(1217,852,o),
(1027,1038,o),
(755,1038,cs)
);
},
{
closed = 1;
nodes = (
(1003,998,o),
(1177,828,o),
(1177,580,cs),
(1177,278,o),
(947,36,o),
(663,36,cs),
(411,36,o),
(237,206,o),
(237,454,cs),
(237,756,o),
(465,998,o),
(751,998,cs)
);
}
);
width = 1312;
}
);
leftKerningGroup = l;
rightKerningGroup = o;
unicode = 98;
}
{
glyphname = c;
layers = (
{
anchors = (
{
name = bottom;
position = "{492, 0}";
},
{
name = top;
position = "{672, 1094}";
}
);
layerId = "9043404F-E9C5-4B3E-B15A-843443318E3E";
shapes = (
{
closed = 1;
nodes = (
(788,-16,o),
(992,96,o),
(1090,290,c),
(744,458,l),
(712,376,o),
(662,340,o),
(598,340,cs),
(518,340,o),
(472,408,o),
(472,514,cs),
(472,652,o),
(540,746,o),
(638,746,cs),
(702,746,o),
(746,708,o),
(768,642,c),
(1140,794,l),
(1070,994,o),
(892,1110,o),
(654,1110,cs),
(276,1110,o),
(16,858,o),
(16,484,cs),
(16,180,o),
(216,-16,o),
(538,-16,cs)
);
}
);
width = 1122;
},
{
anchors = (
{
name = bottom;
position = "{478, 0}";
},
{
name = top;
position = "{670, 1062}";
}
);
layerId = "E14B12F3-6DA5-4EC4-9B8C-3BC58519F69C";
shapes = (
{
closed = 1;
nodes = (
(740,-8,o),
(900,62,o),
(1008,182,c),
(892,308,l),
(814,222,o),
(700,178,o),
(566,178,cs),
(396,178,o),
(282,306,o),
(282,492,cs),
(282,720,o),
(436,880,o),
(636,880,cs),
(764,880,o),
(862,834,o),
(928,758,c),
(1068,906,l),
(980,1010,o),
(836,1070,o),
(646,1070,cs),
(306,1070,o),
(52,824,o),
(52,476,cs),
(52,188,o),
(244,-8,o),
(536,-8,cs)
);
}
);
width = 1128;
},
{
anchors = (
{
name = bottom;
position = "{514, 0}";
},
{
name = top;
position = "{634, 1034}";
}
);
layerId = "3412EF41-8D40-4AD8-A3E8-23555CC779E5";
shapes = (
{
closed = 1;
nodes = (
(692,0,o),
(830,60,o),
(930,162,c),
(906,190,l),
(814,94,o),
(686,40,o),
(544,40,cs),
(294,40,o),
(124,216,o),
(124,470,cs),
(124,776,o),
(350,994,o),
(638,994,cs),
(768,994,o),
(874,946,o),
(952,868,c),
(980,896,l),
(898,982,o),
(780,1034,o),
(642,1034,cs),
(334,1034,o),
(86,794,o),
(86,468,cs),
(86,194,o),
(272,0,o),
(540,0,cs)
);
}
);
width = 1114;
}
);
leftKerningGroup = o;
rightKerningGroup = c;
unicode = 99;
}
{
glyphname = d;
layers = (
{
anchors = (
{
name = bottom;
position = "{585, 0}";
},
{
name = center;
position = "{1173, 1260}";
},
{
name = topright;
position = "{1581, 1484}";
}
);
layerId = "6A7A32D0-3BFD-43C1-930A-C854163D3177";
shapes = (
{
closed = 1;
nodes = (
(547,-16,o),
(651,30,o),
(737,108,c),
(715,0,l),
(1165,0,l),
(1461,1484,l),
(1011,1484,l),
(905,950,l),
(843,1054,o),
(737,1110,o),
(597,1110,cs),
(281,1110,o),
(33,824,o),
(33,458,cs),
(33,178,o),
(199,-16,o),
(437,-16,cs)
);
},
{
closed = 1;
nodes = (
(537,320,o),
(487,382,o),
(487,488,cs),
(487,628,o),
(575,742,o),
(683,742,cs),
(769,742,o),
(823,678,o),
(823,576,cs),
(823,436,o),
(731,320,o),
(621,320,cs)
);
}
);
width = 1380;
},
{
anchors = (
{
name = bottom;
position = "{571, 0}";
},
{
name = center;
position = "{1155, 1230}";
},
{
name = topright;
position = "{1507, 1484}";
}
);
layerId = "A3BFC84F-57DC-4376-84A1-AB8B7A21073A";
shapes = (
{
closed = 1;
nodes = (
(659,-10,o),
(789,52,o),
(885,156,c),
(853,0,l),
(1081,0,l),
(1377,1484,l),
(1149,1484,l),
(1019,832,l),
(963,988,o),
(835,1072,o),
(647,1072,cs),
(317,1072,o),
(67,810,o),
(67,468,cs),
(67,182,o),
(245,-10,o),
(509,-10,cs)
);
},
{
closed = 1;
nodes = (
(415,168,o),
(299,292,o),
(299,478,cs),
(299,700,o),
(467,882,o),
(675,882,cs),
(847,882,o),
(959,758,o),
(959,572,cs),
(959,348,o),
(795,168,o),
(587,168,cs)
);
}
);
width = 1364;
},
{
anchors = (
{
name = bottom;
position = "{605, 0}";
},
{
name = center;
position = "{1155, 1218}";
},
{
name = topright;
position = "{1491, 1484}";
}
);
layerId = "CC7E1963-6536-4D59-9993-97487CDAFD05";
shapes = (
{
closed = 1;
nodes = (
(751,-4,o),
(923,92,o),
(1027,256,c),
(975,0,l),
(1015,0,l),
(1311,1484,l),
(1271,1484,l),
(1111,680,l),
(1071,896,o),
(893,1038,o),
(657,1038,cs),
(347,1038,o),
(99,776,o),
(99,448,cs),
(99,182,o),
(289,-4,o),
(561,-4,cs)
);
},
{
closed = 1;
nodes = (
(313,36,o),
(139,206,o),
(139,454,cs),
(139,756,o),
(369,998,o),
(653,998,cs),
(905,998,o),
(1079,828,o),
(1079,580,cs),
(1079,278,o),
(851,36,o),
(565,36,cs)
);
}
);
width = 1312;
}
);
leftKerningGroup = o;
rightKerningGroup = l;
unicode = 100;
}
{
glyphname = e;
layers = (
{
anchors = (
{
name = bottom;
position = "{549, 0}";
},
{
name = ogonek;
position = "{1021, 0}";
},
{
name = top;
position = "{701, 1094}";
}
);
layerId = "288DB91C-ADA9-4EAE-B002-103CECDA4F2F";
shapes = (
{
closed = 1;
nodes = (
(801,-14,o),
(959,48,o),
(1087,168,c),
(855,396,l),
(785,342,o),
(709,314,o),
(635,314,cs),
(521,314,o),
(461,374,o),
(461,486,cs),
(461,654,o),
(559,804,o),
(671,804,cs),
(751,804,o),
(799,732,o),
(769,654,c),
(355,654,l),
(355,446,l),
(1187,446,l),
(1273,832,o),
(1045,1108,o),
(639,1108,cs),
(279,1108,o),
(21,844,o),
(21,478,cs),
(21,178,o),
(253,-14,o),
(619,-14,cs)
);
}
);
width = 1228;
},
{
anchors = (
{
name = bottom;
position = "{545, 0}";
},
{
name = ogonek;
position = "{935, 0}";
},
{
name = top;
position = "{691, 1070}";
}
);
layerId = "DF367E9D-3B3B-43F4-BC7A-7EE40495C523";
shapes = (
{
closed = 1;
nodes = (
(743,-12,o),
(879,34,o),
(985,124,c),
(881,264,l),
(801,200,o),
(699,164,o),
(593,164,cs),
(399,164,o),
(281,282,o),
(281,474,cs),
(281,712,o),
(445,892,o),
(663,892,cs),
(833,892,o),
(925,792,o),
(925,608,c),
(267,608,l),
(235,444,l),
(1109,444,l),
(1193,816,o),
(1011,1070,o),
(661,1070,cs),
(315,1070,o),
(55,814,o),
(55,476,cs),
(55,180,o),
(263,-12,o),
(585,-12,cs)
);
}
);
width = 1176;
},
{
anchors = (
{
name = bottom;
position = "{663, 0}";
},
{
name = ogonek;
position = "{863, 0}";
},
{
name = top;
position = "{683, 1034}";
}
);
layerId = "FADC2794-F71C-487D-BA21-AA7BC8CC963C";
shapes = (
{
closed = 1;
nodes = (
(713,0,o),
(859,60,o),
(963,162,c),
(937,190,l),
(843,94,o),
(707,40,o),
(557,40,cs),
(309,40,o),
(143,216,o),
(143,470,cs),
(143,776,o),
(365,994,o),
(651,994,cs),
(907,994,o),
(1055,816,o),
(1049,558,c),
(135,558,l),
(131,518,l),
(1085,518,l),
(1113,818,o),
(943,1034,o),
(655,1034,cs),
(349,1034,o),
(103,794,o),
(103,468,cs),
(103,194,o),
(287,0,o),
(553,0,cs)
);
}
);
width = 1178;
}
);
leftKerningGroup = o;
rightKerningGroup = e;
unicode = 101;
}
{
glyphname = g;
layers = (
{
anchors = (
{
name = bottom;
position = "{544, 0}";
},
{
name = top;
position = "{764, 1094}";
}
);
layerId = "9043404F-E9C5-4B3E-B15A-843443318E3E";
shapes = (
{
closed = 1;
nodes = (
(792,-408,o),
(1056,-232,o),
(1114,72,cs),
(1318,1094,l),
(868,1094,l),
(842,968,l),
(784,1060,o),
(686,1110,o),
(558,1110,cs),
(262,1110,o),
(28,838,o),
(28,490,cs),
(28,240,o),
(184,64,o),
(406,64,cs),
(506,64,o),
(602,98,o),
(682,156,c),
(676,120,ls),
(658,12,o),
(564,-60,o),
(430,-60,cs),
(330,-60,o),
(198,-34,o),
(108,26,c),
(-74,-256,l),
(36,-332,o),
(222,-408,o),
(452,-408,cs)
);
},
{
closed = 1;
nodes = (
(522,400,o),
(482,442,o),
(482,520,cs),
(482,642,o),
(556,742,o),
(648,742,cs),
(718,742,o),
(764,688,o),
(764,602,cs),
(764,492,o),
(684,400,o),
(592,400,cs)
);
}
);
width = 1308;
},
{
anchors = (
{
name = bottom;
position = "{535, 0}";
},
{
name = top;
position = "{707, 1062}";
}
);
layerId = "E14B12F3-6DA5-4EC4-9B8C-3BC58519F69C";
shapes = (
{
closed = 1;
nodes = (
(759,-394,o),
(969,-248,o),
(1027,32,cs),
(1239,1062,l),
(1011,1062,l),
(967,852,l),
(915,996,o),
(795,1072,o),
(619,1072,cs),
(309,1072,o),
(73,824,o),
(73,502,cs),
(73,234,o),
(241,52,o),
(489,52,cs),
(623,52,o),
(745,106,o),
(839,206,c),
(801,46,ls),
(759,-126,o),
(629,-214,o),
(417,-214,cs),
(295,-214,o),
(185,-176,o),
(93,-100,c),
(-13,-248,l),
(125,-348,o),
(263,-394,o),
(419,-394,cs)
);
},
{
closed = 1;
nodes = (
(411,230,o),
(305,342,o),
(305,512,cs),
(305,716,o),
(459,882,o),
(649,882,cs),
(807,882,o),
(911,770,o),
(911,600,cs),
(911,394,o),
(759,230,o),
(569,230,cs)
);
}
);
width = 1280;
},
{
anchors = (
{
name = bottom;
position = "{527, 0}";
},
{
name = top;
position = "{735, 1034}";
}
);
layerId = "3412EF41-8D40-4AD8-A3E8-23555CC779E5";
shapes = (
{
closed = 1;
nodes = (
(727,-388,o),
(923,-228,o),
(977,44,cs),
(1173,1034,l),
(1133,1034,l),
(1067,704,l),
(1029,906,o),
(861,1038,o),
(639,1038,cs),
(345,1038,o),
(111,792,o),
(111,484,cs),
(111,234,o),
(291,58,o),
(547,58,cs),
(727,58,o),
(889,148,o),
(987,302,c),
(937,48,ls),
(887,-202,o),
(705,-348,o),
(445,-346,c),
(273,-340,o),
(149,-288,o),
(49,-180,c),
(19,-204,l),
(133,-324,o),
(263,-380,o),
(445,-386,cs)
);
},
{
closed = 1;
nodes = (
(315,98,o),
(151,258,o),
(151,490,cs),
(151,772,o),
(367,998,o),
(635,998,cs),
(873,998,o),
(1037,840,o),
(1037,606,cs),
(1037,324,o),
(821,98,o),
(553,98,cs)
);
}
);
width = 1260;
}
);
leftKerningGroup = o;
rightKerningGroup = u;
unicode = 103;
}
{
glyphname = h;
rightMetricsKey = "=186";
layers = (
{
anchors = (
{
name = bottom;
position = "{578, 0}";
},
{
name = center;
position = "{462, 1260}";
},
{
name = top;
position = "{524, 1484}";
}
);
layerId = "6A7A32D0-3BFD-43C1-930A-C854163D3177";
shapes = (
{
closed = 1;
nodes = (
(846,1110,o),
(736,1056,o),
(650,958,c),
(754,1484,l),
(304,1484,l),
(10,0,l),
(460,0,l),
(566,534,ls),
(588,650,o),
(670,734,o),
(756,734,cs),
(832,734,o),
(872,674,o),
(854,582,cs),
(738,0,l),
(1188,0,l),
(1318,650,ls),
(1370,908,o),
(1218,1110,o),
(972,1110,cs)
);
}
);
width = 1374;
},
{
anchors = (
{
name = bottom;
position = "{664, 0}";
},
{
name = center;
position = "{476, 1230}";
},
{
name = top;
position = "{482, 1484}";
}
);
layerId = "A3BFC84F-57DC-4376-84A1-AB8B7A21073A";
shapes = (
{
closed = 1;
nodes = (
(688,1076,o),
(572,1020,o),
(488,908,c),
(600,1484,l),
(368,1484,l),
(76,0,l),
(306,0,l),
(422,576,ls),
(460,760,o),
(594,882,o),
(758,882,cs),
(928,882,o),
(1016,770,o),
(982,596,cs),
(864,0,l),
(1094,0,l),
(1220,624,ls),
(1276,900,o),
(1128,1076,o),
(840,1076,cs)
);
}
);
width = 1338;
},
{
anchors = (
{
name = bottom;
position = "{520, 0}";
},
{
name = center;
position = "{440, 1218}";
},
{
name = top;
position = "{416, 1484}";
}
);
layerId = "CC7E1963-6536-4D59-9993-97487CDAFD05";
shapes = (
{
closed = 1;
nodes = (
(566,1030,o),
(392,924,o),
(290,736,c),
(436,1484,l),
(396,1484,l),
(104,0,l),
(144,0,l),
(248,532,ls),
(304,820,o),
(512,988,o),
(778,994,c),
(1006,994,o),
(1116,858,o),
(1070,626,cs),
(946,0,l),
(986,0,l),
(1110,626,ls),
(1160,882,o),
(1038,1034,o),
(778,1034,c)
);
}
);
width = 1274;
}
);
leftKerningGroup = l;
rightKerningGroup = n;
unicode = 104;
}
{
glyphname = i;
layers = (
{
anchors = (
{
name = bottom;
position = "{243, 0}";
}
);
layerId = "A09E50E2-67FC-4045-B7D7-901372DB4BBE";
shapes = (
{
alignment = -1;
ref = idotless;
},
{
pos = (43,0);
ref = dotaccentcomb;
}
);
width = 670;
},
{
anchors = (
{
name = bottom;
position = "{184, 0}";
}
);
layerId = "6D930887-645F-4E17-BAB2-3A566A02CAA9";
shapes = (
{
alignment = -1;
ref = idotless;
},
{
pos = (30,0);
ref = dotaccentcomb;
}
);
width = 568;
},
{
anchors = (
{
name = bottom;
position = "{139, 0}";
}
);
layerId = "9B3D3104-3922-4F2D-8412-46D902A9971C";
shapes = (
{
closed = 1;
nodes = (
(323,1034,l),
(117,0,l),
(157,0,l),
(363,1034,l)
);
},
{
closed = 1;
nodes = (
(381,1384,o),
(349,1356,o),
(349,1324,cs),
(349,1300,o),
(367,1280,o),
(391,1280,cs),
(423,1280,o),
(455,1308,o),
(455,1340,cs),
(455,1364,o),
(437,1384,o),
(413,1384,cs)
);
}
);
width = 480;
}
);
leftKerningGroup = n;
rightKerningGroup = u;
unicode = 105;
}
{
glyphname = j;
layers = (
{
layerId = "A09E50E2-67FC-4045-B7D7-901372DB4BBE";
shapes = (
{
alignment = -1;
ref = jdotless;
},
{
pos = (30,0);
ref = dotaccentcomb;
}
);
width = 680;
},
{
layerId = "6D930887-645F-4E17-BAB2-3A566A02CAA9";
shapes = (
{
alignment = -1;
ref = jdotless;
},
{
pos = (9,0);
ref = dotaccentcomb;
}
);
width = 550;
},
{
layerId = "9B3D3104-3922-4F2D-8412-46D902A9971C";
shapes = (
{
closed = 1;
nodes = (
(-291,-358,l),
(-255,-376,o),
(-215,-384,o),
(-171,-386,c),
(-21,-388,o),
(81,-280,o),
(123,-64,cs),
(341,1034,l),
(301,1034,l),
(83,-60,ls),
(45,-248,o),
(-43,-348,o),
(-171,-346,c),
(-205,-344,o),
(-239,-338,o),
(-271,-324,c)
);
},
{
closed = 1;
nodes = (
(359,1384,o),
(327,1356,o),
(327,1324,cs),
(327,1300,o),
(345,1280,o),
(369,1280,cs),
(401,1280,o),
(433,1308,o),
(433,1340,cs),
(433,1364,o),
(415,1384,o),
(391,1384,cs)
);
}
);
width = 438;
}
);
leftKerningGroup = j;
rightKerningGroup = u;
unicode = 106;
}
{
glyphname = k;
rightMetricsKey = "=33";
layers = (
{
anchors = (
{
name = bottom;
position = "{576, 0}";
},
{
name = top;
position = "{512, 1484}";
},
{
name = topright;
position = "{718, 1094}";
}
);
layerId = "FCBE0D3F-305A-4B26-ABA3-05651CFDD837";
shapes = (
{
closed = 1;
nodes = (
(286,1484,l),
(-10,0,l),
(440,0,l),
(736,1484,l)
);
},
{
closed = 1;
nodes = (
(908,1094,l),
(574,788,l),
(462,222,l),
(1464,1094,l)
);
},
{
closed = 1;
nodes = (
(564,448,l),
(696,0,l),
(1214,0,l),
(922,720,l)
);
}
);
width = 1324;
},
{
anchors = (
{
name = bottom;
position = "{506, 0}";
},
{
name = top;
position = "{468, 1484}";
},
{
name = topright;
position = "{620, 1062}";
}
);
layerId = "5BDD1EDE-DE70-4338-9338-A02B2C6AE01A";
shapes = (
{
closed = 1;
nodes = (
(352,1484,l),
(56,0,l),
(286,0,l),
(582,1484,l)
);
},
{
closed = 1;
nodes = (
(966,1062,l),
(378,556,l),
(322,256,l),
(1266,1062,l)
);
},
{
closed = 1;
nodes = (
(552,546,l),
(788,0,l),
(1066,0,l),
(736,684,l)
);
}
);
width = 1190;
},
{
anchors = (
{
name = bottom;
position = "{475, 0}";
},
{
name = top;
position = "{427, 1484}";
},
{
name = topright;
position = "{533, 1034}";
}
);
layerId = "A3D6E1CA-B1BA-4595-96B0-7801BFB529A2";
shapes = (
{
closed = 1;
nodes = (
(407,1484,l),
(111,0,l),
(151,0,l),
(447,1484,l)
);
},
{
closed = 1;
nodes = (
(1015,1034,l),
(209,356,l),
(195,294,l),
(1071,1034,l)
);
},
{
closed = 1;
nodes = (
(551,628,l),
(877,0,l),
(925,0,l),
(587,652,l)
);
}
);
width = 1060;
}
);
leftKerningGroup = l;
rightKerningGroup = k;
unicode = 107;
}
{
glyphname = l;
layers = (
{
anchors = (
{
name = bottom;
position = "{319, 0}";
},
{
name = center;
position = "{921, 780}";
},
{
name = top;
position = "{477, 1484}";
},
{
name = topright;
position = "{841, 1484}";
}
);
layerId = "6A7A32D0-3BFD-43C1-930A-C854163D3177";
shapes = (
{
closed = 1;
nodes = (
(69,472,ls),
(3,142,o),
(203,-22,o),
(453,-22,cs),
(511,-22,o),
(585,-14,o),
(657,10,c),
(683,398,l),
(647,382,o),
(607,364,o),
(563,364,cs),
(523,364,o),
(501,374,o),
(515,446,cs),
(721,1484,l),
(271,1484,l)
);
}
);
width = 748;
},
{
anchors = (
{
name = bottom;
position = "{205, 0}";
},
{
name = center;
position = "{647, 798}";
},
{
name = top;
position = "{455, 1484}";
},
{
name = topright;
position = "{697, 1484}";
}
);
layerId = "A3BFC84F-57DC-4376-84A1-AB8B7A21073A";
shapes = (
{
closed = 1;
nodes = (
(103,298,ls),
(63,104,o),
(163,-10,o),
(319,-10,cs),
(375,-10,o),
(447,6,o),
(521,44,c),
(513,226,l),
(469,204,o),
(433,188,o),
(393,188,cs),
(341,188,o),
(315,218,o),
(331,304,cs),
(567,1484,l),
(339,1484,l)
);
}
);
width = 618;
},
{
anchors = (
{
name = bottom;
position = "{217, 0}";
},
{
name = center;
position = "{515, 794}";
},
{
name = top;
position = "{415, 1484}";
},
{
name = topright;
position = "{615, 1484}";
}
);
layerId = "CC7E1963-6536-4D59-9993-97487CDAFD05";
shapes = (
{
closed = 1;
nodes = (
(137,182,ls),
(113,62,o),
(155,0,o),
(251,0,cs),
(295,0,o),
(351,24,o),
(407,72,c),
(383,104,l),
(337,64,o),
(291,40,o),
(251,40,cs),
(183,40,o),
(157,84,o),
(175,178,cs),
(435,1484,l),
(397,1484,l)
);
}
);
width = 518;
}
);
leftKerningGroup = l;
rightKerningGroup = l;
unicode = 108;
}
{
glyphname = m;
layers = (
{
anchors = (
{
name = bottom;
position = "{958, 0}";
},
{
name = top;
position = "{1142, 1094}";
}
);
layerId = "D4E38000-BFB5-44FC-A51C-4288F8544A0D";
shapes = (
{
closed = 1;
nodes = (
(822,1110,o),
(712,1056,o),
(626,958,c),
(652,1094,l),
(202,1094,l),
(-14,0,l),
(436,0,l),
(542,534,ls),
(564,650,o),
(646,734,o),
(732,734,cs),
(808,734,o),
(848,674,o),
(830,582,cs),
(714,0,l),
(1164,0,l),
(1294,650,ls),
(1346,908,o),
(1194,1110,o),
(948,1110,cs)
);
},
{
closed = 1;
nodes = (
(1488,1110,o),
(1324,976,o),
(1196,734,c),
(1164,0,l),
(1270,534,ls),
(1292,650,o),
(1374,734,o),
(1460,734,cs),
(1536,734,o),
(1576,674,o),
(1558,582,cs),
(1442,0,l),
(1892,0,l),
(2022,650,ls),
(2074,908,o),
(1922,1110,o),
(1676,1110,cs)
);
}
);
width = 2064;
},
{
anchors = (
{
name = bottom;
position = "{952, 0}";
},
{
name = top;
position = "{1150, 1062}";
}
);
layerId = "196BCA4D-4EBA-41D5-BBFD-A0C7C55F9EA0";
shapes = (
{
closed = 1;
nodes = (
(662,1076,o),
(546,1020,o),
(462,908,c),
(492,1062,l),
(260,1062,l),
(50,0,l),
(280,0,l),
(396,576,ls),
(434,760,o),
(568,882,o),
(732,882,cs),
(902,882,o),
(990,770,o),
(956,596,cs),
(838,0,l),
(1068,0,l),
(1194,624,ls),
(1250,900,o),
(1102,1076,o),
(814,1076,cs)
);
},
{
closed = 1;
nodes = (
(1362,1076,o),
(1196,926,o),
(1096,618,c),
(1068,0,l),
(1184,576,ls),
(1222,760,o),
(1356,882,o),
(1520,882,cs),
(1690,882,o),
(1778,770,o),
(1744,596,cs),
(1626,0,l),
(1856,0,l),
(1982,624,ls),
(2038,900,o),
(1890,1076,o),
(1602,1076,cs)
);
}
);
width = 2086;
},
{
anchors = (
{
name = bottom;
position = "{959, 0}";
},
{
name = top;
position = "{1151, 1034}";
}
);
layerId = "FAA95C36-2A9A-4A6A-AE16-672F8292957B";
shapes = (
{
closed = 1;
nodes = (
(561,1030,o),
(387,924,o),
(285,736,c),
(343,1034,l),
(303,1034,l),
(99,0,l),
(139,0,l),
(243,532,ls),
(297,812,o),
(499,988,o),
(773,994,c),
(1003,994,o),
(1111,856,o),
(1065,626,cs),
(941,0,l),
(981,0,l),
(1105,626,ls),
(1155,882,o),
(1033,1034,o),
(773,1034,c)
);
},
{
closed = 1;
nodes = (
(1361,1028,o),
(1173,888,o),
(1079,634,c),
(981,0,l),
(1085,532,ls),
(1139,812,o),
(1341,988,o),
(1615,994,c),
(1845,994,o),
(1953,856,o),
(1907,626,cs),
(1783,0,l),
(1823,0,l),
(1947,626,ls),
(1997,882,o),
(1875,1034,o),
(1615,1034,c)
);
}
);
width = 2092;
}
);
leftKerningGroup = n;
rightKerningGroup = n;
unicode = 109;
}
{
glyphname = n;
layers = (
{
anchors = (
{
name = bottom;
position = "{600, 0}";
},
{
name = top;
position = "{748, 1094}";
},
{
name = topleft;
position = "{106, 1094}";
}
);
layerId = "D4E38000-BFB5-44FC-A51C-4288F8544A0D";
shapes = (
{
closed = 1;
nodes = (
(836,1110,o),
(726,1056,o),
(640,958,c),
(666,1094,l),
(216,1094,l),
(0,0,l),
(450,0,l),
(556,534,ls),
(578,650,o),
(660,734,o),
(746,734,cs),
(822,734,o),
(862,674,o),
(844,582,cs),
(728,0,l),
(1178,0,l),
(1308,650,ls),
(1360,908,o),
(1208,1110,o),
(962,1110,cs)
);
}
);
width = 1364;
},
{
anchors = (
{
name = bottom;
position = "{650, 0}";
},
{
name = top;
position = "{868, 1034}";
}
);
layerId = "31E89894-E216-4617-8E91-D8CA7399A7F0";
name = "LightItalic.Light Italic Dec 21 15, 20:18";
shapes = (
{
closed = 1;
nodes = (
(1102,0,l),
(1226,626,ls),
(1278,882,o),
(1154,1034,o),
(894,1034,c),
(598,1028,o),
(386,832,o),
(322,506,c),
(358,506,l),
(418,808,o),
(616,988,o),
(894,994,c),
(1122,994,o),
(1230,858,o),
(1186,626,cs),
(1062,0,l)
);
},
{
closed = 1;
nodes = (
(260,0,l),
(464,1034,l),
(424,1034,l),
(220,0,l)
);
}
);
width = 1288;
},
{
anchors = (
{
name = bottom;
position = "{592, 0}";
},
{
name = top;
position = "{722, 1062}";
},
{
name = topleft;
position = "{176, 1062}";
}
);
layerId = "196BCA4D-4EBA-41D5-BBFD-A0C7C55F9EA0";
shapes = (
{
closed = 1;
nodes = (
(676,1076,o),
(560,1020,o),
(476,908,c),
(506,1062,l),
(274,1062,l),
(64,0,l),
(294,0,l),
(410,576,ls),
(448,760,o),
(582,882,o),
(746,882,cs),
(916,882,o),
(1004,770,o),
(970,596,cs),
(852,0,l),
(1082,0,l),
(1208,624,ls),
(1264,900,o),
(1116,1076,o),
(828,1076,cs)
);
}
);
width = 1326;
},
{
anchors = (
{
name = bottom;
position = "{580, 0}";
},
{
name = top;
position = "{718, 1034}";
},
{
name = topleft;
position = "{224, 1034}";
}
);
layerId = "FAA95C36-2A9A-4A6A-AE16-672F8292957B";
shapes = (
{
closed = 1;
nodes = (
(580,1030,o),
(406,924,o),
(304,736,c),
(362,1034,l),
(322,1034,l),
(118,0,l),
(158,0,l),
(262,532,ls),
(318,820,o),
(526,988,o),
(792,994,c),
(1020,994,o),
(1130,858,o),
(1084,626,cs),
(960,0,l),
(1000,0,l),
(1124,626,ls),
(1174,882,o),
(1052,1034,o),
(792,1034,c)
);
}
);
width = 1288;
}
);
leftKerningGroup = n;
rightKerningGroup = n;
unicode = 110;
}
{
glyphname = o;
layers = (
{
anchors = (
{
name = bottom;
position = "{598, 0}";
},
{
name = center;
position = "{648, 548}";
},
{
name = ogonek;
position = "{1032, 0}";
},
{
name = top;
position = "{704, 1094}";
},
{
name = topright;
position = "{984, 1094}";
}
);
layerId = "9043404F-E9C5-4B3E-B15A-843443318E3E";
shapes = (
{
closed = 1;
nodes = (
(302,1110,o),
(28,864,o),
(28,492,cs),
(28,184,o),
(244,-16,o),
(594,-16,cs),
(996,-16,o),
(1270,232,o),
(1270,604,cs),
(1270,912,o),
(1056,1110,o),
(706,1110,cs)
);
},
{
closed = 1;
nodes = (
(760,754,o),
(814,682,o),
(814,570,cs),
(814,428,o),
(738,330,o),
(628,330,cs),
(538,330,o),
(484,402,o),
(484,514,cs),
(484,656,o),
(560,754,o),
(670,754,cs)
);
}
);
width = 1296;
},
{
anchors = (
{
name = bottom;
position = "{580, 0}";
},
{
name = center;
position = "{626, 532}";
},
{
name = ogonek;
position = "{918, 0}";
},
{
name = top;
position = "{678, 1062}";
},
{
name = topright;
position = "{966, 1062}";
}
);
layerId = "E14B12F3-6DA5-4EC4-9B8C-3BC58519F69C";
shapes = (
{
closed = 1;
nodes = (
(326,1070,o),
(66,826,o),
(66,480,cs),
(66,190,o),
(264,-8,o),
(570,-8,cs),
(922,-8,o),
(1184,236,o),
(1184,584,cs),
(1184,872,o),
(984,1070,o),
(678,1070,cs)
);
},
{
closed = 1;
nodes = (
(836,884,o),
(950,754,o),
(950,568,cs),
(950,336,o),
(794,174,o),
(588,174,cs),
(412,174,o),
(298,302,o),
(298,490,cs),
(298,720,o),
(454,884,o),
(660,884,cs)
);
}
);
width = 1250;
},
{
anchors = (
{
name = bottom;
position = "{563, 0}";
},
{
name = center;
position = "{607, 518}";
},
{
name = ogonek;
position = "{855, 0}";
},
{
name = top;
position = "{657, 1034}";
},
{
name = topright;
position = "{911, 1034}";
}
);
layerId = "3412EF41-8D40-4AD8-A3E8-23555CC779E5";
shapes = (
{
closed = 1;
nodes = (
(349,1034,o),
(101,794,o),
(101,468,cs),
(101,194,o),
(287,0,o),
(555,0,cs),
(863,0,o),
(1111,240,o),
(1111,568,cs),
(1111,840,o),
(925,1034,o),
(657,1034,cs)
);
},
{
closed = 1;
nodes = (
(903,994,o),
(1071,818,o),
(1071,566,cs),
(1071,258,o),
(847,40,o),
(559,40,cs),
(309,40,o),
(141,216,o),
(141,470,cs),
(141,776,o),
(365,994,o),
(653,994,cs)
);
}
);
width = 1212;
}
);
leftKerningGroup = o;
rightKerningGroup = o;
unicode = 111;
}
{
glyphname = p;
layers = (
{
layerId = "9043404F-E9C5-4B3E-B15A-843443318E3E";
shapes = (
{
closed = 1;
nodes = (
(843,1110,o),
(739,1064,o),
(653,986,c),
(675,1094,l),
(225,1094,l),
(-71,-388,l),
(379,-388,l),
(485,144,l),
(547,40,o),
(653,-16,o),
(793,-16,cs),
(1109,-16,o),
(1357,270,o),
(1357,636,cs),
(1357,916,o),
(1191,1110,o),
(953,1110,cs)
);
},
{
closed = 1;
nodes = (
(853,774,o),
(903,712,o),
(903,606,cs),
(903,466,o),
(815,352,o),
(707,352,cs),
(621,352,o),
(567,416,o),
(567,518,cs),
(567,658,o),
(659,774,o),
(769,774,cs)
);
}
);
width = 1380;
},
{
layerId = "E14B12F3-6DA5-4EC4-9B8C-3BC58519F69C";
shapes = (
{
closed = 1;
nodes = (
(703,1072,o),
(573,1010,o),
(477,906,c),
(509,1062,l),
(281,1062,l),
(-9,-388,l),
(219,-388,l),
(343,230,l),
(399,74,o),
(527,-10,o),
(715,-10,cs),
(1045,-10,o),
(1295,252,o),
(1295,594,cs),
(1295,880,o),
(1117,1072,o),
(853,1072,cs)
);
},
{
closed = 1;
nodes = (
(947,894,o),
(1063,770,o),
(1063,584,cs),
(1063,362,o),
(895,180,o),
(687,180,cs),
(515,180,o),
(403,304,o),
(403,490,cs),
(403,714,o),
(567,894,o),
(775,894,cs)
);
}
);
width = 1360;
},
{
layerId = "3412EF41-8D40-4AD8-A3E8-23555CC779E5";
shapes = (
{
closed = 1;
nodes = (
(591,1038,o),
(419,942,o),
(315,778,c),
(367,1034,l),
(327,1034,l),
(43,-388,l),
(83,-388,l),
(231,354,l),
(271,138,o),
(449,-4,o),
(685,-4,cs),
(995,-4,o),
(1243,258,o),
(1243,586,cs),
(1243,852,o),
(1053,1038,o),
(781,1038,cs)
);
},
{
closed = 1;
nodes = (
(1029,998,o),
(1203,828,o),
(1203,580,cs),
(1203,278,o),
(973,36,o),
(689,36,cs),
(437,36,o),
(263,206,o),
(263,454,cs),
(263,756,o),
(491,998,o),
(777,998,cs)
);
}
);
width = 1338;
}
);
leftKerningGroup = n;
rightKerningGroup = o;
unicode = 112;
}
{
glyphname = q;
layers = (
{
layerId = "288DB91C-ADA9-4EAE-B002-103CECDA4F2F";
shapes = (
{
closed = 1;
nodes = (
(538,-16,o),
(642,30,o),
(728,108,c),
(628,-388,l),
(1078,-388,l),
(1374,1094,l),
(924,1094,l),
(896,950,l),
(834,1054,o),
(728,1110,o),
(588,1110,cs),
(272,1110,o),
(24,824,o),
(24,458,cs),
(24,178,o),
(190,-16,o),
(428,-16,cs)
);
},
{
closed = 1;
nodes = (
(528,320,o),
(478,382,o),
(478,488,cs),
(478,628,o),
(566,742,o),
(674,742,cs),
(760,742,o),
(814,678,o),
(814,576,cs),
(814,436,o),
(722,320,o),
(612,320,cs)
);
}
);
width = 1380;
},
{
layerId = "DF367E9D-3B3B-43F4-BC7A-7EE40495C523";
shapes = (
{
closed = 1;
nodes = (
(659,-10,o),
(789,52,o),
(885,156,c),
(775,-388,l),
(1003,-388,l),
(1293,1062,l),
(1065,1062,l),
(1019,832,l),
(963,988,o),
(835,1072,o),
(647,1072,cs),
(317,1072,o),
(67,810,o),
(67,468,cs),
(67,182,o),
(245,-10,o),
(509,-10,cs)
);
},
{
closed = 1;
nodes = (
(415,168,o),
(299,292,o),
(299,478,cs),
(299,700,o),
(467,882,o),
(675,882,cs),
(847,882,o),
(959,758,o),
(959,572,cs),
(959,348,o),
(795,168,o),
(587,168,cs)
);
}
);
width = 1364;
},
{
layerId = "FADC2794-F71C-487D-BA21-AA7BC8CC963C";
shapes = (
{
closed = 1;
nodes = (
(752,-4,o),
(924,92,o),
(1028,256,c),
(898,-388,l),
(938,-388,l),
(1222,1034,l),
(1182,1034,l),
(1112,680,l),
(1072,896,o),
(894,1038,o),
(658,1038,cs),
(348,1038,o),
(100,776,o),
(100,448,cs),
(100,182,o),
(290,-4,o),
(562,-4,cs)
);
},
{
closed = 1;
nodes = (
(314,36,o),
(140,206,o),
(140,454,cs),
(140,756,o),
(370,998,o),
(654,998,cs),
(906,998,o),
(1080,828,o),
(1080,580,cs),
(1080,278,o),
(852,36,o),
(566,36,cs)
);
}
);
width = 1312;
}
);
leftKerningGroup = o;
rightKerningGroup = u;
unicode = 113;
}
{
glyphname = r;
layers = (
{
anchors = (
{
name = bottom;
position = "{214, 0}";
},
{
name = top;
position = "{652, 1094}";
}
);
layerId = "9043404F-E9C5-4B3E-B15A-843443318E3E";
shapes = (
{
closed = 1;
nodes = (
(212,1094,l),
(-6,0,l),
(444,0,l),
(662,1094,l)
);
},
{
closed = 1;
nodes = (
(986,1114,l),
(722,1114,o),
(526,908,o),
(456,560,c),
(546,504,l),
(574,648,o),
(738,740,o),
(934,710,c)
);
}
);
width = 914;
},
{
anchors = (
{
name = bottom;
position = "{171, 0}";
},
{
name = top;
position = "{599, 1062}";
}
);
layerId = "E14B12F3-6DA5-4EC4-9B8C-3BC58519F69C";
shapes = (
{
closed = 1;
nodes = (
(273,1062,l),
(61,0,l),
(291,0,l),
(503,1062,l)
);
},
{
closed = 1;
nodes = (
(865,1070,l),
(597,1068,o),
(403,888,o),
(331,532,c),
(389,504,l),
(431,712,o),
(609,872,o),
(837,862,c)
);
}
);
width = 788;
},
{
anchors = (
{
name = bottom;
position = "{137, 0}";
},
{
name = top;
position = "{545, 1034}";
}
);
layerId = "3412EF41-8D40-4AD8-A3E8-23555CC779E5";
shapes = (
{
closed = 1;
nodes = (
(323,1034,l),
(117,0,l),
(157,0,l),
(363,1034,l)
);
},
{
closed = 1;
nodes = (
(757,1034,l),
(483,1028,o),
(285,834,o),
(221,508,c),
(255,504,l),
(315,804,o),
(501,988,o),
(753,994,c)
);
}
);
width = 676;
}
);
leftKerningGroup = n;
rightKerningGroup = r;
unicode = 114;
}
{
glyphname = s;
layers = (
{
layerId = "29B9CE84-B220-456A-8944-7A2BD4A1BAAE";
associatedMasterId = "A09E50E2-67FC-4045-B7D7-901372DB4BBE";
name = "Bold (215)";
width = 1088;
},
{
layerId = "A5A080A4-A1C4-4979-9520-271CB173AC27";
associatedMasterId = "A09E50E2-67FC-4045-B7D7-901372DB4BBE";
name = "Bold (0)";
width = 1088;
},
{
anchors = (
{
name = bottom;
position = "{442, 0}";
},
{
name = top;
position = "{752, 1094}";
}
);
layerId = "A09E50E2-67FC-4045-B7D7-901372DB4BBE";
shapes = (
{
closed = 1;
nodes = (
(826,-18,o),
(1016,132,o),
(1016,352,cs),
(1016,662,o),
(534,678,o),
(534,768,cs),
(534,794,o),
(560,812,o),
(598,812,cs),
(680,812,o),
(812,756,o),
(952,662,c),
(1144,914,l),
(970,1040,o),
(768,1110,o),
(576,1110,cs),
(302,1110,o),
(114,956,o),
(114,732,cs),
(114,426,o),
(588,404,o),
(588,328,cs),
(588,298,o),
(566,284,o),
(514,284,cs),
(404,284,o),
(266,346,o),
(130,452,c),
(-50,196,l),
(108,60,o),
(324,-18,o),
(548,-18,cs)
);
}
);
width = 1104;
},
{
anchors = (
{
name = bottom;
position = "{365, 0}";
},
{
name = top;
position = "{637, 1062}";
}
);
layerId = "6D930887-645F-4E17-BAB2-3A566A02CAA9";
shapes = (
{
closed = 1;
nodes = (
(673,-10,o),
(839,124,o),
(839,316,cs),
(839,642,o),
(357,598,o),
(357,776,cs),
(357,844,o),
(425,896,o),
(515,896,cs),
(607,896,o),
(735,846,o),
(831,774,c),
(943,924,l),
(845,1012,o),
(675,1072,o),
(519,1072,cs),
(289,1072,o),
(133,944,o),
(133,756,cs),
(133,430,o),
(607,492,o),
(607,296,cs),
(607,218,o),
(535,164,o),
(431,164,cs),
(307,164,o),
(147,238,o),
(65,334,c),
(-37,188,l),
(57,72,o),
(253,-10,o),
(437,-10,cs)
);
}
);
width = 940;
},
{
anchors = (
{
name = bottom;
position = "{362, 0}";
},
{
name = top;
position = "{560, 1034}";
}
);
layerId = "9B3D3104-3922-4F2D-8412-46D902A9971C";
shapes = (
{
closed = 1;
nodes = (
(584,-18,o),
(744,90,o),
(744,278,cs),
(744,570,o),
(196,526,o),
(196,780,cs),
(196,926,o),
(318,1004,o),
(484,1004,cs),
(616,1004,o),
(722,966,o),
(792,908,c),
(818,940,l),
(740,998,o),
(636,1048,o),
(490,1048,cs),
(302,1048,o),
(154,950,o),
(154,774,cs),
(154,490,o),
(700,522,o),
(700,270,cs),
(700,118,o),
(566,26,o),
(388,26,cs),
(220,26,o),
(84,90,o),
(2,198,c),
(-30,170,l),
(52,54,o),
(206,-20,o),
(384,-20,cs)
);
}
);
width = 854;
}
);
leftKerningGroup = s;
rightKerningGroup = s;
unicode = 115;
}
{
glyphname = t;
layers = (
{
anchors = (
{
name = bottom;
position = "{431, 0}";
},
{
name = top;
position = "{541, 1340}";
},
{
name = topright;
position = "{895, 1484}";
}
);
layerId = "9043404F-E9C5-4B3E-B15A-843443318E3E";
shapes = (
{
closed = 1;
nodes = (
(319,1340,l),
(125,370,ls),
(79,142,o),
(223,-22,o),
(485,-20,cs),
(589,-20,o),
(715,-2,o),
(795,40,c),
(755,362,l),
(715,346,o),
(665,328,o),
(627,328,c),
(585,326,o),
(567,344,o),
(579,402,cs),
(767,1340,l)
);
},
{
closed = 1;
nodes = (
(125,1094,l),
(69,810,l),
(923,810,l),
(979,1094,l)
);
}
);
width = 920;
},
{
anchors = (
{
name = bottom;
position = "{384, 0}";
},
{
name = top;
position = "{468, 1312}";
},
{
name = topright;
position = "{774, 1484}";
}
);
layerId = "E14B12F3-6DA5-4EC4-9B8C-3BC58519F69C";
shapes = (
{
closed = 1;
nodes = (
(366,1314,l),
(164,306,ls),
(122,88,o),
(246,-10,o),
(414,-10,cs),
(496,-10,o),
(588,14,o),
(682,66,c),
(646,240,l),
(580,208,o),
(526,188,o),
(470,188,cs),
(406,188,o),
(374,212,o),
(396,326,cs),
(594,1314,l)
);
},
{
closed = 1;
nodes = (
(168,1062,l),
(136,898,l),
(828,898,l),
(860,1062,l)
);
}
);
width = 814;
},
{
anchors = (
{
name = bottom;
position = "{339, 0}";
},
{
name = top;
position = "{419, 1256}";
},
{
name = topright;
position = "{663, 1484}";
}
);
layerId = "3412EF41-8D40-4AD8-A3E8-23555CC779E5";
shapes = (
{
closed = 1;
nodes = (
(401,1260,l),
(207,286,ls),
(169,98,o),
(227,-2,o),
(373,0,cs),
(445,2,o),
(521,28,o),
(589,74,c),
(569,106,l),
(507,64,o),
(439,42,o),
(373,40,cs),
(257,38,o),
(213,122,o),
(245,282,cs),
(441,1260,l)
);
},
{
closed = 1;
nodes = (
(205,1034,l),
(197,994,l),
(753,994,l),
(761,1034,l)
);
}
);
width = 724;
}
);
leftKerningGroup = t;
rightKerningGroup = t;
unicode = 116;
}
{
glyphname = u;
layers = (
{
layerId = "2EE855AA-85F9-47CA-94A7-A51BA78824F4";
associatedMasterId = "A09E50E2-67FC-4045-B7D7-901372DB4BBE";
name = "Bold Aug 9 16, 18:46";
width = 1344;
},
{
anchors = (
{
name = bottom;
position = "{578, 0}";
},
{
name = ogonek;
position = "{1020, 0}";
},
{
name = top;
position = "{782, 1094}";
},
{
name = topright;
position = "{1212, 1094}";
},
{
name = topleft;
position = "{1272, 0}";
}
);
layerId = "A09E50E2-67FC-4045-B7D7-901372DB4BBE";
shapes = (
{
closed = 1;
nodes = (
(542,-16,o),
(652,38,o),
(738,136,c),
(712,0,l),
(1162,0,l),
(1378,1094,l),
(928,1094,l),
(822,560,ls),
(800,444,o),
(718,360,o),
(632,360,cs),
(556,360,o),
(516,420,o),
(534,512,cs),
(650,1094,l),
(200,1094,l),
(70,444,ls),
(18,186,o),
(170,-16,o),
(416,-16,cs)
);
}
);
width = 1344;
},
{
layerId = "2BF49F60-EC7E-412D-9AF2-1DEF84377986";
associatedMasterId = "6D930887-645F-4E17-BAB2-3A566A02CAA9";
name = "Regular Aug 9 16, 18:45";
width = 1306;
},
{
anchors = (
{
name = bottom;
position = "{601, 0}";
},
{
name = ogonek;
position = "{1042, 0}";
},
{
name = top;
position = "{758, 1062}";
},
{
name = topright;
position = "{1192, 1062}";
},
{
name = topleft;
position = "{1184, 0}";
}
);
layerId = "6D930887-645F-4E17-BAB2-3A566A02CAA9";
shapes = (
{
closed = 1;
nodes = (
(684,-14,o),
(800,42,o),
(884,154,c),
(854,0,l),
(1086,0,l),
(1296,1062,l),
(1066,1062,l),
(950,486,ls),
(912,302,o),
(778,180,o),
(614,180,cs),
(444,180,o),
(356,292,o),
(390,466,cs),
(508,1062,l),
(278,1062,l),
(152,438,ls),
(96,162,o),
(244,-14,o),
(532,-14,cs)
);
}
);
width = 1306;
},
{
anchors = (
{
name = bottom;
position = "{654, 0}";
},
{
name = ogonek;
position = "{959, 0}";
},
{
name = top;
position = "{739, 1034}";
},
{
name = topright;
position = "{1143, 1034}";
}
);
layerId = "9B3D3104-3922-4F2D-8412-46D902A9971C";
shapes = (
{
closed = 1;
nodes = (
(701,4,o),
(875,110,o),
(977,298,c),
(919,0,l),
(959,0,l),
(1163,1034,l),
(1123,1034,l),
(1019,502,ls),
(963,214,o),
(755,46,o),
(489,40,c),
(261,40,o),
(151,176,o),
(197,408,cs),
(321,1034,l),
(281,1034,l),
(157,408,ls),
(107,152,o),
(229,0,o),
(489,0,c)
);
}
);
width = 1274;
}
);
leftKerningGroup = u;
rightKerningGroup = u;
unicode = 117;
}
{
glyphname = v;
layers = (
{
layerId = "6A7A32D0-3BFD-43C1-930A-C854163D3177";
shapes = (
{
closed = 1;
nodes = (
(896,1094,l),
(580,408,l),
(546,1094,l),
(90,1094,l),
(272,0,l),
(732,0,l),
(1354,1094,l)
);
}
);
width = 1224;
},
{
layerId = "A3BFC84F-57DC-4376-84A1-AB8B7A21073A";
shapes = (
{
closed = 1;
nodes = (
(932,1062,l),
(468,212,l),
(344,1062,l),
(108,1062,l),
(308,0,l),
(546,0,l),
(1166,1062,l)
);
}
);
width = 1050;
},
{
layerId = "CC7E1963-6536-4D59-9993-97487CDAFD05";
shapes = (
{
closed = 1;
nodes = (
(968,1034,l),
(372,46,l),
(170,1034,l),
(124,1034,l),
(342,0,l),
(386,0,l),
(1016,1034,l)
);
}
);
width = 912;
}
);
leftKerningGroup = v;
rightKerningGroup = v;
unicode = 118;
}
{
glyphname = w;
layers = (
{
anchors = (
{
name = top;
position = "{1084, 1094}";
}
);
layerId = "A09E50E2-67FC-4045-B7D7-901372DB4BBE";
shapes = (
{
closed = 1;
nodes = (
(1642,1094,l),
(1338,442,l),
(1296,1094,l),
(880,1094,l),
(580,442,l),
(538,1094,l),
(90,1094,l),
(268,0,l),
(708,0,l),
(988,576,l),
(1026,0,l),
(1466,0,l),
(2084,1094,l)
);
}
);
width = 1954;
},
{
anchors = (
{
name = top;
position = "{998, 1062}";
}
);
layerId = "6D930887-645F-4E17-BAB2-3A566A02CAA9";
shapes = (
{
closed = 1;
nodes = (
(1664,1062,l),
(1222,212,l),
(1122,1062,l),
(884,1062,l),
(444,212,l),
(340,1062,l),
(108,1062,l),
(288,0,l),
(524,0,l),
(958,804,l),
(1064,0,l),
(1302,0,l),
(1902,1062,l)
);
}
);
width = 1786;
},
{
anchors = (
{
name = top;
position = "{922, 1034}";
}
);
layerId = "9B3D3104-3922-4F2D-8412-46D902A9971C";
shapes = (
{
closed = 1;
nodes = (
(1694,1034,l),
(1130,46,l),
(956,1034,l),
(908,1034,l),
(346,46,l),
(172,1034,l),
(124,1034,l),
(312,0,l),
(356,0,l),
(924,978,l),
(1096,0,l),
(1140,0,l),
(1740,1034,l)
);
}
);
width = 1636;
}
);
leftKerningGroup = v;
rightKerningGroup = v;
unicode = 119;
}
{
glyphname = x;
layers = (
{
anchors = (
{
name = top;
position = "{777, 1094}";
}
);
layerId = "9043404F-E9C5-4B3E-B15A-843443318E3E";
shapes = (
{
closed = 1;
nodes = (
(132,1094,l),
(360,560,l),
(-120,0,l),
(386,0,l),
(616,284,l),
(700,0,l),
(1208,0,l),
(962,562,l),
(1414,1094,l),
(912,1094,l),
(708,838,l),
(638,1094,l)
);
}
);
width = 1308;
},
{
anchors = (
{
name = top;
position = "{688, 1062}";
}
);
layerId = "E14B12F3-6DA5-4EC4-9B8C-3BC58519F69C";
shapes = (
{
closed = 1;
nodes = (
(164,1062,l),
(408,544,l),
(-78,0,l),
(182,0,l),
(538,398,l),
(708,0,l),
(968,0,l),
(712,544,l),
(1160,1062,l),
(904,1062,l),
(584,690,l),
(424,1062,l)
);
}
);
width = 1108;
},
{
anchors = (
{
name = top;
position = "{610, 1034}";
}
);
layerId = "3412EF41-8D40-4AD8-A3E8-23555CC779E5";
shapes = (
{
closed = 1;
nodes = (
(194,1034,l),
(464,536,l),
(-42,0,l),
(8,0,l),
(482,502,l),
(754,0,l),
(804,0,l),
(514,536,l),
(982,1034,l),
(934,1034,l),
(494,568,l),
(242,1034,l)
);
}
);
width = 978;
}
);
leftKerningGroup = x;
rightKerningGroup = x;
unicode = 120;
}
{
glyphname = y;
layers = (
{
anchors = (
{
name = bottom;
position = "{954, 0}";
},
{
name = top;
position = "{734, 1094}";
}
);
layerId = "9043404F-E9C5-4B3E-B15A-843443318E3E";
shapes = (
{
closed = 1;
nodes = (
(920,1094,l),
(524,288,l),
(642,270,l),
(526,1094,l),
(72,1094,l),
(310,34,l),
(284,10,l),
(254,-16,o),
(208,-48,o),
(144,-48,cs),
(102,-48,o),
(64,-40,o),
(24,4,c),
(-202,-270,l),
(-98,-358,o),
(12,-408,o),
(168,-408,cs),
(390,-408,o),
(556,-322,o),
(690,-92,cs),
(1376,1094,l)
);
}
);
width = 1248;
},
{
anchors = (
{
name = bottom;
position = "{766, 0}";
},
{
name = top;
position = "{638, 1062}";
}
);
layerId = "E14B12F3-6DA5-4EC4-9B8C-3BC58519F69C";
shapes = (
{
closed = 1;
nodes = (
(944,1062,l),
(432,152,l),
(500,140,l),
(330,1062,l),
(96,1062,l),
(324,14,l),
(272,-64,ls),
(216,-146,o),
(150,-192,o),
(72,-192,cs),
(32,-192,o),
(-6,-182,o),
(-50,-146,c),
(-170,-304,l),
(-104,-364,o),
(-36,-398,o),
(68,-398,cs),
(220,-398,o),
(352,-324,o),
(450,-158,cs),
(1178,1062,l)
);
}
);
width = 1062;
},
{
anchors = (
{
name = bottom;
position = "{584, 0}";
},
{
name = top;
position = "{560, 1034}";
}
);
layerId = "3412EF41-8D40-4AD8-A3E8-23555CC779E5";
shapes = (
{
closed = 1;
nodes = (
(968,1034,l),
(366,30,l),
(380,28,l),
(170,1034,l),
(124,1034,l),
(346,-4,l),
(266,-134,ls),
(184,-266,o),
(82,-348,o),
(-22,-348,cs),
(-80,-348,o),
(-134,-332,o),
(-172,-302,c),
(-196,-336,l),
(-152,-370,o),
(-92,-388,o),
(-18,-388,cs),
(90,-388,o),
(202,-306,o),
(296,-152,cs),
(1016,1034,l)
);
}
);
width = 912;
}
);
leftKerningGroup = v;
rightKerningGroup = v;
unicode = 121;
}
{
glyphname = z;
layers = (
{
anchors = (
{
name = bottom;
position = "{499, 0}";
},
{
name = top;
position = "{677, 1094}";
}
);
layerId = "D4E38000-BFB5-44FC-A51C-4288F8544A0D";
shapes = (
{
closed = 1;
nodes = (
(181,1094,l),
(115,758,l),
(547,758,l),
(-9,262,l),
(-57,0,l),
(987,0,l),
(1055,336,l),
(583,336,l),
(1137,832,l),
(1185,1094,l)
);
}
);
width = 1136;
},
{
anchors = (
{
name = bottom;
position = "{472, 0}";
},
{
name = top;
position = "{644, 1062}";
}
);
layerId = "196BCA4D-4EBA-41D5-BBFD-A0C7C55F9EA0";
shapes = (
{
closed = 1;
nodes = (
(216,1062,l),
(182,886,l),
(768,884,l),
(14,148,l),
(-14,0,l),
(894,-2,l),
(930,176,l),
(306,176,l),
(1062,912,l),
(1090,1060,l)
);
}
);
width = 1074;
},
{
anchors = (
{
name = bottom;
position = "{466, 0}";
},
{
name = top;
position = "{614, 1034}";
}
);
layerId = "FAA95C36-2A9A-4A6A-AE16-672F8292957B";
shapes = (
{
closed = 1;
nodes = (
(244,1034,l),
(236,994,l),
(958,992,l),
(30,50,l),
(20,0,l),
(814,-2,l),
(822,38,l),
(68,40,l),
(996,982,l),
(1006,1032,l)
);
}
);
width = 1020;
}
);
leftKerningGroup = z;
rightKerningGroup = z;
unicode = 122;
}
{
glyphname = braceleft;
layers = (
{
layerId = "6A7A32D0-3BFD-43C1-930A-C854163D3177";
shapes = (
{
closed = 1;
nodes = (
(671,1040,ls),
(689,1132,o),
(729,1158,o),
(857,1158,c),
(923,1488,l),
(747,1488,ls),
(457,1488,o),
(345,1412,o),
(299,1182,cs),
(235,856,ls),
(225,804,o),
(205,788,o),
(159,788,cs),
(69,788,l),
(1,448,l),
(91,448,ls),
(137,448,o),
(149,432,o),
(139,380,cs),
(75,54,ls),
(29,-176,o),
(109,-252,o),
(399,-252,cs),
(575,-252,l),
(641,78,l),
(515,78,o),
(485,104,o),
(503,196,cs),
(533,350,ls),
(565,512,o),
(529,580,o),
(395,618,c),
(541,648,o),
(609,724,o),
(641,886,cs)
);
}
);
width = 754;
},
{
layerId = "A3BFC84F-57DC-4376-84A1-AB8B7A21073A";
shapes = (
{
closed = 1;
nodes = (
(575,1170,ls),
(595,1274,o),
(655,1312,o),
(793,1312,c),
(829,1486,l),
(743,1486,ls),
(519,1486,o),
(419,1416,o),
(383,1234,cs),
(299,816,ls),
(283,738,o),
(251,706,o),
(189,706,cs),
(127,706,l),
(91,528,l),
(153,528,ls),
(215,528,o),
(235,494,o),
(219,418,cs),
(135,0,ls),
(99,-182,o),
(171,-252,o),
(395,-252,cs),
(481,-252,l),
(517,-78,l),
(379,-78,o),
(335,-38,o),
(355,64,cs),
(423,404,ls),
(449,532,o),
(423,586,o),
(327,616,c),
(429,636,o),
(481,698,o),
(507,828,cs)
);
}
);
width = 690;
},
{
layerId = "CC7E1963-6536-4D59-9993-97487CDAFD05";
shapes = (
{
closed = 1;
nodes = (
(491,1280,ls),
(513,1392,o),
(593,1444,o),
(741,1444,c),
(749,1484,l),
(739,1484,ls),
(571,1484,o),
(479,1420,o),
(451,1280,cs),
(351,780,ls),
(331,684,o),
(287,636,o),
(213,636,cs),
(175,636,l),
(167,596,l),
(205,596,ls),
(279,596,o),
(307,550,o),
(287,452,cs),
(187,-48,ls),
(159,-188,o),
(223,-252,o),
(391,-252,cs),
(401,-252,l),
(409,-212,l),
(261,-212,o),
(205,-160,o),
(227,-48,cs),
(327,452,ls),
(345,546,o),
(331,592,o),
(279,614,c),
(337,630,o),
(371,680,o),
(391,780,cs)
);
}
);
width = 634;
}
);
leftKerningGroup = braceleft;
rightKerningGroup = braceleft;
unicode = 123;
}
{
glyphname = bar;
layers = (
{
layerId = "288DB91C-ADA9-4EAE-B002-103CECDA4F2F";
shapes = (
{
closed = 1;
nodes = (
(369,1592,l),
(9,-206,l),
(341,-206,l),
(701,1592,l)
);
}
);
width = 652;
},
{
layerId = "DF367E9D-3B3B-43F4-BC7A-7EE40495C523";
shapes = (
{
closed = 1;
nodes = (
(399,1622,l),
(27,-234,l),
(203,-234,l),
(575,1622,l)
);
}
);
width = 538;
},
{
layerId = "FADC2794-F71C-487D-BA21-AA7BC8CC963C";
shapes = (
{
closed = 1;
nodes = (
(427,1648,l),
(45,-258,l),
(85,-258,l),
(467,1648,l)
);
}
);
width = 440;
}
);
leftKerningGroup = bar;
rightKerningGroup = bar;
unicode = 124;
}
{
glyphname = braceright;
layers = (
{
layerId = "A09E50E2-67FC-4045-B7D7-901372DB4BBE";
shapes = (
{
closed = 1;
nodes = (
(125,196,ls),
(107,104,o),
(67,78,o),
(-61,78,c),
(-127,-252,l),
(49,-252,ls),
(339,-252,o),
(451,-176,o),
(497,54,cs),
(561,380,ls),
(571,432,o),
(591,448,o),
(637,448,cs),
(727,448,l),
(795,788,l),
(705,788,ls),
(659,788,o),
(647,804,o),
(657,856,cs),
(721,1182,ls),
(767,1412,o),
(687,1488,o),
(397,1488,cs),
(221,1488,l),
(155,1158,l),
(281,1158,o),
(311,1132,o),
(293,1040,cs),
(263,886,ls),
(231,724,o),
(267,656,o),
(401,618,c),
(255,588,o),
(187,512,o),
(155,350,cs)
);
}
);
width = 754;
},
{
layerId = "6D930887-645F-4E17-BAB2-3A566A02CAA9";
shapes = (
{
closed = 1;
nodes = (
(158,66,ls),
(138,-38,o),
(78,-76,o),
(-60,-76,c),
(-96,-250,l),
(-10,-250,ls),
(214,-250,o),
(314,-180,o),
(350,2,cs),
(434,420,ls),
(450,498,o),
(482,530,o),
(544,530,cs),
(606,530,l),
(642,708,l),
(580,708,ls),
(518,708,o),
(498,742,o),
(514,818,cs),
(598,1236,ls),
(634,1418,o),
(562,1488,o),
(338,1488,cs),
(252,1488,l),
(216,1314,l),
(354,1314,o),
(398,1274,o),
(378,1172,cs),
(310,832,ls),
(284,704,o),
(310,650,o),
(406,620,c),
(304,600,o),
(252,538,o),
(226,408,cs)
);
}
);
width = 690;
},
{
layerId = "9B3D3104-3922-4F2D-8412-46D902A9971C";
shapes = (
{
closed = 1;
nodes = (
(186,-44,ls),
(164,-156,o),
(84,-208,o),
(-64,-208,c),
(-72,-248,l),
(-62,-248,ls),
(106,-248,o),
(198,-184,o),
(226,-44,cs),
(326,456,ls),
(346,552,o),
(390,600,o),
(464,600,cs),
(502,600,l),
(510,640,l),
(472,640,ls),
(398,640,o),
(370,686,o),
(390,784,cs),
(490,1284,ls),
(518,1424,o),
(454,1488,o),
(286,1488,cs),
(276,1488,l),
(268,1448,l),
(416,1448,o),
(472,1396,o),
(450,1284,cs),
(350,784,ls),
(332,690,o),
(346,644,o),
(398,622,c),
(340,606,o),
(306,556,o),
(286,456,cs)
);
}
);
width = 634;
}
);
leftKerningGroup = braceright;
rightKerningGroup = braceright;
unicode = 125;
}
{
glyphname = asciitilde;
layers = (
{
layerId = "9043404F-E9C5-4B3E-B15A-843443318E3E";
shapes = (
{
closed = 1;
nodes = (
(230,862,o),
(130,734,o),
(76,460,c),
(374,460,l),
(386,516,o),
(406,542,o),
(442,542,cs),
(494,542,o),
(534,454,o),
(672,454,cs),
(846,454,o),
(952,582,o),
(1008,856,c),
(712,856,l),
(700,800,o),
(670,774,o),
(634,774,cs),
(582,774,o),
(542,862,o),
(404,862,cs)
);
}
);
width = 1040;
},
{
layerId = "E14B12F3-6DA5-4EC4-9B8C-3BC58519F69C";
shapes = (
{
closed = 1;
nodes = (
(241,790,o),
(165,698,o),
(129,518,c),
(289,518,l),
(301,584,o),
(335,620,o),
(387,620,cs),
(469,620,o),
(531,504,o),
(667,504,cs),
(795,504,o),
(877,596,o),
(913,776,c),
(755,776,l),
(741,710,o),
(699,674,o),
(649,674,cs),
(567,674,o),
(497,790,o),
(369,790,cs)
);
}
);
width = 996;
},
{
layerId = "3412EF41-8D40-4AD8-A3E8-23555CC779E5";
shapes = (
{
closed = 1;
nodes = (
(250,720,o),
(194,660,o),
(174,560,c),
(214,560,l),
(230,636,o),
(274,680,o),
(338,680,cs),
(446,680,o),
(526,540,o),
(660,540,cs),
(748,540,o),
(812,600,o),
(832,700,c),
(792,700,l),
(778,624,o),
(724,580,o),
(660,580,cs),
(554,580,o),
(456,720,o),
(338,720,cs)
);
}
);
width = 960;
}
);
leftKerningGroup = hyphen;
rightKerningGroup = hyphen;
unicode = 126;
}
{
glyphname = exclamdown;
widthMetricsKey = "=420";
layers = (
{
layerId = "D4E38000-BFB5-44FC-A51C-4288F8544A0D";
shapes = (
{
closed = 1;
nodes = (
(341,-338,l),
(413,30,l),
(435,546,l),
(167,546,l),
(-15,30,l),
(-87,-338,l)
);
},
{
closed = 1;
nodes = (
(465,668,o),
(563,756,o),
(563,894,cs),
(563,1004,o),
(489,1078,o),
(377,1078,cs),
(247,1078,o),
(153,982,o),
(153,852,cs),
(153,742,o),
(227,668,o),
(341,668,cs)
);
}
);
width = 588;
},
{
layerId = "196BCA4D-4EBA-41D5-BBFD-A0C7C55F9EA0";
shapes = (
{
closed = 1;
nodes = (
(124,-338,l),
(195,24,l),
(279,622,l),
(133,622,l),
(-23,24,l),
(-94,-338,l)
);
},
{
closed = 1;
nodes = (
(331,826,o),
(391,886,o),
(391,964,cs),
(391,1032,o),
(345,1080,o),
(277,1080,cs),
(199,1080,o),
(139,1018,o),
(139,940,cs),
(139,872,o),
(185,826,o),
(253,826,cs)
);
}
);
width = 420;
},
{
layerId = "FAA95C36-2A9A-4A6A-AE16-672F8292957B";
shapes = (
{
closed = 1;
nodes = (
(40,-338,l),
(111,22,l),
(243,686,l),
(203,686,l),
(71,22,l),
(0,-338,l)
);
},
{
closed = 1;
nodes = (
(313,972,o),
(339,998,o),
(339,1028,cs),
(339,1056,o),
(319,1076,o),
(291,1076,cs),
(261,1076,o),
(235,1050,o),
(235,1020,cs),
(235,992,o),
(255,972,o),
(283,972,cs)
);
}
);
width = 384;
}
);
leftKerningGroup = exclamdown;
rightKerningGroup = exclamdown;
unicode = 161;
}
{
glyphname = cent;
layers = (
{
anchors = (
{
name = bottom;
position = "{531, 0}";
},
{
name = top;
position = "{711, 1094}";
}
);
layerId = "FCBE0D3F-305A-4B26-ABA3-05651CFDD837";
shapes = (
{
closed = 1;
nodes = (
(413,236,l),
(301,-330,l),
(633,-330,l),
(745,236,l)
);
},
{
closed = 1;
nodes = (
(649,1428,l),
(555,958,l),
(887,958,l),
(981,1428,l)
);
},
{
closed = 1;
nodes = (
(827,-16,o),
(1031,96,o),
(1129,290,c),
(783,458,l),
(751,376,o),
(701,340,o),
(637,340,cs),
(557,340,o),
(511,408,o),
(511,514,cs),
(511,652,o),
(579,746,o),
(677,746,cs),
(741,746,o),
(785,708,o),
(807,642,c),
(1179,794,l),
(1109,994,o),
(931,1110,o),
(693,1110,cs),
(315,1110,o),
(55,858,o),
(55,484,cs),
(55,180,o),
(255,-16,o),
(577,-16,cs)
);
}
);
width = 1200;
},
{
anchors = (
{
name = bottom;
position = "{514, 0}";
},
{
name = top;
position = "{706, 1062}";
}
);
layerId = "5BDD1EDE-DE70-4338-9338-A02B2C6AE01A";
shapes = (
{
closed = 1;
nodes = (
(446,94,l),
(372,-280,l),
(546,-280,l),
(620,94,l)
);
},
{
closed = 1;
nodes = (
(696,1364,l),
(614,940,l),
(790,940,l),
(872,1364,l)
);
},
{
closed = 1;
nodes = (
(776,-8,o),
(936,62,o),
(1044,182,c),
(928,308,l),
(850,222,o),
(736,178,o),
(602,178,cs),
(432,178,o),
(318,306,o),
(318,492,cs),
(318,720,o),
(472,880,o),
(672,880,cs),
(800,880,o),
(898,834,o),
(964,758,c),
(1104,906,l),
(1016,1010,o),
(872,1070,o),
(682,1070,cs),
(342,1070,o),
(88,824,o),
(88,476,cs),
(88,188,o),
(280,-8,o),
(572,-8,cs)
);
}
);
width = 1200;
},
{
anchors = (
{
name = bottom;
position = "{557, 0}";
},
{
name = top;
position = "{677, 1034}";
}
);
layerId = "A3D6E1CA-B1BA-4595-96B0-7801BFB529A2";
shapes = (
{
closed = 1;
nodes = (
(495,32,l),
(431,-278,l),
(471,-278,l),
(535,32,l)
);
},
{
closed = 1;
nodes = (
(743,1308,l),
(685,1010,l),
(725,1010,l),
(783,1308,l)
);
},
{
closed = 1;
nodes = (
(735,0,o),
(873,60,o),
(973,162,c),
(949,190,l),
(857,94,o),
(729,40,o),
(587,40,cs),
(337,40,o),
(167,216,o),
(167,470,cs),
(167,776,o),
(393,994,o),
(681,994,cs),
(811,994,o),
(917,946,o),
(995,868,c),
(1023,896,l),
(941,982,o),
(823,1034,o),
(685,1034,cs),
(377,1034,o),
(129,794,o),
(129,468,cs),
(129,194,o),
(315,0,o),
(583,0,cs)
);
}
);
width = 1200;
}
);
leftKerningGroup = o;
rightKerningGroup = c;
unicode = 162;
}
{
glyphname = sterling;
layers = (
{
layerId = "9043404F-E9C5-4B3E-B15A-843443318E3E";
shapes = (
{
closed = 1;
nodes = (
(554,1422,o),
(328,1242,o),
(266,928,cs),
(110,148,l),
(352,346,l),
(10,346,l),
(-60,0,l),
(1022,0,l),
(1092,346,l),
(414,346,l),
(576,148,l),
(730,918,ls),
(746,998,o),
(790,1036,o),
(860,1036,cs),
(928,1036,o),
(998,996,o),
(1068,918,c),
(1304,1258,l),
(1208,1364,o),
(1056,1422,o),
(886,1422,cs)
);
},
{
closed = 1;
nodes = (
(62,606,l),
(986,606,l),
(1014,746,l),
(90,746,l)
);
}
);
width = 1152;
},
{
layerId = "E14B12F3-6DA5-4EC4-9B8C-3BC58519F69C";
shapes = (
{
closed = 1;
nodes = (
(570,1410,o),
(384,1250,o),
(328,968,cs),
(150,80,l),
(274,182,l),
(4,182,l),
(-32,0,l),
(930,0,l),
(966,182,l),
(302,182,l),
(386,80,l),
(562,964,ls),
(594,1126,o),
(688,1210,o),
(826,1210,cs),
(924,1210,o),
(1008,1156,o),
(1074,1056,c),
(1202,1228,l),
(1122,1344,o),
(994,1410,o),
(842,1410,cs)
);
},
{
closed = 1;
nodes = (
(96,644,l),
(850,644,l),
(874,764,l),
(120,764,l)
);
}
);
width = 1094;
},
{
layerId = "3412EF41-8D40-4AD8-A3E8-23555CC779E5";
shapes = (
{
closed = 1;
nodes = (
(588,1400,o),
(440,1262,o),
(390,1008,cs),
(192,22,l),
(214,40,l),
(8,40,l),
(0,0,l),
(862,0,l),
(870,40,l),
(218,40,l),
(232,22,l),
(428,1004,ls),
(474,1234,o),
(610,1360,o),
(810,1360,cs),
(934,1360,o),
(1030,1298,o),
(1088,1178,c),
(1122,1202,l),
(1058,1328,o),
(948,1400,o),
(810,1400,cs)
);
},
{
closed = 1;
nodes = (
(132,660,l),
(744,660,l),
(752,700,l),
(140,700,l)
);
}
);
width = 1066;
}
);
leftKerningGroup = lira;
rightKerningGroup = F.ss01;
unicode = 163;
}
{
glyphname = currency;
layers = (
{
layerId = "288DB91C-ADA9-4EAE-B002-103CECDA4F2F";
shapes = (
{
closed = 1;
nodes = (
(430,1154,o),
(202,926,o),
(202,646,cs),
(202,366,o),
(430,138,o),
(710,138,cs),
(990,138,o),
(1218,366,o),
(1218,646,cs),
(1218,926,o),
(992,1154,o),
(710,1154,cs)
);
},
{
closed = 1;
nodes = (
(48,222,l),
(298,-28,l),
(512,186,l),
(262,436,l)
);
},
{
closed = 1;
nodes = (
(910,186,l),
(1124,-28,l),
(1374,222,l),
(1160,436,l)
);
},
{
closed = 1;
nodes = (
(48,1048,l),
(262,834,l),
(512,1084,l),
(298,1298,l)
);
},
{
closed = 1;
nodes = (
(798,806,o),
(870,734,o),
(870,646,cs),
(870,558,o),
(798,488,o),
(710,488,cs),
(622,488,o),
(552,558,o),
(552,646,cs),
(552,734,o),
(622,806,o),
(710,806,cs)
);
},
{
closed = 1;
nodes = (
(910,1084,l),
(1160,834,l),
(1374,1048,l),
(1124,1298,l)
);
}
);
width = 1386;
},
{
layerId = "DF367E9D-3B3B-43F4-BC7A-7EE40495C523";
shapes = (
{
closed = 1;
nodes = (
(434,1166,o),
(194,930,o),
(194,638,cs),
(194,350,o),
(434,114,o),
(730,114,cs),
(1028,114,o),
(1270,350,o),
(1270,638,cs),
(1270,930,o),
(1028,1166,o),
(730,1166,cs)
);
},
{
closed = 1;
nodes = (
(90,124,l),
(220,-6,l),
(450,222,l),
(318,354,l)
);
},
{
closed = 1;
nodes = (
(1012,222,l),
(1240,-6,l),
(1372,124,l),
(1144,354,l)
);
},
{
closed = 1;
nodes = (
(90,1146,l),
(318,916,l),
(450,1048,l),
(220,1276,l)
);
},
{
closed = 1;
nodes = (
(926,984,o),
(1088,828,o),
(1088,638,cs),
(1088,450,o),
(926,296,o),
(730,296,cs),
(536,296,o),
(378,450,o),
(378,638,cs),
(378,828,o),
(536,984,o),
(730,984,cs)
);
},
{
closed = 1;
nodes = (
(1012,1048,l),
(1144,916,l),
(1372,1146,l),
(1240,1276,l)
);
}
);
width = 1422;
},
{
layerId = "FADC2794-F71C-487D-BA21-AA7BC8CC963C";
shapes = (
{
closed = 1;
nodes = (
(441,1178,o),
(189,932,o),
(189,632,cs),
(189,336,o),
(441,92,o),
(749,92,cs),
(1061,92,o),
(1315,336,o),
(1315,632,cs),
(1315,932,o),
(1061,1178,o),
(749,1178,cs)
);
},
{
closed = 1;
nodes = (
(127,40,l),
(155,12,l),
(397,254,l),
(367,282,l)
);
},
{
closed = 1;
nodes = (
(1101,254,l),
(1343,12,l),
(1371,40,l),
(1131,282,l)
);
},
{
closed = 1;
nodes = (
(127,1230,l),
(367,988,l),
(397,1016,l),
(155,1258,l)
);
},
{
closed = 1;
nodes = (
(1039,1138,o),
(1275,910,o),
(1275,632,cs),
(1275,358,o),
(1039,132,o),
(749,132,cs),
(463,132,o),
(229,358,o),
(229,632,cs),
(229,910,o),
(463,1138,o),
(749,1138,cs)
);
},
{
closed = 1;
nodes = (
(1101,1016,l),
(1131,988,l),
(1371,1230,l),
(1343,1258,l)
);
}
);
width = 1452;
}
);
leftKerningGroup = currency;
rightKerningGroup = currency;
unicode = 164;
}
{
glyphname = yen;
layers = (
{
layerId = "9043404F-E9C5-4B3E-B15A-843443318E3E";
shapes = (
{
closed = 1;
nodes = (
(1204,1400,l),
(734,694,l),
(912,672,l),
(652,1400,l),
(190,1400,l),
(680,40,l),
(736,40,l),
(1666,1400,l)
);
},
{
closed = 1;
nodes = (
(576,634,l),
(472,0,l),
(934,0,l),
(1038,634,l)
);
},
{
closed = 1;
nodes = (
(198,550,l),
(1382,550,l),
(1410,690,l),
(226,690,l)
);
},
{
closed = 1;
nodes = (
(154,320,l),
(1338,320,l),
(1366,460,l),
(182,460,l)
);
}
);
width = 1476;
},
{
layerId = "E14B12F3-6DA5-4EC4-9B8C-3BC58519F69C";
shapes = (
{
closed = 1;
nodes = (
(1213,1400,l),
(645,624,l),
(767,612,l),
(441,1400,l),
(203,1400,l),
(643,296,l),
(655,296,l),
(1453,1400,l)
);
},
{
closed = 1;
nodes = (
(571,590,l),
(475,0,l),
(711,0,l),
(807,590,l)
);
},
{
closed = 1;
nodes = (
(177,474,l),
(1177,474,l),
(1201,594,l),
(201,594,l)
);
},
{
closed = 1;
nodes = (
(131,234,l),
(1131,234,l),
(1155,354,l),
(155,354,l)
);
}
);
width = 1270;
},
{
layerId = "3412EF41-8D40-4AD8-A3E8-23555CC779E5";
shapes = (
{
closed = 1;
nodes = (
(1322,1400,l),
(636,564,l),
(658,562,l),
(246,1400,l),
(198,1400,l),
(638,516,l),
(648,516,l),
(1370,1400,l)
);
},
{
closed = 1;
nodes = (
(628,554,l),
(536,0,l),
(576,0,l),
(668,554,l)
);
},
{
closed = 1;
nodes = (
(194,516,l),
(1080,516,l),
(1088,556,l),
(202,556,l)
);
},
{
closed = 1;
nodes = (
(160,296,l),
(1046,296,l),
(1054,336,l),
(168,336,l)
);
}
);
width = 1214;
}
);
leftKerningGroup = yen;
rightKerningGroup = yen;
unicode = 165;
}
{
glyphname = brokenbar;
layers = (
{
layerId = "9043404F-E9C5-4B3E-B15A-843443318E3E";
shapes = (
{
closed = 1;
nodes = (
(145,472,l),
(9,-206,l),
(341,-206,l),
(477,472,l)
);
},
{
closed = 1;
nodes = (
(369,1592,l),
(233,914,l),
(565,914,l),
(701,1592,l)
);
}
);
width = 652;
},
{
layerId = "E14B12F3-6DA5-4EC4-9B8C-3BC58519F69C";
shapes = (
{
closed = 1;
nodes = (
(167,460,l),
(27,-234,l),
(203,-234,l),
(343,460,l)
);
},
{
closed = 1;
nodes = (
(399,1622,l),
(261,930,l),
(437,930,l),
(575,1622,l)
);
}
);
width = 538;
},
{
layerId = "3412EF41-8D40-4AD8-A3E8-23555CC779E5";
shapes = (
{
closed = 1;
nodes = (
(187,448,l),
(45,-258,l),
(85,-258,l),
(227,448,l)
);
},
{
closed = 1;
nodes = (
(427,1648,l),
(285,942,l),
(325,942,l),
(467,1648,l)
);
}
);
width = 440;
}
);
leftKerningGroup = brokenbar;
rightKerningGroup = brokenbar;
unicode = 166;
}
{
glyphname = section;
layers = (
{
layerId = "9043404F-E9C5-4B3E-B15A-843443318E3E";
shapes = (
{
closed = 1;
nodes = (
(757,-172,o),
(967,-30,o),
(967,144,cs),
(967,200,o),
(947,256,o),
(907,308,c),
(1065,370,o),
(1149,476,o),
(1149,612,cs),
(1149,908,o),
(643,958,o),
(643,1052,cs),
(643,1072,o),
(661,1082,o),
(693,1082,cs),
(777,1082,o),
(917,1022,o),
(1059,926,c),
(1247,1186,l),
(1073,1310,o),
(877,1376,o),
(683,1376,cs),
(431,1376,o),
(229,1234,o),
(229,1054,cs),
(229,998,o),
(249,944,o),
(287,892,c),
(129,832,o),
(47,726,o),
(47,586,cs),
(47,292,o),
(541,242,o),
(541,156,cs),
(541,136,o),
(525,128,o),
(489,128,cs),
(383,128,o),
(235,192,o),
(89,302,c),
(-87,38,l),
(67,-94,o),
(285,-172,o),
(499,-172,cs)
);
},
{
closed = 1;
nodes = (
(553,548,o),
(463,586,o),
(463,622,cs),
(463,648,o),
(489,662,o),
(537,662,cs),
(631,662,o),
(721,624,o),
(721,584,cs),
(721,560,o),
(693,548,o),
(641,548,cs)
);
}
);
width = 1172;
},
{
layerId = "E14B12F3-6DA5-4EC4-9B8C-3BC58519F69C";
shapes = (
{
closed = 1;
nodes = (
(653,-164,o),
(817,-38,o),
(817,144,cs),
(817,222,o),
(777,280,o),
(683,334,c),
(837,360,o),
(955,482,o),
(955,620,cs),
(955,920,o),
(439,902,o),
(439,1096,cs),
(439,1174,o),
(509,1224,o),
(621,1224,cs),
(719,1224,o),
(835,1180,o),
(943,1104,c),
(1041,1232,l),
(923,1324,o),
(771,1376,o),
(619,1376,cs),
(391,1376,o),
(235,1256,o),
(235,1080,cs),
(235,1002,o),
(283,942,o),
(395,878,c),
(207,854,o),
(97,752,o),
(97,602,cs),
(97,308,o),
(607,322,o),
(607,126,cs),
(607,48,o),
(521,-10,o),
(405,-10,cs),
(275,-10,o),
(141,52,o),
(33,162,c),
(-65,34,l),
(49,-88,o),
(233,-164,o),
(417,-164,cs)
);
},
{
closed = 1;
nodes = (
(417,458,o),
(303,530,o),
(303,624,cs),
(303,706,o),
(371,756,o),
(483,756,cs),
(637,756,o),
(745,690,o),
(745,596,cs),
(745,510,o),
(677,458,o),
(565,458,cs)
);
}
);
width = 998;
},
{
layerId = "3412EF41-8D40-4AD8-A3E8-23555CC779E5";
shapes = (
{
closed = 1;
nodes = (
(560,-154,o),
(704,-38,o),
(704,124,cs),
(704,216,o),
(640,288,o),
(502,350,c),
(674,350,o),
(810,476,o),
(810,636,cs),
(810,908,o),
(280,878,o),
(280,1120,cs),
(280,1250,o),
(390,1336,o),
(558,1336,cs),
(680,1336,o),
(790,1300,o),
(854,1240,c),
(884,1268,l),
(800,1338,o),
(692,1374,o),
(564,1374,cs),
(370,1374,o),
(242,1272,o),
(242,1118,cs),
(242,1014,o),
(322,936,o),
(504,864,c),
(274,872,o),
(136,776,o),
(136,608,cs),
(136,332,o),
(666,360,o),
(666,122,cs),
(666,-16,o),
(536,-114,o),
(350,-114,cs),
(198,-114,o),
(68,-52,o),
(-10,54,c),
(-44,28,l),
(42,-88,o),
(188,-154,o),
(356,-154,cs)
);
},
{
closed = 1;
nodes = (
(328,388,o),
(178,504,o),
(178,632,cs),
(178,750,o),
(290,828,o),
(458,828,cs),
(646,828,o),
(770,748,o),
(770,626,cs),
(770,492,o),
(648,388,o),
(490,388,cs)
);
}
);
width = 862;
}
);
leftKerningGroup = section;
rightKerningGroup = section;
unicode = 167;
}
{
glyphname = copyright;
layers = (
{
layerId = "D4E38000-BFB5-44FC-A51C-4288F8544A0D";
shapes = (
{
closed = 1;
nodes = (
(357,1378,o),
(61,1066,o),
(61,696,cs),
(61,326,o),
(355,18,o),
(735,18,cs),
(1117,18,o),
(1415,330,o),
(1415,700,cs),
(1415,1072,o),
(1119,1378,o),
(739,1378,cs)
);
},
{
closed = 1;
nodes = (
(1007,1178,o),
(1215,962,o),
(1215,700,cs),
(1215,438,o),
(1007,218,o),
(735,218,cs),
(467,218,o),
(261,434,o),
(261,696,cs),
(261,958,o),
(469,1178,o),
(739,1178,cs)
);
},
{
closed = 1;
nodes = (
(555,1020,o),
(411,884,o),
(411,698,cs),
(411,510,o),
(551,374,o),
(745,374,cs),
(843,374,o),
(949,422,o),
(1019,500,c),
(899,628,l),
(857,584,o),
(801,556,o),
(757,556,cs),
(681,556,o),
(625,616,o),
(625,702,cs),
(625,786,o),
(681,846,o),
(757,846,cs),
(805,846,o),
(861,812,o),
(899,760,c),
(1019,904,l),
(955,974,o),
(849,1020,o),
(753,1020,cs)
);
}
);
width = 1414;
},
{
layerId = "196BCA4D-4EBA-41D5-BBFD-A0C7C55F9EA0";
shapes = (
{
closed = 1;
nodes = (
(397,1378,o),
(101,1066,o),
(101,696,cs),
(101,326,o),
(395,18,o),
(775,18,cs),
(1157,18,o),
(1455,330,o),
(1455,700,cs),
(1455,1072,o),
(1159,1378,o),
(779,1378,cs)
);
},
{
closed = 1;
nodes = (
(1097,1264,o),
(1341,1010,o),
(1341,700,cs),
(1341,390,o),
(1095,132,o),
(775,132,cs),
(457,132,o),
(215,386,o),
(215,696,cs),
(215,1006,o),
(459,1264,o),
(779,1264,cs)
);
},
{
closed = 1;
nodes = (
(587,1042,o),
(429,892,o),
(429,698,cs),
(429,502,o),
(585,350,o),
(785,350,cs),
(883,350,o),
(981,394,o),
(1051,462,c),
(981,536,l),
(929,486,o),
(857,456,o),
(791,456,cs),
(655,456,o),
(549,564,o),
(549,700,cs),
(549,834,o),
(655,940,o),
(791,940,cs),
(861,940,o),
(929,908,o),
(981,856,c),
(1051,936,l),
(983,1002,o),
(885,1042,o),
(789,1042,cs)
);
}
);
width = 1490;
},
{
layerId = "FAA95C36-2A9A-4A6A-AE16-672F8292957B";
shapes = (
{
closed = 1;
nodes = (
(433,1378,o),
(137,1066,o),
(137,696,cs),
(137,326,o),
(431,18,o),
(811,18,cs),
(1193,18,o),
(1491,330,o),
(1491,700,cs),
(1491,1072,o),
(1195,1378,o),
(815,1378,cs)
);
},
{
closed = 1;
nodes = (
(1175,1338,o),
(1451,1052,o),
(1451,700,cs),
(1451,350,o),
(1173,58,o),
(811,58,cs),
(451,58,o),
(177,346,o),
(177,696,cs),
(177,1046,o),
(453,1338,o),
(815,1338,cs)
);
},
{
closed = 1;
nodes = (
(615,1062,o),
(447,898,o),
(447,698,cs),
(447,496,o),
(615,332,o),
(821,332,cs),
(919,332,o),
(1011,370,o),
(1079,432,c),
(1053,458,l),
(991,404,o),
(909,372,o),
(823,372,cs),
(637,372,o),
(487,518,o),
(487,698,cs),
(487,876,o),
(637,1022,o),
(823,1022,cs),
(911,1022,o),
(991,990,o),
(1053,936,c),
(1079,964,l),
(1011,1024,o),
(919,1062,o),
(823,1062,cs)
);
}
);
width = 1554;
}
);
leftKerningGroup = O;
rightKerningGroup = O;
unicode = 169;
}
{
glyphname = ordfeminine;
layers = (
{
layerId = "D4E38000-BFB5-44FC-A51C-4288F8544A0D";
shapes = (
{
closed = 1;
nodes = (
(467,1430,o),
(351,1408,o),
(233,1370,c),
(261,1176,l),
(339,1200,o),
(413,1214,o),
(459,1214,cs),
(541,1214,o),
(576,1192,o),
(567,1148,cs),
(489,758,l),
(787,758,l),
(873,1184,ls),
(905,1342,o),
(791,1430,o),
(555,1430,cs)
);
},
{
closed = 1;
nodes = (
(595,1158,l),
(415,1158,l),
(229,1156,o),
(129,1096,o),
(105,970,c),
(73,836,o),
(167,744,o),
(335,744,cs),
(425,744,o),
(501,798,o),
(549,894,c),
(533,970,l),
(505,944,o),
(471,930,o),
(439,930,cs),
(403,930,o),
(387,948,o),
(393,978,cs),
(399,1008,o),
(421,1024,o),
(453,1024,cs),
(569,1024,l)
);
}
);
width = 800;
},
{
layerId = "196BCA4D-4EBA-41D5-BBFD-A0C7C55F9EA0";
shapes = (
{
closed = 1;
nodes = (
(471,1414,o),
(377,1390,o),
(265,1340,c),
(283,1232,l),
(367,1274,o),
(435,1294,o),
(491,1294,cs),
(603,1294,o),
(653,1252,o),
(637,1172,cs),
(559,778,l),
(719,778,l),
(801,1190,ls),
(829,1332,o),
(737,1414,o),
(551,1414,cs)
);
},
{
closed = 1;
nodes = (
(651,1152,l),
(437,1152,l),
(269,1150,o),
(176,1084,o),
(153,974,cs),
(130,862,o),
(215,772,o),
(349,772,cs),
(469,772,o),
(551,820,o),
(617,930,c),
(601,980,l),
(553,910,o),
(487,876,o),
(405,876,cs),
(333,876,o),
(296,914,o),
(307,974,cs),
(318,1030,o),
(369,1052,o),
(453,1052,cs),
(635,1052,l)
);
}
);
width = 770;
},
{
layerId = "FAA95C36-2A9A-4A6A-AE16-672F8292957B";
shapes = (
{
closed = 1;
nodes = (
(471,1408,o),
(387,1380,o),
(293,1322,c),
(309,1290,l),
(395,1344,o),
(469,1370,o),
(545,1370,cs),
(667,1370,o),
(722,1312,o),
(701,1204,cs),
(625,804,l),
(665,804,l),
(741,1202,ls),
(765,1330,o),
(695,1408,o),
(551,1408,cs)
);
},
{
closed = 1;
nodes = (
(703,1136,l),
(439,1136,ls),
(293,1136,o),
(214,1078,o),
(195,982,cs),
(174,878,o),
(251,804,o),
(377,804,cs),
(509,804,o),
(607,860,o),
(681,978,c),
(661,998,l),
(597,892,o),
(501,838,o),
(375,838,cs),
(275,838,o),
(219,892,o),
(235,976,cs),
(251,1058,o),
(313,1104,o),
(439,1104,cs),
(695,1104,l)
);
}
);
width = 744;
}
);
leftKerningGroup = asterisk;
rightKerningGroup = asterisk;
unicode = 170;
}
{
glyphname = logicalnot;
layers = (
{
layerId = "D4E38000-BFB5-44FC-A51C-4288F8544A0D";
shapes = (
{
closed = 1;
nodes = (
(130,898,l),
(74,618,l),
(1094,618,l),
(1150,898,l)
);
},
{
closed = 1;
nodes = (
(1150,898,l),
(830,898,l),
(702,258,l),
(1022,258,l)
);
}
);
width = 1190;
},
{
layerId = "196BCA4D-4EBA-41D5-BBFD-A0C7C55F9EA0";
shapes = (
{
closed = 1;
nodes = (
(115,802,l),
(85,652,l),
(987,652,l),
(1017,802,l)
);
},
{
closed = 1;
nodes = (
(1017,802,l),
(847,802,l),
(745,292,l),
(915,292,l)
);
}
);
width = 1122;
},
{
layerId = "FAA95C36-2A9A-4A6A-AE16-672F8292957B";
shapes = (
{
closed = 1;
nodes = (
(109,720,l),
(101,680,l),
(901,680,l),
(909,720,l)
);
},
{
closed = 1;
nodes = (
(909,720,l),
(869,720,l),
(789,320,l),
(829,320,l)
);
}
);
width = 1068;
}
);
leftKerningGroup = hyphen;
rightKerningGroup = logicalnot;
unicode = 172;
}
{
glyphname = registered;
layers = (
{
layerId = "288DB91C-ADA9-4EAE-B002-103CECDA4F2F";
shapes = (
{
closed = 1;
nodes = (
(357,1378,o),
(61,1066,o),
(61,696,cs),
(61,326,o),
(355,18,o),
(735,18,cs),
(1117,18,o),
(1415,330,o),
(1415,700,cs),
(1415,1072,o),
(1119,1378,o),
(739,1378,cs)
);
},
{
closed = 1;
nodes = (
(711,650,l),
(817,422,l),
(1043,422,l),
(903,650,l)
);
},
{
closed = 1;
nodes = (
(1007,1178,o),
(1215,962,o),
(1215,700,cs),
(1215,438,o),
(1007,218,o),
(735,218,cs),
(467,218,o),
(261,434,o),
(261,696,cs),
(261,958,o),
(469,1178,o),
(739,1178,cs)
);
},
{
closed = 1;
nodes = (
(479,1024,l),
(479,422,l),
(679,422,l),
(679,578,l),
(761,578,ls),
(925,578,o),
(1019,662,o),
(1019,810,cs),
(1019,946,o),
(925,1024,o),
(761,1024,cs)
);
},
{
closed = 1;
nodes = (
(761,874,ls),
(805,874,o),
(829,848,o),
(829,802,cs),
(829,756,o),
(805,730,o),
(761,730,cs),
(679,730,l),
(679,874,l)
);
}
);
width = 1414;
},
{
layerId = "DF367E9D-3B3B-43F4-BC7A-7EE40495C523";
shapes = (
{
closed = 1;
nodes = (
(397,1378,o),
(101,1066,o),
(101,696,cs),
(101,326,o),
(395,18,o),
(775,18,cs),
(1157,18,o),
(1455,330,o),
(1455,700,cs),
(1455,1072,o),
(1159,1378,o),
(779,1378,cs)
);
},
{
closed = 1;
nodes = (
(795,628,l),
(949,376,l),
(1081,376,l),
(909,628,l)
);
},
{
closed = 1;
nodes = (
(1097,1264,o),
(1341,1010,o),
(1341,700,cs),
(1341,390,o),
(1095,132,o),
(775,132,cs),
(457,132,o),
(215,386,o),
(215,696,cs),
(215,1006,o),
(459,1264,o),
(779,1264,cs)
);
},
{
closed = 1;
nodes = (
(521,1058,l),
(521,376,l),
(635,376,l),
(635,584,l),
(793,584,ls),
(969,584,o),
(1067,674,o),
(1067,826,cs),
(1067,974,o),
(969,1058,o),
(793,1058,cs)
);
},
{
closed = 1;
nodes = (
(793,966,ls),
(897,966,o),
(959,916,o),
(959,824,cs),
(959,730,o),
(897,676,o),
(793,676,cs),
(635,676,l),
(635,966,l)
);
}
);
width = 1490;
},
{
layerId = "FADC2794-F71C-487D-BA21-AA7BC8CC963C";
shapes = (
{
closed = 1;
nodes = (
(433,1378,o),
(137,1066,o),
(137,696,cs),
(137,326,o),
(431,18,o),
(811,18,cs),
(1193,18,o),
(1491,330,o),
(1491,700,cs),
(1491,1072,o),
(1195,1378,o),
(815,1378,cs)
);
},
{
closed = 1;
nodes = (
(869,610,l),
(1065,336,l),
(1115,336,l),
(917,610,l)
);
},
{
closed = 1;
nodes = (
(1175,1338,o),
(1451,1052,o),
(1451,700,cs),
(1451,350,o),
(1173,58,o),
(811,58,cs),
(451,58,o),
(177,346,o),
(177,696,cs),
(177,1046,o),
(453,1338,o),
(815,1338,cs)
);
},
{
closed = 1;
nodes = (
(559,1086,l),
(559,336,l),
(599,336,l),
(599,588,l),
(821,588,ls),
(1007,588,o),
(1111,682,o),
(1111,842,cs),
(1111,998,o),
(1007,1086,o),
(821,1086,cs)
);
},
{
closed = 1;
nodes = (
(821,1046,ls),
(979,1046,o),
(1071,976,o),
(1071,842,cs),
(1071,706,o),
(979,628,o),
(821,628,cs),
(599,628,l),
(599,1046,l)
);
}
);
width = 1554;
}
);
leftKerningGroup = O;
rightKerningGroup = O;
unicode = 174;
}
{
glyphname = degree;
layers = (
{
layerId = "6A7A32D0-3BFD-43C1-930A-C854163D3177";
shapes = (
{
closed = 1;
nodes = (
(451,1648,o),
(343,1540,o),
(343,1406,cs),
(343,1272,o),
(451,1164,o),
(585,1164,cs),
(719,1164,o),
(827,1272,o),
(827,1406,cs),
(827,1540,o),
(719,1648,o),
(585,1648,cs)
);
},
{
closed = 1;
nodes = (
(627,1482,o),
(661,1448,o),
(661,1406,cs),
(661,1364,o),
(627,1330,o),
(585,1330,cs),
(543,1330,o),
(509,1364,o),
(509,1406,cs),
(509,1448,o),
(543,1482,o),
(585,1482,cs)
);
}
);
width = 800;
},
{
layerId = "A3BFC84F-57DC-4376-84A1-AB8B7A21073A";
shapes = (
{
closed = 1;
nodes = (
(438,1618,o),
(332,1514,o),
(332,1388,cs),
(332,1264,o),
(438,1160,o),
(564,1160,cs),
(692,1160,o),
(798,1264,o),
(798,1388,cs),
(798,1514,o),
(692,1618,o),
(564,1618,cs)
);
},
{
closed = 1;
nodes = (
(638,1520,o),
(700,1460,o),
(700,1388,cs),
(700,1318,o),
(638,1258,o),
(564,1258,cs),
(490,1258,o),
(430,1318,o),
(430,1388,cs),
(430,1460,o),
(490,1520,o),
(564,1520,cs)
);
}
);
width = 692;
},
{
layerId = "CC7E1963-6536-4D59-9993-97487CDAFD05";
shapes = (
{
closed = 1;
nodes = (
(428,1592,o),
(324,1490,o),
(324,1374,cs),
(324,1258,o),
(428,1158,o),
(548,1158,cs),
(670,1158,o),
(774,1258,o),
(774,1374,cs),
(774,1490,o),
(670,1592,o),
(548,1592,cs)
);
},
{
closed = 1;
nodes = (
(650,1552,o),
(734,1470,o),
(734,1374,cs),
(734,1278,o),
(650,1198,o),
(548,1198,cs),
(448,1198,o),
(364,1278,o),
(364,1374,cs),
(364,1470,o),
(448,1552,o),
(548,1552,cs)
);
}
);
width = 600;
}
);
leftKerningGroup = degree;
rightKerningGroup = degree;
unicode = 176;
}
{
glyphname = micro;
layers = (
{
layerId = "9043404F-E9C5-4B3E-B15A-843443318E3E";
shapes = (
{
closed = 1;
nodes = (
(558,-16,o),
(668,38,o),
(754,136,c),
(728,0,l),
(1178,0,l),
(1394,1094,l),
(944,1094,l),
(838,560,ls),
(816,444,o),
(734,360,o),
(648,360,cs),
(572,360,o),
(532,420,o),
(550,512,cs),
(666,1094,l),
(216,1094,l),
(86,444,ls),
(34,186,o),
(186,-16,o),
(432,-16,cs)
);
},
{
closed = 1;
nodes = (
(370,-388,l),
(666,1094,l),
(216,1094,l),
(-80,-388,l)
);
}
);
width = 1384;
},
{
layerId = "E14B12F3-6DA5-4EC4-9B8C-3BC58519F69C";
shapes = (
{
closed = 1;
nodes = (
(683,-14,o),
(799,42,o),
(883,154,c),
(853,0,l),
(1085,0,l),
(1295,1062,l),
(1065,1062,l),
(949,486,ls),
(911,302,o),
(777,180,o),
(613,180,cs),
(443,180,o),
(355,292,o),
(389,466,cs),
(507,1062,l),
(277,1062,l),
(151,438,ls),
(95,162,o),
(243,-14,o),
(531,-14,cs)
);
},
{
closed = 1;
nodes = (
(219,-388,l),
(507,1062,l),
(277,1062,l),
(-11,-388,l)
);
}
);
width = 1350;
},
{
layerId = "3412EF41-8D40-4AD8-A3E8-23555CC779E5";
shapes = (
{
closed = 1;
nodes = (
(746,4,o),
(920,110,o),
(1022,298,c),
(964,0,l),
(1004,0,l),
(1208,1034,l),
(1168,1034,l),
(1064,502,ls),
(1008,214,o),
(800,46,o),
(534,40,c),
(306,40,o),
(196,176,o),
(242,408,cs),
(366,1034,l),
(326,1034,l),
(202,408,ls),
(152,152,o),
(274,0,o),
(534,0,c)
);
},
{
closed = 1;
nodes = (
(84,-388,l),
(368,1034,l),
(328,1034,l),
(44,-388,l)
);
}
);
width = 1320;
}
);
leftKerningGroup = n;
rightKerningGroup = u;
unicode = 181;
}
{
glyphname = paragraph;
layers = (
{
layerId = "D4E38000-BFB5-44FC-A51C-4288F8544A0D";
shapes = (
{
closed = 1;
nodes = (
(686,1484,ls),
(310,1484,o),
(122,1258,o),
(76,1026,cs),
(42,854,o),
(76,586,o),
(420,586,cs),
(434,586,o),
(450,586,o),
(464,586,c),
(304,-210,l),
(636,-210,l),
(926,1236,l),
(1070,1236,l),
(780,-210,l),
(1112,-210,l),
(1452,1484,l)
);
}
);
width = 1364;
},
{
layerId = "196BCA4D-4EBA-41D5-BBFD-A0C7C55F9EA0";
shapes = (
{
closed = 1;
nodes = (
(638,1484,ls),
(314,1484,o),
(150,1292,o),
(110,1094,cs),
(80,948,o),
(112,720,o),
(410,720,cs),
(430,720,o),
(450,720,o),
(472,722,c),
(284,-218,l),
(458,-218,l),
(770,1348,l),
(1032,1348,l),
(720,-218,l),
(896,-218,l),
(1236,1484,l)
);
}
);
width = 1230;
},
{
layerId = "FAA95C36-2A9A-4A6A-AE16-672F8292957B";
shapes = (
{
closed = 1;
nodes = (
(598,1484,ls),
(316,1484,o),
(174,1320,o),
(140,1152,cs),
(116,1028,o),
(142,834,o),
(400,834,cs),
(424,834,o),
(450,836,o),
(478,838,c),
(266,-224,l),
(306,-224,l),
(638,1444,l),
(1002,1444,l),
(670,-224,l),
(710,-224,l),
(1050,1484,l)
);
}
);
width = 1114;
}
);
leftKerningGroup = paragraph;
rightKerningGroup = H;
unicode = 182;
}
{
glyphname = periodcentered;
layers = (
{
anchors = (
{
name = _center;
position = "{300, 584}";
},
{
name = _top;
position = "{190, 276}";
},
{
name = top;
position = "{328, 726}";
}
);
layerId = "A09E50E2-67FC-4045-B7D7-901372DB4BBE";
shapes = (
{
closed = 1;
nodes = (
(133,816,o),
(9,700,o),
(9,546,cs),
(9,436,o),
(81,360,o),
(197,360,cs),
(351,360,o),
(475,476,o),
(475,630,cs),
(475,740,o),
(403,816,o),
(287,816,cs)
);
}
);
width = 484;
},
{
anchors = (
{
name = _center;
position = "{491, 572}";
},
{
name = _top;
position = "{383, 268}";
},
{
name = top;
position = "{501, 618}";
}
);
layerId = "6D930887-645F-4E17-BAB2-3A566A02CAA9";
shapes = (
{
closed = 1;
nodes = (
(165,706,o),
(89,638,o),
(89,550,cs),
(89,486,o),
(133,438,o),
(199,438,cs),
(285,438,o),
(363,508,o),
(363,596,cs),
(363,660,o),
(319,706,o),
(251,706,cs)
);
}
);
width = 452;
},
{
anchors = (
{
name = _center;
position = "{568, 532}";
},
{
name = _top;
position = "{320, 234}";
},
{
name = top;
position = "{568, 532}";
}
);
layerId = "9B3D3104-3922-4F2D-8412-46D902A9971C";
shapes = (
{
closed = 1;
nodes = (
(149,584,o),
(117,556,o),
(117,524,cs),
(117,500,o),
(135,480,o),
(159,480,cs),
(191,480,o),
(223,508,o),
(223,540,cs),
(223,564,o),
(205,584,o),
(181,584,cs)
);
}
);
width = 340;
}
);
leftKerningGroup = hyphen;
rightKerningGroup = hyphen;
unicode = 183;
}
{
glyphname = ordmasculine;
layers = (
{
layerId = "288DB91C-ADA9-4EAE-B002-103CECDA4F2F";
shapes = (
{
closed = 1;
nodes = (
(305,1430,o),
(131,1284,o),
(131,1058,cs),
(131,872,o),
(269,750,o),
(493,750,cs),
(751,750,o),
(925,898,o),
(925,1122,cs),
(925,1310,o),
(787,1430,o),
(561,1430,cs)
);
},
{
closed = 1;
nodes = (
(587,1200,o),
(615,1162,o),
(615,1102,cs),
(615,1026,o),
(575,974,o),
(515,974,cs),
(467,974,o),
(437,1012,o),
(437,1070,cs),
(437,1148,o),
(479,1200,o),
(537,1200,cs)
);
}
);
width = 838;
},
{
layerId = "DF367E9D-3B3B-43F4-BC7A-7EE40495C523";
shapes = (
{
closed = 1;
nodes = (
(332,1418,o),
(172,1276,o),
(172,1068,cs),
(172,896,o),
(296,780,o),
(490,780,cs),
(710,780,o),
(870,922,o),
(870,1128,cs),
(870,1302,o),
(746,1418,o),
(552,1418,cs)
);
},
{
closed = 1;
nodes = (
(640,1292,o),
(704,1222,o),
(704,1118,cs),
(704,990,o),
(618,902,o),
(502,902,cs),
(402,902,o),
(336,972,o),
(336,1076,cs),
(336,1204,o),
(424,1292,o),
(540,1292,cs)
);
}
);
width = 814;
},
{
layerId = "FADC2794-F71C-487D-BA21-AA7BC8CC963C";
shapes = (
{
closed = 1;
nodes = (
(366,1408,o),
(226,1282,o),
(208,1108,cs),
(190,928,o),
(306,804,o),
(486,804,cs),
(660,804,o),
(802,928,o),
(820,1104,cs),
(838,1282,o),
(720,1408,o),
(542,1408,cs)
);
},
{
closed = 1;
nodes = (
(694,1370,o),
(794,1262,o),
(778,1108,cs),
(762,948,o),
(642,840,o),
(486,840,cs),
(334,840,o),
(232,948,o),
(248,1104,cs),
(264,1262,o),
(386,1370,o),
(542,1370,cs)
);
}
);
width = 792;
}
);
leftKerningGroup = asterisk;
rightKerningGroup = asterisk;
unicode = 186;
}
{
glyphname = questiondown;
layers = (
{
layerId = "FCBE0D3F-305A-4B26-ABA3-05651CFDD837";
shapes = (
{
closed = 1;
nodes = (
(420,522,l),
(421,515,o),
(422,505,o),
(422,500,cs),
(422,368,o),
(-8,388,o),
(-8,1,cs),
(-8,-287,o),
(353,-368,o),
(580,-368,cs),
(810,-368,o),
(1019,-286,o),
(1162,-101,c),
(841,110,l),
(791,43,o),
(711,-6,o),
(625,-6,cs),
(571,-6,o),
(487,17,o),
(487,85,cs),
(487,253,o),
(836,227,o),
(836,488,cs),
(836,505,o),
(834,522,o),
(832,538,c)
);
},
{
closed = 1;
nodes = (
(512,1084,o),
(373,978,o),
(373,824,cs),
(373,680,o),
(501,608,o),
(632,608,cs),
(777,608,o),
(912,710,o),
(912,864,cs),
(912,1004,o),
(788,1084,o),
(658,1084,cs)
);
}
);
width = 1212;
},
{
layerId = "5BDD1EDE-DE70-4338-9338-A02B2C6AE01A";
shapes = (
{
closed = 1;
nodes = (
(587,622,l),
(590,603,o),
(594,583,o),
(594,563,cs),
(594,337,o),
(46,400,o),
(46,-15,cs),
(46,-282,o),
(350,-360,o),
(564,-360,cs),
(747,-360,o),
(921,-302,o),
(1055,-175,c),
(908,-39,l),
(819,-124,o),
(708,-165,o),
(586,-165,cs),
(464,-165,o),
(290,-122,o),
(290,31,cs),
(290,280,o),
(819,212,o),
(819,543,cs),
(819,578,o),
(812,614,o),
(803,648,c)
);
},
{
closed = 1;
nodes = (
(622,1076,o),
(549,1006,o),
(549,918,cs),
(549,841,o),
(611,792,o),
(684,792,cs),
(771,792,o),
(844,863,o),
(844,949,cs),
(844,1026,o),
(783,1076,o),
(709,1076,cs)
);
}
);
width = 1154;
},
{
layerId = "A3D6E1CA-B1BA-4595-96B0-7801BFB529A2";
shapes = (
{
closed = 1;
nodes = (
(683,676,l),
(688,658,o),
(691,639,o),
(691,621,cs),
(691,341,o),
(43,429,o),
(43,-27,cs),
(43,-269,o),
(306,-342,o),
(504,-342,cs),
(654,-342,o),
(797,-300,o),
(913,-204,c),
(891,-173,l),
(781,-264,o),
(653,-304,o),
(510,-304,cs),
(333,-304,o),
(85,-246,o),
(85,-24,cs),
(85,405,o),
(730,303,o),
(730,617,cs),
(730,641,o),
(726,664,o),
(720,687,c)
);
},
{
closed = 1;
nodes = (
(686,1054,o),
(659,1028,o),
(659,997,cs),
(659,972,o),
(683,952,o),
(707,952,cs),
(738,952,o),
(765,978,o),
(765,1009,cs),
(765,1035,o),
(742,1054,o),
(717,1054,cs)
);
}
);
width = 1108;
}
);
leftKerningGroup = questiondown;
rightKerningGroup = questiondown;
unicode = 191;
}
{
glyphname = Aring;
layers = (
{
anchors = (
{
name = bottom;
position = "{662, 0}";
},
{
name = ogonek;
position = "{1338, 0}";
},
{
name = top;
position = "{999, 1895}";
}
);
layerId = "288DB91C-ADA9-4EAE-B002-103CECDA4F2F";
shapes = (
{
closed = 1;
nodes = (
(692,1400,l),
(-130,0,l),
(342,0,l),
(936,1116,l),
(804,1138,l),
(1008,0,l),
(1506,0,l),
(1168,1400,l)
);
},
{
closed = 1;
nodes = (
(350,530,l),
(296,198,l),
(1110,198,l),
(1164,530,l)
);
},
{
closed = 1;
nodes = (
(816,1745,o),
(682,1617,o),
(682,1460,cs),
(682,1332,o),
(775,1236,o),
(907,1236,cs),
(1060,1236,o),
(1195,1365,o),
(1195,1522,cs),
(1195,1650,o),
(1101,1745,o),
(969,1745,cs)
);
},
{
closed = 1;
nodes = (
(989,1571,o),
(1018,1543,o),
(1018,1503,cs),
(1018,1452,o),
(977,1411,o),
(928,1411,cs),
(886,1411,o),
(858,1440,o),
(858,1479,cs),
(858,1530,o),
(899,1571,o),
(948,1571,cs)
);
}
);
width = 1596;
},
{
anchors = (
{
name = bottom;
position = "{664, 0}";
},
{
name = ogonek;
position = "{1368, 0}";
},
{
name = top;
position = "{946, 1834}";
}
);
layerId = "DF367E9D-3B3B-43F4-BC7A-7EE40495C523";
shapes = (
{
closed = 1;
nodes = (
(744,1400,l),
(-104,0,l),
(140,0,l),
(870,1252,l),
(792,1262,l),
(1116,0,l),
(1368,0,l),
(986,1400,l)
);
},
{
closed = 1;
nodes = (
(292,524,l),
(258,324,l),
(1094,324,l),
(1130,524,l)
);
},
{
closed = 1;
nodes = (
(786,1800,o),
(668,1686,o),
(668,1554,cs),
(668,1448,o),
(750,1364,o),
(864,1364,cs),
(994,1364,o),
(1112,1474,o),
(1112,1606,cs),
(1112,1714,o),
(1032,1800,o),
(916,1800,cs)
);
},
{
closed = 1;
nodes = (
(954,1680,o),
(992,1640,o),
(992,1592,cs),
(992,1534,o),
(936,1482,o),
(878,1482,cs),
(826,1482,o),
(790,1520,o),
(790,1568,cs),
(790,1628,o),
(842,1680,o),
(902,1680,cs)
);
}
);
width = 1476;
},
{
anchors = (
{
name = bottom;
position = "{584, 0}";
},
{
name = ogonek;
position = "{1250, 0}";
},
{
name = top;
position = "{887, 1762}";
}
);
layerId = "FADC2794-F71C-487D-BA21-AA7BC8CC963C";
shapes = (
{
closed = 1;
nodes = (
(790,1400,l),
(-84,0,l),
(-36,0,l),
(814,1370,l),
(798,1372,l),
(1204,0,l),
(1250,0,l),
(834,1400,l)
);
},
{
closed = 1;
nodes = (
(224,466,l),
(218,426,l),
(1088,426,l),
(1094,466,l)
);
},
{
closed = 1;
nodes = (
(745,1730,o),
(647,1636,o),
(647,1534,cs),
(647,1450,o),
(717,1380,o),
(807,1380,cs),
(911,1380,o),
(1011,1472,o),
(1011,1572,cs),
(1011,1658,o),
(943,1730,o),
(851,1730,cs)
);
},
{
closed = 1;
nodes = (
(919,1692,o),
(973,1636,o),
(973,1568,cs),
(973,1488,o),
(893,1418,o),
(813,1418,cs),
(739,1418,o),
(687,1472,o),
(687,1540,cs),
(687,1620,o),
(765,1692,o),
(845,1692,cs)
);
}
);
width = 1374;
}
);
leftKerningGroup = A;
rightKerningGroup = A;
unicode = 197;
}
{
glyphname = AE;
layers = (
{
anchors = (
{
name = bottom;
position = "{1507, 0}";
},
{
name = ogonek;
position = "{2095, 20}";
},
{
name = top;
position = "{1487, 1400}";
}
);
layerId = "D4E38000-BFB5-44FC-A51C-4288F8544A0D";
shapes = (
{
closed = 1;
nodes = (
(925,1400,l),
(-133,0,l),
(353,0,l),
(1081,1048,l),
(1669,1048,l),
(1723,1400,l)
);
},
{
closed = 1;
nodes = (
(459,576,l),
(381,244,l),
(1185,244,l),
(1263,576,l)
);
},
{
closed = 1;
nodes = (
(1185,1400,l),
(905,0,l),
(2107,0,l),
(2177,352,l),
(1439,352,l),
(1475,526,l),
(2129,526,l),
(2199,876,l),
(1545,876,l),
(1579,1048,l),
(2299,1048,l),
(2369,1400,l)
);
}
);
width = 2290;
},
{
anchors = (
{
name = bottom;
position = "{1348, 0}";
},
{
name = ogonek;
position = "{1890, 20}";
},
{
name = top;
position = "{1426, 1400}";
}
);
layerId = "196BCA4D-4EBA-41D5-BBFD-A0C7C55F9EA0";
shapes = (
{
closed = 1;
nodes = (
(988,1400,l),
(-104,0,l),
(146,0,l),
(1070,1216,l),
(1646,1216,l),
(1682,1400,l)
);
},
{
closed = 1;
nodes = (
(376,528,l),
(336,352,l),
(1062,352,l),
(1104,528,l)
);
},
{
closed = 1;
nodes = (
(1150,1400,l),
(870,0,l),
(1892,0,l),
(1932,202,l),
(1144,202,l),
(1224,604,l),
(1910,604,l),
(1950,804,l),
(1264,804,l),
(1344,1198,l),
(2108,1198,l),
(2148,1400,l)
);
}
);
width = 2102;
},
{
anchors = (
{
name = bottom;
position = "{1227, 0}";
},
{
name = ogonek;
position = "{1747, 20}";
},
{
name = top;
position = "{1373, 1400}";
}
);
layerId = "FAA95C36-2A9A-4A6A-AE16-672F8292957B";
shapes = (
{
closed = 1;
nodes = (
(1039,1400,l),
(-85,0,l),
(-37,0,l),
(1053,1360,l),
(1629,1360,l),
(1649,1400,l)
);
},
{
closed = 1;
nodes = (
(307,486,l),
(297,446,l),
(959,446,l),
(969,486,l)
);
},
{
closed = 1;
nodes = (
(1119,1400,l),
(839,0,l),
(1741,0,l),
(1749,40,l),
(887,40,l),
(1019,702,l),
(1761,702,l),
(1769,742,l),
(1027,742,l),
(1151,1360,l),
(1987,1360,l),
(1995,1400,l)
);
}
);
width = 1976;
}
);
leftKerningGroup = A;
rightKerningGroup = E;
unicode = 198;
}
{
glyphname = Ccedilla;
layers = (
{
anchors = (
{
name = bottom;
position = "{558, -530}";
},
{
name = top;
position = "{874, 1400}";
}
);
layerId = "D4E38000-BFB5-44FC-A51C-4288F8544A0D";
shapes = (
{
closed = 1;
nodes = (
(408,1430,o),
(40,1092,o),
(40,634,cs),
(40,294,o),
(250,37,o),
(573,-20,c),
(508,-146,l),
(548,-146,ls),
(604,-146,o),
(656,-162,o),
(656,-192,cs),
(656,-222,o),
(614,-242,o),
(562,-242,cs),
(530,-242,o),
(498,-236,o),
(468,-224,c),
(370,-410,l),
(440,-436,o),
(522,-452,o),
(604,-452,cs),
(764,-452,o),
(924,-386,o),
(924,-222,cs),
(924,-158,o),
(884,-100,o),
(782,-72,c),
(809,-25,l),
(999,3,o),
(1202,106,o),
(1348,252,c),
(1110,538,l),
(1008,438,o),
(874,374,o),
(774,374,cs),
(622,374,o),
(518,502,o),
(518,674,cs),
(518,886,o),
(662,1044,o),
(842,1044,cs),
(950,1044,o),
(1068,968,o),
(1140,852,c),
(1442,1170,l),
(1312,1328,o),
(1090,1430,o),
(876,1430,cs)
);
}
);
width = 1374;
},
{
anchors = (
{
name = bottom;
position = "{567, -444}";
},
{
name = top;
position = "{829, 1400}";
}
);
layerId = "196BCA4D-4EBA-41D5-BBFD-A0C7C55F9EA0";
shapes = (
{
closed = 1;
nodes = (
(451,1414,o),
(79,1072,o),
(79,642,cs),
(79,307,o),
(302,42,o),
(627,-8,c),
(556,-146,l),
(616,-146,ls),
(674,-146,o),
(706,-166,o),
(706,-190,cs),
(706,-216,o),
(670,-242,o),
(616,-242,cs),
(580,-242,o),
(538,-232,o),
(506,-218,c),
(430,-358,l),
(486,-384,o),
(552,-400,o),
(622,-400,cs),
(766,-400,o),
(894,-334,o),
(894,-198,cs),
(894,-138,o),
(858,-82,o),
(762,-64,c),
(791,-14,l),
(973,0,o),
(1161,86,o),
(1305,214,c),
(1179,360,l),
(1063,256,o),
(913,192,o),
(773,192,cs),
(511,192,o),
(321,398,o),
(321,660,cs),
(321,968,o),
(575,1216,o),
(875,1216,cs),
(1017,1216,o),
(1153,1148,o),
(1245,1036,c),
(1401,1198,l),
(1279,1332,o),
(1089,1414,o),
(891,1414,cs)
);
}
);
width = 1394;
},
{
anchors = (
{
name = bottom;
position = "{580, -400}";
},
{
name = top;
position = "{891, 1400}";
}
);
layerId = "FAA95C36-2A9A-4A6A-AE16-672F8292957B";
shapes = (
{
closed = 1;
nodes = (
(507,1408,o),
(153,1092,o),
(115,706,cs),
(79,336,o),
(335,31,o),
(698,-3,c),
(654,-96,l),
(712,-96,ls),
(774,-96,o),
(806,-140,o),
(806,-192,cs),
(806,-258,o),
(746,-334,o),
(644,-334,cs),
(600,-334,o),
(550,-316,o),
(524,-292,c),
(498,-332,l),
(526,-358,o),
(586,-376,o),
(636,-376,cs),
(768,-376,o),
(850,-274,o),
(850,-184,cs),
(850,-120,o),
(806,-60,o),
(714,-58,c),
(739,-5,l),
(930,-12,o),
(1116,58,o),
(1263,178,c),
(1237,204,l),
(1107,96,o),
(941,32,o),
(765,32,cs),
(391,32,o),
(117,332,o),
(153,702,cs),
(189,1072,o),
(523,1370,o),
(901,1370,cs),
(1073,1370,o),
(1227,1308,o),
(1337,1200,c),
(1365,1226,l),
(1249,1340,o),
(1087,1408,o),
(901,1408,cs)
);
}
);
width = 1412;
}
);
leftKerningGroup = O;
rightKerningGroup = C;
unicode = 199;
}
{
glyphname = multiply;
layers = (
{
layerId = "FCBE0D3F-305A-4B26-ABA3-05651CFDD837";
shapes = (
{
closed = 1;
nodes = (
(317,1082,l),
(119,884,l),
(769,234,l),
(967,432,l)
);
},
{
closed = 1;
nodes = (
(769,1082,l),
(119,432,l),
(317,234,l),
(967,884,l)
);
}
);
width = 1040;
},
{
layerId = "5BDD1EDE-DE70-4338-9338-A02B2C6AE01A";
shapes = (
{
closed = 1;
nodes = (
(272,1004,l),
(166,896,l),
(770,294,l),
(876,400,l)
);
},
{
closed = 1;
nodes = (
(770,1004,l),
(166,400,l),
(272,294,l),
(876,896,l)
);
}
);
width = 996;
},
{
layerId = "A3D6E1CA-B1BA-4595-96B0-7801BFB529A2";
shapes = (
{
closed = 1;
nodes = (
(237,936,l),
(209,908,l),
(773,344,l),
(801,372,l)
);
},
{
closed = 1;
nodes = (
(773,936,l),
(209,372,l),
(237,344,l),
(801,908,l)
);
}
);
width = 960;
}
);
leftKerningGroup = multiply;
rightKerningGroup = multiply;
unicode = 215;
}
{
glyphname = Oslash;
layers = (
{
anchors = (
{
name = bottom;
position = "{769, 0}";
},
{
name = center;
position = "{831, 702}";
},
{
name = ogonek;
position = "{1255, 0}";
},
{
name = top;
position = "{975, 1400}";
},
{
name = topleft;
position = "{209, 1400}";
},
{
name = topright;
position = "{1217, 1400}";
}
);
layerId = "A09E50E2-67FC-4045-B7D7-901372DB4BBE";
shapes = (
{
closed = 1;
nodes = (
(101,-110,l),
(355,-110,l),
(1583,1508,l),
(1329,1508,l)
);
},
{
closed = 1;
nodes = (
(431,1430,o),
(59,1094,o),
(59,634,cs),
(59,248,o),
(341,-32,o),
(757,-32,cs),
(1233,-32,o),
(1605,312,o),
(1605,768,cs),
(1605,1154,o),
(1321,1430,o),
(905,1430,cs)
);
},
{
closed = 1;
nodes = (
(1019,1044,o),
(1127,914,o),
(1127,736,cs),
(1127,520,o),
(975,354,o),
(801,354,cs),
(655,354,o),
(537,488,o),
(537,666,cs),
(537,882,o),
(699,1044,o),
(871,1044,cs)
);
}
);
width = 1598;
},
{
anchors = (
{
name = bottom;
position = "{784, 0}";
},
{
name = center;
position = "{846, 702}";
},
{
name = ogonek;
position = "{1184, 0}";
},
{
name = top;
position = "{968, 1400}";
},
{
name = topleft;
position = "{212, 1400}";
},
{
name = topright;
position = "{1242, 1400}";
}
);
layerId = "6D930887-645F-4E17-BAB2-3A566A02CAA9";
shapes = (
{
closed = 1;
nodes = (
(94,-110,l),
(292,-110,l),
(1514,1510,l),
(1314,1510,l)
);
},
{
closed = 1;
nodes = (
(474,1414,o),
(100,1074,o),
(100,642,cs),
(100,270,o),
(382,-16,o),
(774,-16,cs),
(1218,-16,o),
(1592,330,o),
(1592,760,cs),
(1592,1132,o),
(1310,1414,o),
(918,1414,cs)
);
},
{
closed = 1;
nodes = (
(1154,1214,o),
(1348,1010,o),
(1348,744,cs),
(1348,436,o),
(1088,184,o),
(798,184,cs),
(540,184,o),
(340,392,o),
(340,658,cs),
(340,966,o),
(604,1214,o),
(900,1214,cs)
);
}
);
width = 1620;
},
{
anchors = (
{
name = bottom;
position = "{776, 0}";
},
{
name = center;
position = "{858, 704}";
},
{
name = ogonek;
position = "{1152, 0}";
},
{
name = top;
position = "{956, 1400}";
},
{
name = topleft;
position = "{214, 1400}";
},
{
name = topright;
position = "{1266, 1400}";
}
);
guides = (
{
position = "{0, 1512}";
}
);
layerId = "9B3D3104-3922-4F2D-8412-46D902A9971C";
shapes = (
{
closed = 1;
nodes = (
(254,-110,l),
(300,-110,l),
(1480,1512,l),
(1434,1512,l)
);
},
{
closed = 1;
nodes = (
(530,1408,o),
(176,1092,o),
(138,706,cs),
(100,314,o),
(390,-6,o),
(788,-6,cs),
(1180,-6,o),
(1538,314,o),
(1576,700,cs),
(1614,1090,o),
(1320,1408,o),
(924,1408,cs)
);
},
{
closed = 1;
nodes = (
(1294,1368,o),
(1572,1068,o),
(1536,704,cs),
(1500,334,o),
(1162,34,o),
(788,34,cs),
(416,34,o),
(142,334,o),
(178,702,cs),
(214,1070,o),
(548,1368,o),
(924,1368,cs)
);
}
);
width = 1638;
}
);
leftKerningGroup = O;
rightKerningGroup = O;
unicode = 216;
}
{
glyphname = Thorn;
layers = (
{
layerId = "FCBE0D3F-305A-4B26-ABA3-05651CFDD837";
shapes = (
{
closed = 1;
nodes = (
(599,1228,l),
(593,876,l),
(795,876,ls),
(863,876,o),
(903,828,o),
(903,754,cs),
(903,640,o),
(829,556,o),
(731,556,cs),
(529,556,l),
(457,204,l),
(679,204,ls),
(1093,204,o),
(1389,462,o),
(1389,818,cs),
(1389,1068,o),
(1201,1228,o),
(885,1228,cs)
);
},
{
closed = 1;
nodes = (
(257,1400,l),
(-23,0,l),
(441,0,l),
(719,1400,l)
);
}
);
width = 1394;
},
{
layerId = "5BDD1EDE-DE70-4338-9338-A02B2C6AE01A";
shapes = (
{
closed = 1;
nodes = (
(490,1200,l),
(484,1016,l),
(788,1016,ls),
(994,1016,o),
(1098,936,o),
(1098,786,cs),
(1098,564,o),
(952,432,o),
(670,432,cs),
(370,432,l),
(332,248,l),
(642,248,ls),
(1086,248,o),
(1344,470,o),
(1344,822,cs),
(1344,1062,o),
(1166,1200,o),
(834,1200,cs)
);
},
{
closed = 1;
nodes = (
(344,1400,l),
(64,0,l),
(300,0,l),
(580,1400,l)
);
}
);
width = 1356;
},
{
layerId = "A3D6E1CA-B1BA-4595-96B0-7801BFB529A2";
shapes = (
{
closed = 1;
nodes = (
(395,1176,l),
(391,1136,l),
(781,1136,ls),
(1107,1136,o),
(1265,1028,o),
(1265,814,cs),
(1265,498,o),
(1059,324,o),
(619,324,cs),
(233,324,l),
(225,284,l),
(609,284,ls),
(1083,284,o),
(1307,478,o),
(1307,824,cs),
(1307,1058,o),
(1135,1176,o),
(789,1176,cs)
);
},
{
closed = 1;
nodes = (
(419,1400,l),
(139,0,l),
(179,0,l),
(459,1400,l)
);
}
);
width = 1326;
}
);
leftKerningGroup = H;
rightKerningGroup = Thorn;
unicode = 222;
}
{
glyphname = germandbls;
layers = (
{
layerId = "6A7A32D0-3BFD-43C1-930A-C854163D3177";
shapes = (
{
closed = 1;
nodes = (
(476,1504,o),
(226,1308,o),
(164,992,cs),
(-34,0,l),
(416,0,l),
(622,1026,ls),
(642,1126,o),
(690,1170,o),
(778,1170,cs),
(842,1170,o),
(874,1138,o),
(874,1072,cs),
(874,940,o),
(816,882,o),
(686,882,c),
(624,568,l),
(670,568,ls),
(786,568,o),
(842,536,o),
(842,470,cs),
(842,364,o),
(772,316,o),
(620,316,cs),
(574,316,l),
(510,0,l),
(604,0,ls),
(1000,0,o),
(1280,194,o),
(1280,470,cs),
(1280,608,o),
(1210,724,o),
(1096,770,c),
(1236,860,o),
(1324,1002,o),
(1324,1136,cs),
(1324,1358,o),
(1122,1504,o),
(816,1504,cs)
);
}
);
width = 1340;
},
{
layerId = "A3BFC84F-57DC-4376-84A1-AB8B7A21073A";
shapes = (
{
closed = 1;
nodes = (
(527,1494,o),
(307,1302,o),
(241,974,cs),
(47,0,l),
(275,0,l),
(473,990,ls),
(513,1190,o),
(647,1318,o),
(817,1318,cs),
(943,1318,o),
(1023,1244,o),
(1023,1124,cs),
(1023,948,o),
(883,822,o),
(683,822,c),
(651,656,l),
(677,656,ls),
(857,656,o),
(967,580,o),
(967,452,cs),
(967,290,o),
(821,168,o),
(629,168,cs),
(509,168,l),
(475,0,l),
(577,0,ls),
(935,0,o),
(1195,198,o),
(1195,470,cs),
(1195,618,o),
(1099,728,o),
(943,762,c),
(1131,826,o),
(1253,984,o),
(1253,1160,cs),
(1253,1354,o),
(1079,1494,o),
(835,1494,cs)
);
}
);
width = 1308;
},
{
layerId = "CC7E1963-6536-4D59-9993-97487CDAFD05";
shapes = (
{
closed = 1;
nodes = (
(585,1484,o),
(375,1292,o),
(315,994,cs),
(117,0,l),
(157,0,l),
(355,990,ls),
(409,1264,o),
(605,1444,o),
(851,1444,cs),
(1069,1444,o),
(1185,1318,o),
(1145,1124,cs),
(1103,910,o),
(919,770,o),
(681,770,c),
(675,730,l),
(687,730,ls),
(963,730,o),
(1113,600,o),
(1073,398,cs),
(1029,182,o),
(827,40,o),
(563,40,cs),
(455,40,l),
(447,0,l),
(559,0,ls),
(849,0,o),
(1063,152,o),
(1111,390,cs),
(1149,584,o),
(1031,728,o),
(813,754,c),
(1003,788,o),
(1147,930,o),
(1183,1116,cs),
(1229,1340,o),
(1097,1484,o),
(851,1484,cs)
);
}
);
width = 1280;
}
);
leftKerningGroup = l;
rightKerningGroup = o;
unicode = 223;
}
{
glyphname = ae;
layers = (
{
layerId = "CFD8F2DF-3DA0-448C-B224-0C6733C0756C";
name = "Bold.Bold Dec 28 15, 16:31";
width = 1916;
},
{
anchors = (
{
name = top;
position = "{1035, 1094}";
},
{
name = bottom;
position = "{-310, 0}";
},
{
name = ogonek;
position = "{182, 0}";
}
);
layerId = "D4E38000-BFB5-44FC-A51C-4288F8544A0D";
shapes = (
{
closed = 1;
nodes = (
(589,-22,o),
(739,48,o),
(835,186,c),
(911,64,o),
(1053,-16,o),
(1263,-16,cs),
(1471,-16,o),
(1643,50,o),
(1771,178,c),
(1547,420,l),
(1477,356,o),
(1393,316,o),
(1309,316,cs),
(1231,316,o),
(1153,346,o),
(1153,426,cs),
(1153,626,ls),
(1153,725,o),
(1233,810,o),
(1327,810,cs),
(1401,810,o),
(1447,756,o),
(1433,658,c),
(1121,658,l),
(1121,448,l),
(1863,448,l),
(1923,846,o),
(1717,1110,o),
(1327,1110,cs),
(1211,1110,o),
(1107,1084,o),
(1015,1024,c),
(939,1080,o),
(814,1124,o),
(662,1124,cs),
(511,1124,o),
(307,1074,o),
(160,1008,c),
(260,708,l),
(357,762,o),
(452,778,o),
(550,778,cs),
(646,778,o),
(709,748,o),
(709,684,cs),
(679,356,l),
(635,302,o),
(571,266,o),
(507,266,cs),
(449,266,o),
(419,294,o),
(423,346,cs),
(429,412,o),
(475,448,o),
(537,448,cs),
(739,448,l),
(739,658,l),
(449,658,ls),
(171,658,o),
(19,548,o),
(1,340,cs),
(-19,124,o),
(127,-22,o),
(391,-22,cs)
);
}
);
width = 1916;
},
{
layerId = "8AA534A9-B9F3-444E-9905-9EC4EF09E609";
name = "Regular.Regular Dec 28 15, 16:31";
width = 1948;
},
{
anchors = (
{
name = top;
position = "{1006, 1062}";
}
);
layerId = "196BCA4D-4EBA-41D5-BBFD-A0C7C55F9EA0";
shapes = (
{
closed = 1;
nodes = (
(612,-10,o),
(772,74,o),
(872,248,c),
(942,88,o),
(1098,-8,o),
(1306,-8,cs),
(1482,-8,o),
(1638,52,o),
(1758,170,c),
(1640,296,l),
(1556,214,o),
(1444,168,o),
(1326,168,cs),
(1150,168,o),
(1013,298,o),
(1022,450,cs),
(1030,588,ls),
(1042,789,o),
(1204,910,o),
(1382,910,cs),
(1550,910,o),
(1658,808,o),
(1648,622,c),
(992,622,l),
(992,470,l),
(1862,470,l),
(1904,816,o),
(1712,1070,o),
(1382,1070,cs),
(1230,1070,o),
(1096,1018,o),
(992,910,c),
(930,1010,o),
(794,1070,o),
(620,1070,cs),
(474,1070,o),
(321,1011,o),
(191,932,c),
(285,784,l),
(377,850,o),
(474,894,o),
(578,894,cs),
(740,894,o),
(823,820,o),
(810,678,cs),
(780,342,l),
(706,212,o),
(596,144,o),
(452,144,cs),
(328,144,o),
(256,214,o),
(266,320,cs),
(276,428,o),
(366,470,o),
(514,470,cs),
(836,470,l),
(836,622,l),
(478,622,ls),
(220,622,o),
(66,502,o),
(50,318,cs),
(32,122,o),
(174,-10,o),
(400,-10,cs)
);
}
);
width = 1950;
},
{
layerId = "C8498A0D-4A99-4F0C-9E24-F376B68FDA0C";
name = "Light.Light Dec 28 15, 16:32";
width = 1976;
},
{
layerId = "E18FE9A2-E1EF-4AE2-8D2B-43A4DC082D05";
name = "Light.Light Dec 28 15, 16:31";
width = 1976;
},
{
anchors = (
{
name = top;
position = "{1005, 1034}";
}
);
layerId = "FAA95C36-2A9A-4A6A-AE16-672F8292957B";
shapes = (
{
closed = 1;
nodes = (
(621,0,o),
(783,108,o),
(889,320,c),
(943,134,o),
(1119,0,o),
(1339,0,cs),
(1493,0,o),
(1639,58,o),
(1745,162,c),
(1719,190,l),
(1621,92,o),
(1489,40,o),
(1339,40,cs),
(1097,40,o),
(893,240,o),
(917,464,cs),
(927,558,ls),
(955,818,o),
(1169,994,o),
(1425,994,cs),
(1671,994,o),
(1831,822,o),
(1825,558,c),
(903,558,l),
(903,518,l),
(1863,518,l),
(1889,822,o),
(1709,1034,o),
(1425,1034,cs),
(1213,1034,o),
(1025,914,o),
(933,718,c),
(939,918,o),
(813,1034,o),
(591,1034,cs),
(461,1034,o),
(335,986,o),
(193,882,c),
(213,850,l),
(353,950,o),
(465,994,o),
(591,994,cs),
(801,994,o),
(909,886,o),
(893,690,cs),
(869,368,l),
(761,136,o),
(625,40,o),
(403,40,cs),
(227,40,o),
(115,144,o),
(129,296,cs),
(141,442,o),
(275,518,o),
(495,518,cs),
(890,518,l),
(890,558,l),
(499,558,ls),
(259,558,o),
(103,464,o),
(89,300,cs),
(73,124,o),
(203,0,o),
(403,0,cs)
);
}
);
width = 1976;
}
);
leftKerningGroup = a;
rightKerningGroup = e;
unicode = 230;
}
{
glyphname = ccedilla;
layers = (
{
anchors = (
{
name = bottom;
position = "{432, -530}";
},
{
name = top;
position = "{672, 1094}";
}
);
layerId = "6A7A32D0-3BFD-43C1-930A-C854163D3177";
shapes = (
{
closed = 1;
nodes = (
(382,-146,l),
(422,-146,ls),
(478,-146,o),
(530,-162,o),
(530,-192,cs),
(530,-222,o),
(488,-242,o),
(436,-242,cs),
(404,-242,o),
(372,-236,o),
(342,-224,c),
(244,-410,l),
(314,-436,o),
(396,-452,o),
(478,-452,cs),
(638,-452,o),
(798,-386,o),
(798,-222,cs),
(798,-158,o),
(758,-100,o),
(656,-72,c),
(698,0,l),
(874,38,o),
(1014,139,o),
(1090,290,c),
(744,458,l),
(712,376,o),
(662,340,o),
(598,340,cs),
(518,340,o),
(472,408,o),
(472,514,cs),
(472,652,o),
(540,746,o),
(638,746,cs),
(702,746,o),
(746,708,o),
(768,642,c),
(1140,794,l),
(1070,994,o),
(892,1110,o),
(654,1110,cs),
(276,1110,o),
(16,858,o),
(16,484,cs),
(16,208,o),
(181,21,o),
(452,-11,c)
);
}
);
width = 1122;
},
{
anchors = (
{
name = bottom;
position = "{434, -444}";
},
{
name = top;
position = "{670, 1062}";
}
);
layerId = "A3BFC84F-57DC-4376-84A1-AB8B7A21073A";
shapes = (
{
closed = 1;
nodes = (
(423,-146,l),
(483,-146,ls),
(541,-146,o),
(573,-166,o),
(573,-190,cs),
(573,-216,o),
(537,-242,o),
(483,-242,cs),
(447,-242,o),
(405,-232,o),
(373,-218,c),
(297,-358,l),
(353,-384,o),
(419,-400,o),
(489,-400,cs),
(633,-400,o),
(761,-334,o),
(761,-198,cs),
(761,-138,o),
(725,-82,o),
(629,-64,c),
(668,3,l),
(810,27,o),
(924,89,o),
(1008,182,c),
(892,308,l),
(814,222,o),
(700,178,o),
(566,178,cs),
(396,178,o),
(282,306,o),
(282,492,cs),
(282,720,o),
(436,880,o),
(636,880,cs),
(764,880,o),
(862,834,o),
(928,758,c),
(1068,906,l),
(980,1010,o),
(836,1070,o),
(646,1070,cs),
(306,1070,o),
(52,824,o),
(52,476,cs),
(52,202,o),
(226,11,o),
(495,-7,c)
);
}
);
width = 1128;
},
{
anchors = (
{
name = bottom;
position = "{431, -400}";
},
{
name = top;
position = "{634, 1034}";
}
);
layerId = "CC7E1963-6536-4D59-9993-97487CDAFD05";
shapes = (
{
closed = 1;
nodes = (
(505,-96,l),
(563,-96,ls),
(625,-96,o),
(657,-140,o),
(657,-192,cs),
(657,-258,o),
(597,-334,o),
(495,-334,cs),
(451,-334,o),
(401,-316,o),
(375,-292,c),
(349,-332,l),
(377,-358,o),
(437,-376,o),
(487,-376,cs),
(619,-376,o),
(701,-274,o),
(701,-184,cs),
(701,-120,o),
(657,-60,o),
(565,-58,c),
(594,3,l),
(725,15,o),
(842,72,o),
(930,162,c),
(906,190,l),
(814,94,o),
(686,40,o),
(544,40,cs),
(294,40,o),
(124,216,o),
(124,470,cs),
(124,776,o),
(350,994,o),
(638,994,cs),
(768,994,o),
(874,946,o),
(952,868,c),
(980,896,l),
(898,982,o),
(780,1034,o),
(642,1034,cs),
(334,1034,o),
(86,794,o),
(86,468,cs),
(86,194,o),
(282,0,o),
(550,0,c)
);
}
);
width = 1114;
}
);
leftKerningGroup = o;
rightKerningGroup = c;
unicode = 231;
}
{
glyphname = eth;
layers = (
{
layerId = "6A7A32D0-3BFD-43C1-930A-C854163D3177";
shapes = (
{
closed = 1;
nodes = (
(276,1342,l),
(550,1212,o),
(754,1008,o),
(794,816,c),
(730,860,o),
(608,900,o),
(480,900,cs),
(192,900,o),
(2,698,o),
(2,418,cs),
(2,154,o),
(206,-16,o),
(538,-16,cs),
(946,-16,o),
(1216,274,o),
(1216,678,cs),
(1216,1038,o),
(978,1356,o),
(592,1504,c)
);
},
{
closed = 1;
nodes = (
(678,602,o),
(716,556,o),
(716,502,cs),
(716,432,o),
(652,350,o),
(546,350,cs),
(478,350,o),
(434,388,o),
(434,446,cs),
(434,528,o),
(498,602,o),
(598,602,cs)
);
},
{
closed = 1;
nodes = (
(280,952,l),
(1248,1354,l),
(1188,1504,l),
(220,1098,l)
);
}
);
width = 1234;
},
{
layerId = "A3BFC84F-57DC-4376-84A1-AB8B7A21073A";
shapes = (
{
closed = 1;
nodes = (
(361,1402,l),
(651,1238,o),
(865,966,o),
(905,708,c),
(849,816,o),
(705,888,o),
(545,888,cs),
(255,888,o),
(55,690,o),
(55,400,cs),
(55,150,o),
(237,-8,o),
(521,-8,cs),
(877,-8,o),
(1115,238,o),
(1115,610,cs),
(1115,960,o),
(889,1298,o),
(521,1496,c)
);
},
{
closed = 1;
nodes = (
(759,728,o),
(859,638,o),
(859,494,cs),
(859,312,o),
(727,184,o),
(535,184,cs),
(375,184,o),
(275,274,o),
(275,416,cs),
(275,596,o),
(411,728,o),
(595,728,cs)
);
},
{
closed = 1;
nodes = (
(315,976,l),
(1137,1320,l),
(1089,1432,l),
(269,1088,l)
);
}
);
width = 1180;
},
{
layerId = "CC7E1963-6536-4D59-9993-97487CDAFD05";
shapes = (
{
closed = 1;
nodes = (
(433,1454,l),
(735,1264,o),
(957,934,o),
(997,616,c),
(951,772,o),
(793,874,o),
(593,874,cs),
(303,874,o),
(101,674,o),
(101,386,cs),
(101,152,o),
(265,2,o),
(525,2,cs),
(839,2,o),
(1027,206,o),
(1027,548,cs),
(1027,896,o),
(811,1256,o),
(461,1488,c)
);
},
{
closed = 1;
nodes = (
(831,834,o),
(981,700,o),
(981,486,cs),
(981,222,o),
(797,42,o),
(523,42,cs),
(289,42,o),
(143,178,o),
(143,392,cs),
(143,656,o),
(323,834,o),
(591,834,cs)
);
},
{
closed = 1;
nodes = (
(349,1052,l),
(1041,1346,l),
(1027,1380,l),
(335,1086,l)
);
}
);
width = 1132;
}
);
leftKerningGroup = o;
rightKerningGroup = eth;
unicode = 240;
}
{
glyphname = divide;
layers = (
{
layerId = "A09E50E2-67FC-4045-B7D7-901372DB4BBE";
shapes = (
{
closed = 1;
nodes = (
(110,798,l),
(54,518,l),
(974,518,l),
(1030,798,l)
);
},
{
alignment = -1;
pos = (211,-108);
ref = dotaccent;
scale = (0.8,0.8);
},
{
alignment = -1;
pos = (67,-828);
ref = dotaccent;
scale = (0.8,0.8);
}
);
width = 1040;
},
{
layerId = "6D930887-645F-4E17-BAB2-3A566A02CAA9";
shapes = (
{
closed = 1;
nodes = (
(108,724,l),
(78,572,l),
(934,572,l),
(964,724,l)
);
},
{
alignment = -1;
pos = (91,-234);
ref = dotaccent;
scale = (0.908,0.908);
},
{
alignment = -1;
pos = (-49,-944);
ref = dotaccent;
scale = (0.908,0.908);
}
);
width = 996;
},
{
layerId = "9B3D3104-3922-4F2D-8412-46D902A9971C";
shapes = (
{
closed = 1;
nodes = (
(108,660,l),
(100,620,l),
(900,620,l),
(908,660,l)
);
},
{
alignment = -1;
pos = (330,-342);
ref = dotaccent;
},
{
alignment = -1;
pos = (192,-1042);
ref = dotaccent;
}
);
width = 960;
}
);
leftKerningGroup = hyphen;
rightKerningGroup = hyphen;
unicode = 247;
}
{
glyphname = oslash;
layers = (
{
anchors = (
{
name = top;
position = "{702, 1094}";
}
);
layerId = "6A7A32D0-3BFD-43C1-930A-C854163D3177";
shapes = (
{
closed = 1;
nodes = (
(302,1110,o),
(28,864,o),
(28,492,cs),
(28,184,o),
(244,-16,o),
(594,-16,cs),
(996,-16,o),
(1270,232,o),
(1270,604,cs),
(1270,912,o),
(1056,1110,o),
(706,1110,cs)
);
},
{
closed = 1;
nodes = (
(778,790,o),
(842,706,o),
(842,574,cs),
(842,410,o),
(752,294,o),
(624,294,cs),
(520,294,o),
(456,378,o),
(456,510,cs),
(456,674,o),
(546,790,o),
(674,790,cs)
);
},
{
closed = 1;
nodes = (
(78,-160,l),
(254,-160,l),
(1238,1254,l),
(1062,1254,l)
);
}
);
width = 1296;
},
{
anchors = (
{
name = top;
position = "{700, 1062}";
}
);
layerId = "A3BFC84F-57DC-4376-84A1-AB8B7A21073A";
shapes = (
{
closed = 1;
nodes = (
(326,1070,o),
(66,826,o),
(66,480,cs),
(66,190,o),
(264,-8,o),
(570,-8,cs),
(922,-8,o),
(1184,236,o),
(1184,584,cs),
(1184,872,o),
(984,1070,o),
(678,1070,cs)
);
},
{
closed = 1;
nodes = (
(844,898,o),
(964,762,o),
(964,570,cs),
(964,328,o),
(800,160,o),
(586,160,cs),
(404,160,o),
(284,292,o),
(284,488,cs),
(284,728,o),
(448,898,o),
(662,898,cs)
);
},
{
closed = 1;
nodes = (
(32,-192,l),
(196,-192,l),
(1208,1254,l),
(1044,1254,l)
);
}
);
width = 1250;
},
{
anchors = (
{
name = top;
position = "{681, 1034}";
}
);
layerId = "CC7E1963-6536-4D59-9993-97487CDAFD05";
shapes = (
{
closed = 1;
nodes = (
(349,1034,o),
(101,794,o),
(101,468,cs),
(101,194,o),
(287,0,o),
(555,0,cs),
(863,0,o),
(1111,240,o),
(1111,568,cs),
(1111,840,o),
(925,1034,o),
(657,1034,cs)
);
},
{
closed = 1;
nodes = (
(903,994,o),
(1071,818,o),
(1071,566,cs),
(1071,258,o),
(847,40,o),
(559,40,cs),
(309,40,o),
(141,216,o),
(141,470,cs),
(141,776,o),
(365,994,o),
(653,994,cs)
);
},
{
closed = 1;
nodes = (
(61,-220,l),
(103,-220,l),
(1141,1254,l),
(1099,1254,l)
);
}
);
width = 1212;
}
);
leftKerningGroup = o;
rightKerningGroup = o;
unicode = 248;
}
{
glyphname = thorn;
rightMetricsKey = "=97";
layers = (
{
anchors = (
{
name = bottom;
position = "{341, 0}";
},
{
name = top;
position = "{341, 1484}";
},
{
name = topright;
position = "{625, 1094}";
}
);
layerId = "9043404F-E9C5-4B3E-B15A-843443318E3E";
shapes = (
{
closed = 1;
nodes = (
(843,1110,o),
(739,1064,o),
(653,986,c),
(753,1484,l),
(303,1484,l),
(-71,-388,l),
(379,-388,l),
(485,144,l),
(547,40,o),
(653,-16,o),
(793,-16,cs),
(1109,-16,o),
(1357,270,o),
(1357,636,cs),
(1357,916,o),
(1191,1110,o),
(953,1110,cs)
);
},
{
closed = 1;
nodes = (
(853,774,o),
(903,712,o),
(903,606,cs),
(903,466,o),
(815,352,o),
(707,352,cs),
(621,352,o),
(567,416,o),
(567,518,cs),
(567,658,o),
(659,774,o),
(769,774,cs)
);
}
);
width = 1380;
},
{
anchors = (
{
name = bottom;
position = "{291, 0}";
},
{
name = top;
position = "{291, 1484}";
},
{
name = topright;
position = "{527, 1062}";
}
);
layerId = "E14B12F3-6DA5-4EC4-9B8C-3BC58519F69C";
shapes = (
{
closed = 1;
nodes = (
(703,1072,o),
(573,1010,o),
(477,906,c),
(593,1484,l),
(365,1484,l),
(-9,-388,l),
(219,-388,l),
(343,230,l),
(399,74,o),
(527,-10,o),
(715,-10,cs),
(1045,-10,o),
(1295,252,o),
(1295,594,cs),
(1295,880,o),
(1117,1072,o),
(853,1072,cs)
);
},
{
closed = 1;
nodes = (
(947,894,o),
(1063,770,o),
(1063,584,cs),
(1063,362,o),
(895,180,o),
(687,180,cs),
(515,180,o),
(403,304,o),
(403,490,cs),
(403,714,o),
(567,894,o),
(775,894,cs)
);
}
);
width = 1360;
},
{
anchors = (
{
name = bottom;
position = "{217, 0}";
},
{
name = top;
position = "{217, 1484}";
},
{
name = topright;
position = "{413, 1034}";
}
);
layerId = "3412EF41-8D40-4AD8-A3E8-23555CC779E5";
shapes = (
{
closed = 1;
nodes = (
(565,1038,o),
(393,942,o),
(289,778,c),
(433,1484,l),
(393,1484,l),
(17,-388,l),
(57,-388,l),
(205,354,l),
(245,138,o),
(423,-4,o),
(659,-4,cs),
(969,-4,o),
(1217,258,o),
(1217,586,cs),
(1217,852,o),
(1027,1038,o),
(755,1038,cs)
);
},
{
closed = 1;
nodes = (
(1003,998,o),
(1177,828,o),
(1177,580,cs),
(1177,278,o),
(947,36,o),
(663,36,cs),
(411,36,o),
(237,206,o),
(237,454,cs),
(237,756,o),
(465,998,o),
(751,998,cs)
);
}
);
width = 1312;
}
);
leftKerningGroup = l;
rightKerningGroup = o;
unicode = 254;
}
{
glyphname = Dcroat;
layers = (
{
layerId = "A09E50E2-67FC-4045-B7D7-901372DB4BBE";
shapes = (
{
closed = 1;
nodes = (
(12,798,l),
(-26,604,l),
(806,604,l),
(844,796,l)
);
},
{
alignment = -1;
ref = D;
}
);
width = 1516;
},
{
layerId = "6D930887-645F-4E17-BAB2-3A566A02CAA9";
shapes = (
{
closed = 1;
nodes = (
(84,766,l),
(58,634,l),
(792,634,l),
(818,766,l)
);
},
{
alignment = -1;
ref = D;
}
);
width = 1550;
},
{
layerId = "9B3D3104-3922-4F2D-8412-46D902A9971C";
shapes = (
{
closed = 1;
nodes = (
(141,722,l),
(133,682,l),
(855,682,l),
(863,722,l)
);
},
{
alignment = -1;
ref = D;
}
);
width = 1624;
}
);
leftKerningGroup = H;
rightKerningGroup = O;
unicode = 272;
}
{
glyphname = dcroat;
layers = (
{
layerId = "A09E50E2-67FC-4045-B7D7-901372DB4BBE";
shapes = (
{
closed = 1;
nodes = (
(640,1134,l),
(1510,1134,l),
(1550,1334,l),
(680,1334,l)
);
},
{
closed = 1;
nodes = (
(548,-16,o),
(652,24,o),
(736,92,c),
(716,0,l),
(1166,0,l),
(1460,1484,l),
(1010,1484,l),
(890,892,l),
(826,980,o),
(720,1026,o),
(580,1026,cs),
(268,1026,o),
(26,764,o),
(26,430,cs),
(26,166,o),
(196,-16,o),
(438,-16,cs)
);
},
{
closed = 1;
nodes = (
(530,320,o),
(480,368,o),
(480,454,cs),
(480,566,o),
(566,658,o),
(672,658,cs),
(760,658,o),
(814,608,o),
(814,526,cs),
(814,414,o),
(724,320,o),
(616,320,cs)
);
}
);
width = 1380;
},
{
layerId = "6D930887-645F-4E17-BAB2-3A566A02CAA9";
shapes = (
{
closed = 1;
nodes = (
(692,1180,l),
(1470,1180,l),
(1496,1312,l),
(718,1312,l)
);
},
{
closed = 1;
nodes = (
(674,-10,o),
(802,50,o),
(898,148,c),
(868,0,l),
(1096,0,l),
(1390,1484,l),
(1162,1484,l),
(1028,806,l),
(970,954,o),
(842,1032,o),
(654,1032,cs),
(326,1032,o),
(78,782,o),
(78,454,cs),
(78,176,o),
(258,-10,o),
(524,-10,cs)
);
},
{
closed = 1;
nodes = (
(428,168,o),
(310,286,o),
(310,462,cs),
(310,672,o),
(476,842,o),
(684,842,cs),
(856,842,o),
(970,724,o),
(970,548,cs),
(970,338,o),
(808,168,o),
(600,168,cs)
);
}
);
width = 1362;
},
{
layerId = "9B3D3104-3922-4F2D-8412-46D902A9971C";
shapes = (
{
closed = 1;
nodes = (
(708,1238,l),
(1408,1238,l),
(1416,1278,l),
(716,1278,l)
);
},
{
closed = 1;
nodes = (
(736,-4,o),
(908,92,o),
(1012,256,c),
(960,0,l),
(1000,0,l),
(1296,1484,l),
(1256,1484,l),
(1096,680,l),
(1056,896,o),
(878,1038,o),
(642,1038,cs),
(332,1038,o),
(84,776,o),
(84,448,cs),
(84,182,o),
(274,-4,o),
(546,-4,cs)
);
},
{
closed = 1;
nodes = (
(298,36,o),
(124,206,o),
(124,454,cs),
(124,756,o),
(354,998,o),
(638,998,cs),
(890,998,o),
(1064,828,o),
(1064,580,cs),
(1064,278,o),
(836,36,o),
(550,36,cs)
);
}
);
width = 1346;
}
);
leftKerningGroup = o;
rightKerningGroup = l;
unicode = 273;
}
{
glyphname = Hbar;
layers = (
{
anchors = (
{
name = bottom;
position = "{771, 0}";
},
{
name = center;
position = "{911, 700}";
},
{
name = top;
position = "{1051, 1400}";
},
{
name = topleft;
position = "{311, 1400}";
}
);
layerId = "D4E38000-BFB5-44FC-A51C-4288F8544A0D";
shapes = (
{
closed = 1;
nodes = (
(175,1220,l),
(137,1024,l),
(1817,1024,l),
(1855,1218,l)
);
},
{
closed = 1;
nodes = (
(833,1400,l),
(371,1400,l),
(91,0,l),
(555,0,l)
);
},
{
closed = 1;
nodes = (
(987,0,l),
(1451,0,l),
(1731,1400,l),
(1267,1400,l)
);
},
{
closed = 1;
nodes = (
(625,506,l),
(1121,506,l),
(1191,856,l),
(693,856,l)
);
}
);
width = 1762;
},
{
anchors = (
{
name = bottom;
position = "{686, 0}";
},
{
name = center;
position = "{826, 700}";
},
{
name = top;
position = "{966, 1400}";
},
{
name = topleft;
position = "{214, 1400}";
}
);
layerId = "196BCA4D-4EBA-41D5-BBFD-A0C7C55F9EA0";
shapes = (
{
closed = 1;
nodes = (
(132,1180,l),
(106,1048,l),
(1680,1048,l),
(1706,1180,l)
);
},
{
closed = 1;
nodes = (
(594,1400,l),
(358,1400,l),
(78,0,l),
(314,0,l)
);
},
{
closed = 1;
nodes = (
(1056,0,l),
(1292,0,l),
(1572,1400,l),
(1336,1400,l)
);
},
{
closed = 1;
nodes = (
(398,586,l),
(1204,586,l),
(1244,786,l),
(438,786,l)
);
}
);
width = 1582;
},
{
anchors = (
{
name = bottom;
position = "{698, 0}";
},
{
name = center;
position = "{838, 702}";
},
{
name = top;
position = "{978, 1400}";
},
{
name = topleft;
position = "{216, 1400}";
}
);
layerId = "FAA95C36-2A9A-4A6A-AE16-672F8292957B";
shapes = (
{
closed = 1;
nodes = (
(212,1096,l),
(204,1056,l),
(1612,1056,l),
(1620,1096,l)
);
},
{
closed = 1;
nodes = (
(472,1400,l),
(432,1400,l),
(152,0,l),
(192,0,l)
);
},
{
closed = 1;
nodes = (
(1200,0,l),
(1240,0,l),
(1520,1400,l),
(1480,1400,l)
);
},
{
closed = 1;
nodes = (
(320,688,l),
(1348,688,l),
(1356,728,l),
(328,728,l)
);
}
);
width = 1600;
}
);
leftKerningGroup = H;
rightKerningGroup = H;
unicode = 294;
}
{
glyphname = hbar;
layers = (
{
layerId = "9043404F-E9C5-4B3E-B15A-843443318E3E";
shapes = (
{
closed = 1;
nodes = (
(120,1134,l),
(990,1134,l),
(1030,1334,l),
(160,1334,l)
);
},
{
closed = 1;
nodes = (
(832,1026,o),
(724,978,o),
(638,890,c),
(760,1484,l),
(310,1484,l),
(16,0,l),
(466,0,l),
(564,484,ls),
(584,580,o),
(664,650,o),
(750,650,cs),
(826,650,o),
(864,604,o),
(850,532,cs),
(744,0,l),
(1194,0,l),
(1312,602,ls),
(1358,836,o),
(1204,1026,o),
(958,1026,cs)
);
}
);
width = 1374;
},
{
layerId = "E14B12F3-6DA5-4EC4-9B8C-3BC58519F69C";
shapes = (
{
closed = 1;
nodes = (
(168,1180,l),
(946,1180,l),
(972,1312,l),
(194,1312,l)
);
},
{
closed = 1;
nodes = (
(682,1034,o),
(566,980,o),
(482,874,c),
(602,1484,l),
(370,1484,l),
(78,0,l),
(308,0,l),
(420,550,ls),
(456,724,o),
(588,840,o),
(752,840,cs),
(922,840,o),
(1012,736,o),
(980,572,cs),
(866,0,l),
(1096,0,l),
(1218,600,ls),
(1272,864,o),
(1122,1034,o),
(834,1034,cs)
);
}
);
width = 1338;
},
{
layerId = "3412EF41-8D40-4AD8-A3E8-23555CC779E5";
shapes = (
{
closed = 1;
nodes = (
(216,1238,l),
(874,1238,l),
(882,1278,l),
(224,1278,l)
);
},
{
closed = 1;
nodes = (
(592,1030,o),
(418,924,o),
(316,736,c),
(462,1484,l),
(422,1484,l),
(130,0,l),
(170,0,l),
(274,532,ls),
(330,820,o),
(538,988,o),
(804,994,c),
(1032,994,o),
(1142,858,o),
(1096,626,cs),
(972,0,l),
(1012,0,l),
(1136,626,ls),
(1186,882,o),
(1064,1034,o),
(804,1034,c)
);
}
);
width = 1300;
}
);
leftKerningGroup = l;
rightKerningGroup = n;
unicode = 295;
}
{
glyphname = imacron;
layers = (
{
layerId = "FCBE0D3F-305A-4B26-ABA3-05651CFDD837";
shapes = (
{
alignment = -1;
ref = idotless;
},
{
pos = (-6,0);
ref = macroncomb.narrow;
}
);
width = 670;
},
{
layerId = "5BDD1EDE-DE70-4338-9338-A02B2C6AE01A";
shapes = (
{
alignment = -1;
ref = idotless;
},
{
pos = (-14,0);
ref = macroncomb.narrow;
}
);
width = 568;
},
{
layerId = "A3D6E1CA-B1BA-4595-96B0-7801BFB529A2";
shapes = (
{
closed = 1;
nodes = (
(323,1034,l),
(117,0,l),
(157,0,l),
(363,1034,l)
);
},
{
closed = 1;
nodes = (
(179,1314,l),
(613,1314,l),
(621,1354,l),
(187,1354,l)
);
}
);
width = 480;
}
);
leftKerningGroup = n;
rightKerningGroup = u;
unicode = 299;
}
{
glyphname = dotlessi;
layers = (
{
anchors = (
{
name = bottom;
position = "{229, 0}";
},
{
name = ogonek;
position = "{333, 0}";
},
{
name = top;
position = "{445, 1094}";
}
);
layerId = "288DB91C-ADA9-4EAE-B002-103CECDA4F2F";
shapes = (
{
closed = 1;
nodes = (
(219,1094,l),
(1,0,l),
(451,0,l),
(669,1094,l)
);
}
);
width = 670;
},
{
anchors = (
{
name = bottom;
position = "{178, 0}";
},
{
name = ogonek;
position = "{292, 0}";
},
{
name = top;
position = "{390, 1062}";
}
);
layerId = "DF367E9D-3B3B-43F4-BC7A-7EE40495C523";
shapes = (
{
closed = 1;
nodes = (
(276,1062,l),
(64,0,l),
(292,0,l),
(504,1062,l)
);
}
);
width = 568;
},
{
anchors = (
{
name = bottom;
position = "{137, 0}";
},
{
name = ogonek;
position = "{157, 0}";
},
{
name = top;
position = "{343, 1034}";
}
);
layerId = "FADC2794-F71C-487D-BA21-AA7BC8CC963C";
shapes = (
{
closed = 1;
nodes = (
(323,1034,l),
(117,0,l),
(157,0,l),
(363,1034,l)
);
}
);
width = 480;
}
);
leftKerningGroup = n;
rightKerningGroup = u;
unicode = 305;
}
{
glyphname = idotless;
layers = (
{
anchors = (
{
name = bottom;
position = "{229, 0}";
},
{
name = ogonek;
position = "{333, 0}";
},
{
name = top;
position = "{445, 1094}";
}
);
layerId = "FCBE0D3F-305A-4B26-ABA3-05651CFDD837";
shapes = (
{
closed = 1;
nodes = (
(219,1094,l),
(1,0,l),
(451,0,l),
(669,1094,l)
);
}
);
width = 670;
},
{
anchors = (
{
name = bottom;
position = "{178, 0}";
},
{
name = ogonek;
position = "{292, 0}";
},
{
name = top;
position = "{390, 1062}";
}
);
layerId = "5BDD1EDE-DE70-4338-9338-A02B2C6AE01A";
shapes = (
{
closed = 1;
nodes = (
(276,1062,l),
(64,0,l),
(292,0,l),
(504,1062,l)
);
}
);
width = 568;
},
{
anchors = (
{
name = bottom;
position = "{137, 0}";
},
{
name = ogonek;
position = "{157, 0}";
},
{
name = top;
position = "{343, 1034}";
}
);
layerId = "A3D6E1CA-B1BA-4595-96B0-7801BFB529A2";
shapes = (
{
closed = 1;
nodes = (
(323,1034,l),
(117,0,l),
(157,0,l),
(363,1034,l)
);
}
);
width = 480;
}
);
leftKerningGroup = n;
rightKerningGroup = u;
unicode = 305;
}
